<svg width="166" height="26" viewBox="0 0 166 26" fill="none" xmlns="http://www.w3.org/2000/svg">
<path d="M55.2215 10.5533C56.1221 10.8484 56.8364 11.3454 57.3643 12.0444C57.8922 12.7278 58.1562 13.5821 58.1562 14.6072C58.1562 16.0207 57.6127 17.1157 56.5258 17.8923C55.4389 18.6534 53.8551 19.0339 51.7745 19.0339H43.6692V2.72498H51.3086C53.234 2.72498 54.7169 3.10552 55.7572 3.8666C56.7975 4.61215 57.3177 5.64505 57.3177 6.9653C57.3177 7.77298 57.1314 8.48747 56.7587 9.10876C56.3861 9.73006 55.8737 10.2116 55.2215 10.5533ZM46.697 5.10142V9.59803H50.9826C52.0384 9.59803 52.8458 9.41165 53.4048 9.03887C53.9793 8.65056 54.2666 8.0914 54.2666 7.36138C54.2666 6.61583 53.9793 6.05666 53.4048 5.68389C52.8458 5.29558 52.0384 5.10142 50.9826 5.10142H46.697ZM51.5881 16.6575C53.9328 16.6575 55.1051 15.8731 55.1051 14.3043C55.1051 12.7356 53.9328 11.9512 51.5881 11.9512H46.697V16.6575H51.5881Z" fill="#2E303D"/>
<path d="M66.698 19.197C65.4403 19.197 64.3068 18.9252 63.2975 18.3816C62.2882 17.8379 61.4963 17.0846 60.9218 16.1216C60.3628 15.1431 60.0833 14.0403 60.0833 12.8132C60.0833 11.5862 60.3628 10.4911 60.9218 9.52814C61.4963 8.56513 62.2882 7.81181 63.2975 7.26818C64.3068 6.72455 65.4403 6.45274 66.698 6.45274C67.9712 6.45274 69.1125 6.72455 70.1217 7.26818C71.131 7.81181 71.9152 8.56513 72.4741 9.52814C73.0486 10.4911 73.3359 11.5862 73.3359 12.8132C73.3359 14.0403 73.0486 15.1431 72.4741 16.1216C71.9152 17.0846 71.131 17.8379 70.1217 18.3816C69.1125 18.9252 67.9712 19.197 66.698 19.197ZM66.698 16.7041C67.7694 16.7041 68.6544 16.3468 69.3531 15.6323C70.0519 14.9179 70.4012 13.9782 70.4012 12.8132C70.4012 11.6483 70.0519 10.7086 69.3531 9.99411C68.6544 9.27962 67.7694 8.92238 66.698 8.92238C65.6266 8.92238 64.7415 9.27962 64.0428 9.99411C63.3596 10.7086 63.018 11.6483 63.018 12.8132C63.018 13.9782 63.3596 14.9179 64.0428 15.6323C64.7415 16.3468 65.6266 16.7041 66.698 16.7041Z" fill="#2E303D"/>
<path d="M81.7097 19.197C80.452 19.197 79.3185 18.9252 78.3093 18.3816C77.3 17.8379 76.5081 17.0846 75.9336 16.1216C75.3746 15.1431 75.0951 14.0403 75.0951 12.8132C75.0951 11.5862 75.3746 10.4911 75.9336 9.52814C76.5081 8.56513 77.3 7.81181 78.3093 7.26818C79.3185 6.72455 80.452 6.45274 81.7097 6.45274C82.983 6.45274 84.1242 6.72455 85.1335 7.26818C86.1428 7.81181 86.9269 8.56513 87.4859 9.52814C88.0604 10.4911 88.3477 11.5862 88.3477 12.8132C88.3477 14.0403 88.0604 15.1431 87.4859 16.1216C86.9269 17.0846 86.1428 17.8379 85.1335 18.3816C84.1242 18.9252 82.983 19.197 81.7097 19.197ZM81.7097 16.7041C82.7811 16.7041 83.6662 16.3468 84.3649 15.6323C85.0636 14.9179 85.413 13.9782 85.413 12.8132C85.413 11.6483 85.0636 10.7086 84.3649 9.99411C83.6662 9.27962 82.7811 8.92238 81.7097 8.92238C80.6384 8.92238 79.7533 9.27962 79.0546 9.99411C78.3714 10.7086 78.0298 11.6483 78.0298 12.8132C78.0298 13.9782 78.3714 14.9179 79.0546 15.6323C79.7533 16.3468 80.6384 16.7041 81.7097 16.7041Z" fill="#2E303D"/>
<path d="M98.6081 18.3583C98.2665 18.6379 97.8472 18.8475 97.3504 18.9873C96.869 19.1271 96.3566 19.197 95.8132 19.197C94.4468 19.197 93.3909 18.8398 92.6456 18.1253C91.9003 17.4108 91.5276 16.3701 91.5276 15.0033V9.01557H89.478V6.68572H91.5276V3.8433H94.439V6.68572H97.7696V9.01557H94.439V14.9334C94.439 15.5392 94.5865 16.0051 94.8815 16.3313C95.1765 16.6419 95.6035 16.7973 96.1625 16.7973C96.8147 16.7973 97.3581 16.6264 97.7929 16.2847L98.6081 18.3583Z" fill="#2E303D"/>
<path d="M106.3 19.197C105.011 19.197 103.854 18.9252 102.83 18.3816C101.805 17.8379 101.005 17.0846 100.431 16.1216C99.8561 15.1431 99.5688 14.0403 99.5688 12.8132C99.5688 11.5862 99.8561 10.4911 100.431 9.52814C101.005 8.56513 101.797 7.81181 102.806 7.26818C103.831 6.72455 104.996 6.45274 106.3 6.45274C107.527 6.45274 108.598 6.70125 109.514 7.19829C110.446 7.69532 111.144 8.40981 111.61 9.34175L109.374 10.6465C109.017 10.0718 108.567 9.64463 108.023 9.36505C107.496 9.06993 106.913 8.92238 106.277 8.92238C105.19 8.92238 104.289 9.27962 103.575 9.99411C102.861 10.6931 102.503 11.6328 102.503 12.8132C102.503 13.9937 102.853 14.9412 103.552 15.6556C104.266 16.3546 105.174 16.7041 106.277 16.7041C106.913 16.7041 107.496 16.5643 108.023 16.2847C108.567 15.9896 109.017 15.5547 109.374 14.98L111.61 16.2847C111.129 17.2166 110.422 17.9389 109.491 18.4515C108.575 18.9485 107.511 19.197 106.3 19.197Z" fill="#2E303D"/>
<path d="M118.878 6.45274C120.711 6.45274 122.108 6.89541 123.071 7.78075C124.049 8.65056 124.538 9.97081 124.538 11.7415V19.0339H121.79V17.5195C121.433 18.0632 120.92 18.4825 120.252 18.7776C119.6 19.0572 118.808 19.197 117.877 19.197C116.945 19.197 116.13 19.0417 115.431 18.731C114.733 18.4049 114.189 17.9622 113.801 17.403C113.428 16.8283 113.242 16.1837 113.242 15.4693C113.242 14.3509 113.653 13.4578 114.476 12.7899C115.315 12.1065 116.627 11.7648 118.413 11.7648H121.627V11.5784C121.627 10.7086 121.363 10.0407 120.835 9.57473C120.322 9.10876 119.554 8.87578 118.529 8.87578C117.83 8.87578 117.139 8.98451 116.456 9.20196C115.788 9.41941 115.222 9.72229 114.756 10.1106L113.615 7.99044C114.267 7.4934 115.051 7.11286 115.967 6.84881C116.883 6.58476 117.854 6.45274 118.878 6.45274ZM118.482 17.0769C119.212 17.0769 119.857 16.9138 120.416 16.5876C120.99 16.2459 121.394 15.7644 121.627 15.1431V13.6986H118.622C116.945 13.6986 116.107 14.25 116.107 15.3528C116.107 15.8809 116.316 16.3002 116.736 16.6109C117.155 16.9215 117.737 17.0769 118.482 17.0769Z" fill="#2E303D"/>
<path d="M143.973 6.45274C145.541 6.45274 146.783 6.91094 147.699 7.82735C148.615 8.72822 149.073 10.0873 149.073 11.9046V19.0339H146.162V12.2774C146.162 11.1901 145.921 10.3746 145.44 9.83102C144.959 9.27185 144.268 8.99227 143.367 8.99227C142.389 8.99227 141.605 9.31845 141.015 9.97081C140.425 10.6076 140.13 11.524 140.13 12.72V19.0339H137.218V12.2774C137.218 11.1901 136.977 10.3746 136.496 9.83102C136.015 9.27185 135.324 8.99227 134.423 8.99227C133.429 8.99227 132.638 9.31068 132.048 9.94751C131.473 10.5843 131.186 11.5085 131.186 12.72V19.0339H128.274V6.59253H131.046V8.17682C131.512 7.61766 132.094 7.19052 132.793 6.89541C133.492 6.60029 134.268 6.45274 135.122 6.45274C136.054 6.45274 136.877 6.63136 137.591 6.9886C138.321 7.33031 138.895 7.84288 139.314 8.5263C139.827 7.87394 140.487 7.36914 141.294 7.0119C142.102 6.63912 142.994 6.45274 143.973 6.45274Z" fill="#2E303D"/>
<path d="M159.688 6.45274C160.899 6.45274 161.978 6.71679 162.925 7.24488C163.888 7.77298 164.641 8.51854 165.184 9.48154C165.728 10.4445 166 11.5551 166 12.8132C166 14.0713 165.728 15.1897 165.184 16.1682C164.641 17.1312 163.888 17.8768 162.925 18.4049C161.978 18.933 160.899 19.197 159.688 19.197C158.011 19.197 156.683 18.6378 155.705 17.5195V23.5538H152.794V6.59253H155.565V8.22342C156.047 7.63319 156.637 7.19052 157.335 6.89541C158.05 6.60029 158.834 6.45274 159.688 6.45274ZM159.362 16.7041C160.433 16.7041 161.31 16.3468 161.994 15.6323C162.692 14.9179 163.042 13.9782 163.042 12.8132C163.042 11.6483 162.692 10.7086 161.994 9.99411C161.31 9.27962 160.433 8.92238 159.362 8.92238C158.663 8.92238 158.034 9.08547 157.475 9.41165C156.916 9.72229 156.474 10.1727 156.148 10.763C155.821 11.3532 155.658 12.0366 155.658 12.8132C155.658 13.5898 155.821 14.2733 156.148 14.8635C156.474 15.4537 156.916 15.9119 157.475 16.2381C158.034 16.5488 158.663 16.7041 159.362 16.7041Z" fill="#2E303D"/>
<path fill-rule="evenodd" clip-rule="evenodd" d="M0 0H8.64452C10.4863 0 12.2526 0.72669 13.5549 2.02021C14.8572 3.31372 15.5888 5.06811 15.5888 6.89742V25.1187H12.7968C12.7968 24.3903 12.5054 23.6917 11.9869 23.1766C11.4683 22.6615 10.765 22.3722 10.0316 22.3722H0V0ZM12.7968 20.3308V6.89742C12.7968 5.8036 12.3593 4.75459 11.5806 3.98115C10.8019 3.2077 9.74576 2.77319 8.64452 2.77319H2.79202V19.599H10.0316C11.0103 19.599 11.9623 19.8554 12.7968 20.3308Z" fill="#2E303D"/>
<path fill-rule="evenodd" clip-rule="evenodd" d="M14.8317 2.02021C16.134 0.72669 17.9003 0 19.742 0H28.3865V22.3722H18.3549C17.6216 22.3722 16.9182 22.6615 16.3996 23.1766C15.8811 23.6917 15.5897 24.3903 15.5897 25.1187H12.7977V6.89742C12.7977 5.06811 13.5294 3.31372 14.8317 2.02021ZM15.5897 20.3308C16.4242 19.8554 17.3762 19.599 18.3549 19.599H25.5945V2.77319H19.742C18.6407 2.77319 17.5846 3.2077 16.8059 3.98115C16.0272 4.75459 15.5897 5.8036 15.5897 6.89742V20.3308Z" fill="#2E303D"/>
</svg>
