<svg width="186" height="26" viewBox="0 0 186 26" fill="none" xmlns="http://www.w3.org/2000/svg">
<path fill-rule="evenodd" clip-rule="evenodd" d="M2.77964 16.9989C3.91912 15.8847 5.46459 15.2588 7.07606 15.2588H16.7978C18.4092 15.2588 19.9547 15.8847 21.0942 16.9989C22.2337 18.113 22.8738 19.6242 22.8738 21.1998V23.5763C22.8738 24.2325 22.3297 24.7645 21.6586 24.7645C20.9875 24.7645 20.4434 24.2325 20.4434 23.5763V21.1998C20.4434 20.2544 20.0593 19.3478 19.3756 18.6793C18.6919 18.0108 17.7646 17.6352 16.7978 17.6352H7.07606C6.10918 17.6352 5.1819 18.0108 4.49821 18.6793C3.81452 19.3478 3.43042 20.2544 3.43042 21.1998V23.5763C3.43042 24.2325 2.88635 24.7645 2.21521 24.7645C1.54407 24.7645 1 24.2325 1 23.5763V21.1998C1 19.6242 1.64015 18.113 2.77964 16.9989Z" fill="#243C93" stroke="#243C93" stroke-width="0.2" stroke-linecap="round" stroke-linejoin="round"/>
<path fill-rule="evenodd" clip-rule="evenodd" d="M11.9369 3.37641C9.92347 3.37641 8.29126 4.97235 8.29126 6.94103C8.29126 8.90972 9.92347 10.5057 11.9369 10.5057C13.9503 10.5057 15.5825 8.90972 15.5825 6.94103C15.5825 4.97235 13.9503 3.37641 11.9369 3.37641ZM5.86084 6.94103C5.86084 3.65989 8.58118 1 11.9369 1C15.2926 1 18.013 3.65989 18.013 6.94103C18.013 10.2222 15.2926 12.8821 11.9369 12.8821C8.58118 12.8821 5.86084 10.2222 5.86084 6.94103Z" fill="#243C93" stroke="#243C93" stroke-width="0.2" stroke-linecap="round" stroke-linejoin="round"/>
<path opacity="0.6" fill-rule="evenodd" clip-rule="evenodd" d="M24.1273 16.3031C24.295 15.6677 24.9579 15.2856 25.6077 15.4496C26.9112 15.7787 28.066 16.5218 28.8908 17.5621C29.7157 18.6025 30.1637 19.8812 30.1647 21.1976L30.1647 23.5749C30.1647 24.2311 29.6207 24.7631 28.9495 24.7631C28.2784 24.7631 27.7343 24.2311 27.7343 23.5749L27.7343 21.1994C27.7343 21.1992 27.7343 21.1995 27.7343 21.1994C27.7336 20.4097 27.4648 19.6422 26.97 19.0181C26.4751 18.3939 25.7822 17.948 25.0001 17.7506C24.3503 17.5865 23.9595 16.9385 24.1273 16.3031Z" fill="#243C93" stroke="#243C93" stroke-width="0.2" stroke-linecap="round" stroke-linejoin="round"/>
<path opacity="0.6" fill-rule="evenodd" clip-rule="evenodd" d="M19.2663 2.04856C19.4328 1.41284 20.0948 1.02943 20.745 1.1922C22.0519 1.51941 23.2104 2.26263 24.0376 3.3047C24.8649 4.34677 25.3139 5.62842 25.3139 6.94759C25.3139 8.26675 24.8649 9.54839 24.0376 10.5905C23.2104 11.6325 22.0519 12.3758 20.745 12.703C20.0948 12.8657 19.4328 12.4823 19.2663 11.8466C19.0998 11.2109 19.4919 10.5636 20.1421 10.4008C20.9263 10.2045 21.6214 9.75856 22.1177 9.13331C22.6141 8.50807 22.8835 7.73908 22.8835 6.94759C22.8835 6.15609 22.6141 5.3871 22.1177 4.76186C21.6214 4.13661 20.9263 3.69068 20.1421 3.49436C19.4919 3.33158 19.0998 2.68428 19.2663 2.04856Z" fill="#243C93" stroke="#243C93" stroke-width="0.2" stroke-linecap="round" stroke-linejoin="round"/>
<mask id="path-5-outside-1_207_6936" maskUnits="userSpaceOnUse" x="44.8696" y="4.74365" width="141" height="21" fill="black">
<rect fill="white" x="44.8696" y="4.74365" width="141" height="21"/>
<path d="M45.8696 5.74365H52.5021C54.1658 5.74365 55.6422 6.06607 56.9312 6.71091C58.2202 7.35575 59.2169 8.26439 59.9214 9.43683C60.6408 10.5946 61.0006 11.9283 61.0006 13.4378C61.0006 14.9473 60.6408 16.2883 59.9214 17.4607C59.2169 18.6185 58.2202 19.5198 56.9312 20.1646C55.6422 20.8095 54.1658 21.1319 52.5021 21.1319H45.8696V5.74365ZM52.3672 19.2194C53.6412 19.2194 54.7578 18.9775 55.7171 18.4939C56.6914 18.0103 57.4408 17.3361 57.9654 16.4715C58.49 15.5921 58.7523 14.5809 58.7523 13.4378C58.7523 12.2946 58.49 11.2907 57.9654 10.4261C57.4408 9.54674 56.6914 8.86527 55.7171 8.38164C54.7578 7.89801 53.6412 7.65619 52.3672 7.65619H48.1179V19.2194H52.3672Z"/>
<path d="M74.8988 15.3723C74.8988 15.5335 74.8838 15.746 74.8538 16.0098H65.1862C65.3211 17.0357 65.7783 17.8637 66.5577 18.4939C67.3521 19.1094 68.3338 19.4172 69.5029 19.4172C70.9268 19.4172 72.0735 18.9482 72.9428 18.0103L74.1344 19.3732C73.5948 19.9888 72.9203 20.4577 72.1109 20.7802C71.3165 21.1026 70.4247 21.2638 69.4355 21.2638C68.1764 21.2638 67.0598 21.0146 66.0855 20.5164C65.1113 20.0034 64.3544 19.2926 63.8148 18.384C63.2902 17.4754 63.0279 16.4495 63.0279 15.3063C63.0279 14.1779 63.2827 13.1593 63.7923 12.2507C64.3169 11.342 65.0288 10.6386 65.9282 10.1403C66.8425 9.62735 67.8692 9.37088 69.0083 9.37088C70.1474 9.37088 71.1592 9.62735 72.0435 10.1403C72.9428 10.6386 73.6398 11.342 74.1344 12.2507C74.644 13.1593 74.8988 14.1999 74.8988 15.3723ZM69.0083 11.1515C67.9741 11.1515 67.1048 11.4593 66.4003 12.0748C65.7108 12.6903 65.3061 13.4964 65.1862 14.493H72.8304C72.7105 13.511 72.2983 12.7123 71.5938 12.0968C70.9044 11.4666 70.0425 11.1515 69.0083 11.1515Z"/>
<path d="M84.2135 9.37088C85.3676 9.37088 86.4019 9.62002 87.3162 10.1183C88.2305 10.6166 88.9424 11.3127 89.452 12.2067C89.9766 13.1007 90.2389 14.1339 90.2389 15.3063C90.2389 16.4788 89.9766 17.5193 89.452 18.428C88.9424 19.3219 88.2305 20.0181 87.3162 20.5164C86.4019 21.0146 85.3676 21.2638 84.2135 21.2638C83.3592 21.2638 82.5723 21.1026 81.8528 20.7802C81.1484 20.4577 80.5488 19.9888 80.0542 19.3732V25.3966H77.8959V9.4808H79.9643V11.3274C80.4439 10.6825 81.0509 10.1989 81.7854 9.87649C82.5198 9.53942 83.3292 9.37088 84.2135 9.37088ZM84.0337 19.4172C84.7981 19.4172 85.4801 19.2487 86.0796 18.9116C86.6941 18.5599 87.1738 18.0762 87.5185 17.4607C87.8782 16.8305 88.0581 16.1124 88.0581 15.3063C88.0581 14.5003 87.8782 13.7895 87.5185 13.174C87.1738 12.5438 86.6941 12.0602 86.0796 11.7231C85.4801 11.386 84.7981 11.2175 84.0337 11.2175C83.2842 11.2175 82.6023 11.3933 81.9877 11.7451C81.3882 12.0821 80.9086 12.5584 80.5488 13.174C80.2041 13.7895 80.0317 14.5003 80.0317 15.3063C80.0317 16.1124 80.2041 16.8305 80.5488 17.4607C80.8936 18.0762 81.3732 18.5599 81.9877 18.9116C82.6023 19.2487 83.2842 19.4172 84.0337 19.4172Z"/>
<path d="M97.4505 9.37088C99.0992 9.37088 100.358 9.76658 101.228 10.558C102.112 11.3494 102.554 12.5291 102.554 14.0973V21.1319H100.508V19.5931C100.148 20.1353 99.6313 20.553 98.9568 20.8461C98.2973 21.1246 97.5104 21.2638 96.5961 21.2638C95.2621 21.2638 94.1904 20.9487 93.3811 20.3185C92.5867 19.6883 92.1895 18.8603 92.1895 17.8344C92.1895 16.8085 92.5717 15.9878 93.3361 15.3723C94.1005 14.7421 95.3146 14.427 96.9783 14.427H100.396V14.0093C100.396 13.1007 100.126 12.4046 99.5863 11.9209C99.0467 11.4373 98.2523 11.1955 97.2031 11.1955C96.4987 11.1955 95.8092 11.3127 95.1347 11.5472C94.4602 11.767 93.8907 12.0675 93.426 12.4485L92.5267 10.8657C93.1413 10.3821 93.8757 10.0157 94.73 9.76658C95.5844 9.50278 96.4912 9.37088 97.4505 9.37088ZM96.9558 19.637C97.7802 19.637 98.4922 19.4612 99.0917 19.1094C99.6912 18.743 100.126 18.2301 100.396 17.5706V15.9439H97.0682C95.2396 15.9439 94.3253 16.5447 94.3253 17.7465C94.3253 18.3327 94.5577 18.7943 95.0223 19.1314C95.487 19.4685 96.1315 19.637 96.9558 19.637Z"/>
<path d="M108.617 11.4373C108.991 10.7631 109.546 10.2502 110.28 9.89848C111.015 9.54675 111.907 9.37088 112.956 9.37088V11.4153C112.836 11.4007 112.671 11.3933 112.461 11.3933C111.292 11.3933 110.37 11.7377 109.696 12.4265C109.036 13.1007 108.707 14.068 108.707 15.3283V21.1319H106.548V9.4808H108.617V11.4373Z"/>
<path d="M122.799 20.4504C122.484 20.7142 122.094 20.9194 121.63 21.0659C121.165 21.1978 120.686 21.2638 120.191 21.2638C118.992 21.2638 118.063 20.9487 117.403 20.3185C116.744 19.6883 116.414 18.787 116.414 17.6146V11.2175H114.39V9.4808H116.414V6.93075H118.572V9.4808H121.99V11.2175H118.572V17.5266C118.572 18.1568 118.73 18.6405 119.044 18.9775C119.374 19.3146 119.839 19.4832 120.438 19.4832C121.098 19.4832 121.66 19.3 122.124 18.9336L122.799 20.4504Z"/>
<path d="M140.314 9.37088C141.813 9.37088 142.997 9.79589 143.867 10.6459C144.751 11.4959 145.193 12.7563 145.193 14.427V21.1319H143.035V14.6688C143.035 13.5404 142.765 12.6903 142.225 12.1188C141.701 11.5472 140.944 11.2614 139.955 11.2614C138.861 11.2614 137.991 11.5985 137.347 12.2727C136.702 12.9322 136.38 13.8848 136.38 15.1305V21.1319H134.222V14.6688C134.222 13.5404 133.952 12.6903 133.412 12.1188C132.888 11.5472 132.131 11.2614 131.141 11.2614C130.047 11.2614 129.178 11.5985 128.533 12.2727C127.889 12.9322 127.567 13.8848 127.567 15.1305V21.1319H125.408V9.4808H127.477V11.2175C127.911 10.6166 128.481 10.1623 129.185 9.85451C129.89 9.53209 130.692 9.37088 131.591 9.37088C132.52 9.37088 133.345 9.55407 134.064 9.92046C134.784 10.2868 135.338 10.8218 135.728 11.5252C136.178 10.8511 136.8 10.3235 137.594 9.94244C138.403 9.5614 139.31 9.37088 140.314 9.37088Z"/>
<path d="M160 15.3723C160 15.5335 159.985 15.746 159.955 16.0098H150.287C150.422 17.0357 150.879 17.8637 151.659 18.4939C152.453 19.1094 153.435 19.4172 154.604 19.4172C156.028 19.4172 157.174 18.9482 158.044 18.0103L159.235 19.3732C158.696 19.9888 158.021 20.4577 157.212 20.7802C156.417 21.1026 155.526 21.2638 154.536 21.2638C153.277 21.2638 152.161 21.0146 151.186 20.5164C150.212 20.0034 149.455 19.2926 148.916 18.384C148.391 17.4754 148.129 16.4495 148.129 15.3063C148.129 14.1779 148.384 13.1593 148.893 12.2507C149.418 11.342 150.13 10.6386 151.029 10.1403C151.943 9.62735 152.97 9.37088 154.109 9.37088C155.248 9.37088 156.26 9.62735 157.144 10.1403C158.044 10.6386 158.741 11.342 159.235 12.2507C159.745 13.1593 160 14.1999 160 15.3723ZM154.109 11.1515C153.075 11.1515 152.206 11.4593 151.501 12.0748C150.812 12.6903 150.407 13.4964 150.287 14.493H157.931C157.811 13.511 157.399 12.7123 156.695 12.0968C156.005 11.4666 155.143 11.1515 154.109 11.1515Z"/>
<path d="M169.359 9.37088C170.873 9.37088 172.072 9.80322 172.957 10.6679C173.856 11.5179 174.306 12.7709 174.306 14.427V21.1319H172.147V14.6688C172.147 13.5404 171.87 12.6903 171.315 12.1188C170.761 11.5472 169.966 11.2614 168.932 11.2614C167.763 11.2614 166.841 11.5985 166.167 12.2727C165.492 12.9322 165.155 13.8848 165.155 15.1305V21.1319H162.997V9.4808H165.065V11.2395C165.5 10.6386 166.084 10.1769 166.819 9.85451C167.568 9.53209 168.415 9.37088 169.359 9.37088Z"/>
<path d="M185 20.4504C184.685 20.7142 184.295 20.9194 183.831 21.0659C183.366 21.1978 182.887 21.2638 182.392 21.2638C181.193 21.2638 180.264 20.9487 179.604 20.3185C178.945 19.6883 178.615 18.787 178.615 17.6146V11.2175H176.591V9.4808H178.615V6.93075H180.773V9.4808H184.191V11.2175H180.773V17.5266C180.773 18.1568 180.931 18.6405 181.245 18.9775C181.575 19.3146 182.04 19.4832 182.639 19.4832C183.299 19.4832 183.861 19.3 184.325 18.9336L185 20.4504Z"/>
</mask>
<path d="M45.8696 5.74365H52.5021C54.1658 5.74365 55.6422 6.06607 56.9312 6.71091C58.2202 7.35575 59.2169 8.26439 59.9214 9.43683C60.6408 10.5946 61.0006 11.9283 61.0006 13.4378C61.0006 14.9473 60.6408 16.2883 59.9214 17.4607C59.2169 18.6185 58.2202 19.5198 56.9312 20.1646C55.6422 20.8095 54.1658 21.1319 52.5021 21.1319H45.8696V5.74365ZM52.3672 19.2194C53.6412 19.2194 54.7578 18.9775 55.7171 18.4939C56.6914 18.0103 57.4408 17.3361 57.9654 16.4715C58.49 15.5921 58.7523 14.5809 58.7523 13.4378C58.7523 12.2946 58.49 11.2907 57.9654 10.4261C57.4408 9.54674 56.6914 8.86527 55.7171 8.38164C54.7578 7.89801 53.6412 7.65619 52.3672 7.65619H48.1179V19.2194H52.3672Z" fill="#1D2234"/>
<path d="M74.8988 15.3723C74.8988 15.5335 74.8838 15.746 74.8538 16.0098H65.1862C65.3211 17.0357 65.7783 17.8637 66.5577 18.4939C67.3521 19.1094 68.3338 19.4172 69.5029 19.4172C70.9268 19.4172 72.0735 18.9482 72.9428 18.0103L74.1344 19.3732C73.5948 19.9888 72.9203 20.4577 72.1109 20.7802C71.3165 21.1026 70.4247 21.2638 69.4355 21.2638C68.1764 21.2638 67.0598 21.0146 66.0855 20.5164C65.1113 20.0034 64.3544 19.2926 63.8148 18.384C63.2902 17.4754 63.0279 16.4495 63.0279 15.3063C63.0279 14.1779 63.2827 13.1593 63.7923 12.2507C64.3169 11.342 65.0288 10.6386 65.9282 10.1403C66.8425 9.62735 67.8692 9.37088 69.0083 9.37088C70.1474 9.37088 71.1592 9.62735 72.0435 10.1403C72.9428 10.6386 73.6398 11.342 74.1344 12.2507C74.644 13.1593 74.8988 14.1999 74.8988 15.3723ZM69.0083 11.1515C67.9741 11.1515 67.1048 11.4593 66.4003 12.0748C65.7108 12.6903 65.3061 13.4964 65.1862 14.493H72.8304C72.7105 13.511 72.2983 12.7123 71.5938 12.0968C70.9044 11.4666 70.0425 11.1515 69.0083 11.1515Z" fill="#1D2234"/>
<path d="M84.2135 9.37088C85.3676 9.37088 86.4019 9.62002 87.3162 10.1183C88.2305 10.6166 88.9424 11.3127 89.452 12.2067C89.9766 13.1007 90.2389 14.1339 90.2389 15.3063C90.2389 16.4788 89.9766 17.5193 89.452 18.428C88.9424 19.3219 88.2305 20.0181 87.3162 20.5164C86.4019 21.0146 85.3676 21.2638 84.2135 21.2638C83.3592 21.2638 82.5723 21.1026 81.8528 20.7802C81.1484 20.4577 80.5488 19.9888 80.0542 19.3732V25.3966H77.8959V9.4808H79.9643V11.3274C80.4439 10.6825 81.0509 10.1989 81.7854 9.87649C82.5198 9.53942 83.3292 9.37088 84.2135 9.37088ZM84.0337 19.4172C84.7981 19.4172 85.4801 19.2487 86.0796 18.9116C86.6941 18.5599 87.1738 18.0762 87.5185 17.4607C87.8782 16.8305 88.0581 16.1124 88.0581 15.3063C88.0581 14.5003 87.8782 13.7895 87.5185 13.174C87.1738 12.5438 86.6941 12.0602 86.0796 11.7231C85.4801 11.386 84.7981 11.2175 84.0337 11.2175C83.2842 11.2175 82.6023 11.3933 81.9877 11.7451C81.3882 12.0821 80.9086 12.5584 80.5488 13.174C80.2041 13.7895 80.0317 14.5003 80.0317 15.3063C80.0317 16.1124 80.2041 16.8305 80.5488 17.4607C80.8936 18.0762 81.3732 18.5599 81.9877 18.9116C82.6023 19.2487 83.2842 19.4172 84.0337 19.4172Z" fill="#1D2234"/>
<path d="M97.4505 9.37088C99.0992 9.37088 100.358 9.76658 101.228 10.558C102.112 11.3494 102.554 12.5291 102.554 14.0973V21.1319H100.508V19.5931C100.148 20.1353 99.6313 20.553 98.9568 20.8461C98.2973 21.1246 97.5104 21.2638 96.5961 21.2638C95.2621 21.2638 94.1904 20.9487 93.3811 20.3185C92.5867 19.6883 92.1895 18.8603 92.1895 17.8344C92.1895 16.8085 92.5717 15.9878 93.3361 15.3723C94.1005 14.7421 95.3146 14.427 96.9783 14.427H100.396V14.0093C100.396 13.1007 100.126 12.4046 99.5863 11.9209C99.0467 11.4373 98.2523 11.1955 97.2031 11.1955C96.4987 11.1955 95.8092 11.3127 95.1347 11.5472C94.4602 11.767 93.8907 12.0675 93.426 12.4485L92.5267 10.8657C93.1413 10.3821 93.8757 10.0157 94.73 9.76658C95.5844 9.50278 96.4912 9.37088 97.4505 9.37088ZM96.9558 19.637C97.7802 19.637 98.4922 19.4612 99.0917 19.1094C99.6912 18.743 100.126 18.2301 100.396 17.5706V15.9439H97.0682C95.2396 15.9439 94.3253 16.5447 94.3253 17.7465C94.3253 18.3327 94.5577 18.7943 95.0223 19.1314C95.487 19.4685 96.1315 19.637 96.9558 19.637Z" fill="#1D2234"/>
<path d="M108.617 11.4373C108.991 10.7631 109.546 10.2502 110.28 9.89848C111.015 9.54675 111.907 9.37088 112.956 9.37088V11.4153C112.836 11.4007 112.671 11.3933 112.461 11.3933C111.292 11.3933 110.37 11.7377 109.696 12.4265C109.036 13.1007 108.707 14.068 108.707 15.3283V21.1319H106.548V9.4808H108.617V11.4373Z" fill="#1D2234"/>
<path d="M122.799 20.4504C122.484 20.7142 122.094 20.9194 121.63 21.0659C121.165 21.1978 120.686 21.2638 120.191 21.2638C118.992 21.2638 118.063 20.9487 117.403 20.3185C116.744 19.6883 116.414 18.787 116.414 17.6146V11.2175H114.39V9.4808H116.414V6.93075H118.572V9.4808H121.99V11.2175H118.572V17.5266C118.572 18.1568 118.73 18.6405 119.044 18.9775C119.374 19.3146 119.839 19.4832 120.438 19.4832C121.098 19.4832 121.66 19.3 122.124 18.9336L122.799 20.4504Z" fill="#1D2234"/>
<path d="M140.314 9.37088C141.813 9.37088 142.997 9.79589 143.867 10.6459C144.751 11.4959 145.193 12.7563 145.193 14.427V21.1319H143.035V14.6688C143.035 13.5404 142.765 12.6903 142.225 12.1188C141.701 11.5472 140.944 11.2614 139.955 11.2614C138.861 11.2614 137.991 11.5985 137.347 12.2727C136.702 12.9322 136.38 13.8848 136.38 15.1305V21.1319H134.222V14.6688C134.222 13.5404 133.952 12.6903 133.412 12.1188C132.888 11.5472 132.131 11.2614 131.141 11.2614C130.047 11.2614 129.178 11.5985 128.533 12.2727C127.889 12.9322 127.567 13.8848 127.567 15.1305V21.1319H125.408V9.4808H127.477V11.2175C127.911 10.6166 128.481 10.1623 129.185 9.85451C129.89 9.53209 130.692 9.37088 131.591 9.37088C132.52 9.37088 133.345 9.55407 134.064 9.92046C134.784 10.2868 135.338 10.8218 135.728 11.5252C136.178 10.8511 136.8 10.3235 137.594 9.94244C138.403 9.5614 139.31 9.37088 140.314 9.37088Z" fill="#1D2234"/>
<path d="M160 15.3723C160 15.5335 159.985 15.746 159.955 16.0098H150.287C150.422 17.0357 150.879 17.8637 151.659 18.4939C152.453 19.1094 153.435 19.4172 154.604 19.4172C156.028 19.4172 157.174 18.9482 158.044 18.0103L159.235 19.3732C158.696 19.9888 158.021 20.4577 157.212 20.7802C156.417 21.1026 155.526 21.2638 154.536 21.2638C153.277 21.2638 152.161 21.0146 151.186 20.5164C150.212 20.0034 149.455 19.2926 148.916 18.384C148.391 17.4754 148.129 16.4495 148.129 15.3063C148.129 14.1779 148.384 13.1593 148.893 12.2507C149.418 11.342 150.13 10.6386 151.029 10.1403C151.943 9.62735 152.97 9.37088 154.109 9.37088C155.248 9.37088 156.26 9.62735 157.144 10.1403C158.044 10.6386 158.741 11.342 159.235 12.2507C159.745 13.1593 160 14.1999 160 15.3723ZM154.109 11.1515C153.075 11.1515 152.206 11.4593 151.501 12.0748C150.812 12.6903 150.407 13.4964 150.287 14.493H157.931C157.811 13.511 157.399 12.7123 156.695 12.0968C156.005 11.4666 155.143 11.1515 154.109 11.1515Z" fill="#1D2234"/>
<path d="M169.359 9.37088C170.873 9.37088 172.072 9.80322 172.957 10.6679C173.856 11.5179 174.306 12.7709 174.306 14.427V21.1319H172.147V14.6688C172.147 13.5404 171.87 12.6903 171.315 12.1188C170.761 11.5472 169.966 11.2614 168.932 11.2614C167.763 11.2614 166.841 11.5985 166.167 12.2727C165.492 12.9322 165.155 13.8848 165.155 15.1305V21.1319H162.997V9.4808H165.065V11.2395C165.5 10.6386 166.084 10.1769 166.819 9.85451C167.568 9.53209 168.415 9.37088 169.359 9.37088Z" fill="#1D2234"/>
<path d="M185 20.4504C184.685 20.7142 184.295 20.9194 183.831 21.0659C183.366 21.1978 182.887 21.2638 182.392 21.2638C181.193 21.2638 180.264 20.9487 179.604 20.3185C178.945 19.6883 178.615 18.787 178.615 17.6146V11.2175H176.591V9.4808H178.615V6.93075H180.773V9.4808H184.191V11.2175H180.773V17.5266C180.773 18.1568 180.931 18.6405 181.245 18.9775C181.575 19.3146 182.04 19.4832 182.639 19.4832C183.299 19.4832 183.861 19.3 184.325 18.9336L185 20.4504Z" fill="#1D2234"/>
<path d="M45.8696 5.74365H52.5021C54.1658 5.74365 55.6422 6.06607 56.9312 6.71091C58.2202 7.35575 59.2169 8.26439 59.9214 9.43683C60.6408 10.5946 61.0006 11.9283 61.0006 13.4378C61.0006 14.9473 60.6408 16.2883 59.9214 17.4607C59.2169 18.6185 58.2202 19.5198 56.9312 20.1646C55.6422 20.8095 54.1658 21.1319 52.5021 21.1319H45.8696V5.74365ZM52.3672 19.2194C53.6412 19.2194 54.7578 18.9775 55.7171 18.4939C56.6914 18.0103 57.4408 17.3361 57.9654 16.4715C58.49 15.5921 58.7523 14.5809 58.7523 13.4378C58.7523 12.2946 58.49 11.2907 57.9654 10.4261C57.4408 9.54674 56.6914 8.86527 55.7171 8.38164C54.7578 7.89801 53.6412 7.65619 52.3672 7.65619H48.1179V19.2194H52.3672Z" stroke="#1D2234" stroke-width="0.4" mask="url(#path-5-outside-1_207_6936)"/>
<path d="M74.8988 15.3723C74.8988 15.5335 74.8838 15.746 74.8538 16.0098H65.1862C65.3211 17.0357 65.7783 17.8637 66.5577 18.4939C67.3521 19.1094 68.3338 19.4172 69.5029 19.4172C70.9268 19.4172 72.0735 18.9482 72.9428 18.0103L74.1344 19.3732C73.5948 19.9888 72.9203 20.4577 72.1109 20.7802C71.3165 21.1026 70.4247 21.2638 69.4355 21.2638C68.1764 21.2638 67.0598 21.0146 66.0855 20.5164C65.1113 20.0034 64.3544 19.2926 63.8148 18.384C63.2902 17.4754 63.0279 16.4495 63.0279 15.3063C63.0279 14.1779 63.2827 13.1593 63.7923 12.2507C64.3169 11.342 65.0288 10.6386 65.9282 10.1403C66.8425 9.62735 67.8692 9.37088 69.0083 9.37088C70.1474 9.37088 71.1592 9.62735 72.0435 10.1403C72.9428 10.6386 73.6398 11.342 74.1344 12.2507C74.644 13.1593 74.8988 14.1999 74.8988 15.3723ZM69.0083 11.1515C67.9741 11.1515 67.1048 11.4593 66.4003 12.0748C65.7108 12.6903 65.3061 13.4964 65.1862 14.493H72.8304C72.7105 13.511 72.2983 12.7123 71.5938 12.0968C70.9044 11.4666 70.0425 11.1515 69.0083 11.1515Z" stroke="#1D2234" stroke-width="0.4" mask="url(#path-5-outside-1_207_6936)"/>
<path d="M84.2135 9.37088C85.3676 9.37088 86.4019 9.62002 87.3162 10.1183C88.2305 10.6166 88.9424 11.3127 89.452 12.2067C89.9766 13.1007 90.2389 14.1339 90.2389 15.3063C90.2389 16.4788 89.9766 17.5193 89.452 18.428C88.9424 19.3219 88.2305 20.0181 87.3162 20.5164C86.4019 21.0146 85.3676 21.2638 84.2135 21.2638C83.3592 21.2638 82.5723 21.1026 81.8528 20.7802C81.1484 20.4577 80.5488 19.9888 80.0542 19.3732V25.3966H77.8959V9.4808H79.9643V11.3274C80.4439 10.6825 81.0509 10.1989 81.7854 9.87649C82.5198 9.53942 83.3292 9.37088 84.2135 9.37088ZM84.0337 19.4172C84.7981 19.4172 85.4801 19.2487 86.0796 18.9116C86.6941 18.5599 87.1738 18.0762 87.5185 17.4607C87.8782 16.8305 88.0581 16.1124 88.0581 15.3063C88.0581 14.5003 87.8782 13.7895 87.5185 13.174C87.1738 12.5438 86.6941 12.0602 86.0796 11.7231C85.4801 11.386 84.7981 11.2175 84.0337 11.2175C83.2842 11.2175 82.6023 11.3933 81.9877 11.7451C81.3882 12.0821 80.9086 12.5584 80.5488 13.174C80.2041 13.7895 80.0317 14.5003 80.0317 15.3063C80.0317 16.1124 80.2041 16.8305 80.5488 17.4607C80.8936 18.0762 81.3732 18.5599 81.9877 18.9116C82.6023 19.2487 83.2842 19.4172 84.0337 19.4172Z" stroke="#1D2234" stroke-width="0.4" mask="url(#path-5-outside-1_207_6936)"/>
<path d="M97.4505 9.37088C99.0992 9.37088 100.358 9.76658 101.228 10.558C102.112 11.3494 102.554 12.5291 102.554 14.0973V21.1319H100.508V19.5931C100.148 20.1353 99.6313 20.553 98.9568 20.8461C98.2973 21.1246 97.5104 21.2638 96.5961 21.2638C95.2621 21.2638 94.1904 20.9487 93.3811 20.3185C92.5867 19.6883 92.1895 18.8603 92.1895 17.8344C92.1895 16.8085 92.5717 15.9878 93.3361 15.3723C94.1005 14.7421 95.3146 14.427 96.9783 14.427H100.396V14.0093C100.396 13.1007 100.126 12.4046 99.5863 11.9209C99.0467 11.4373 98.2523 11.1955 97.2031 11.1955C96.4987 11.1955 95.8092 11.3127 95.1347 11.5472C94.4602 11.767 93.8907 12.0675 93.426 12.4485L92.5267 10.8657C93.1413 10.3821 93.8757 10.0157 94.73 9.76658C95.5844 9.50278 96.4912 9.37088 97.4505 9.37088ZM96.9558 19.637C97.7802 19.637 98.4922 19.4612 99.0917 19.1094C99.6912 18.743 100.126 18.2301 100.396 17.5706V15.9439H97.0682C95.2396 15.9439 94.3253 16.5447 94.3253 17.7465C94.3253 18.3327 94.5577 18.7943 95.0223 19.1314C95.487 19.4685 96.1315 19.637 96.9558 19.637Z" stroke="#1D2234" stroke-width="0.4" mask="url(#path-5-outside-1_207_6936)"/>
<path d="M108.617 11.4373C108.991 10.7631 109.546 10.2502 110.28 9.89848C111.015 9.54675 111.907 9.37088 112.956 9.37088V11.4153C112.836 11.4007 112.671 11.3933 112.461 11.3933C111.292 11.3933 110.37 11.7377 109.696 12.4265C109.036 13.1007 108.707 14.068 108.707 15.3283V21.1319H106.548V9.4808H108.617V11.4373Z" stroke="#1D2234" stroke-width="0.4" mask="url(#path-5-outside-1_207_6936)"/>
<path d="M122.799 20.4504C122.484 20.7142 122.094 20.9194 121.63 21.0659C121.165 21.1978 120.686 21.2638 120.191 21.2638C118.992 21.2638 118.063 20.9487 117.403 20.3185C116.744 19.6883 116.414 18.787 116.414 17.6146V11.2175H114.39V9.4808H116.414V6.93075H118.572V9.4808H121.99V11.2175H118.572V17.5266C118.572 18.1568 118.73 18.6405 119.044 18.9775C119.374 19.3146 119.839 19.4832 120.438 19.4832C121.098 19.4832 121.66 19.3 122.124 18.9336L122.799 20.4504Z" stroke="#1D2234" stroke-width="0.4" mask="url(#path-5-outside-1_207_6936)"/>
<path d="M140.314 9.37088C141.813 9.37088 142.997 9.79589 143.867 10.6459C144.751 11.4959 145.193 12.7563 145.193 14.427V21.1319H143.035V14.6688C143.035 13.5404 142.765 12.6903 142.225 12.1188C141.701 11.5472 140.944 11.2614 139.955 11.2614C138.861 11.2614 137.991 11.5985 137.347 12.2727C136.702 12.9322 136.38 13.8848 136.38 15.1305V21.1319H134.222V14.6688C134.222 13.5404 133.952 12.6903 133.412 12.1188C132.888 11.5472 132.131 11.2614 131.141 11.2614C130.047 11.2614 129.178 11.5985 128.533 12.2727C127.889 12.9322 127.567 13.8848 127.567 15.1305V21.1319H125.408V9.4808H127.477V11.2175C127.911 10.6166 128.481 10.1623 129.185 9.85451C129.89 9.53209 130.692 9.37088 131.591 9.37088C132.52 9.37088 133.345 9.55407 134.064 9.92046C134.784 10.2868 135.338 10.8218 135.728 11.5252C136.178 10.8511 136.8 10.3235 137.594 9.94244C138.403 9.5614 139.31 9.37088 140.314 9.37088Z" stroke="#1D2234" stroke-width="0.4" mask="url(#path-5-outside-1_207_6936)"/>
<path d="M160 15.3723C160 15.5335 159.985 15.746 159.955 16.0098H150.287C150.422 17.0357 150.879 17.8637 151.659 18.4939C152.453 19.1094 153.435 19.4172 154.604 19.4172C156.028 19.4172 157.174 18.9482 158.044 18.0103L159.235 19.3732C158.696 19.9888 158.021 20.4577 157.212 20.7802C156.417 21.1026 155.526 21.2638 154.536 21.2638C153.277 21.2638 152.161 21.0146 151.186 20.5164C150.212 20.0034 149.455 19.2926 148.916 18.384C148.391 17.4754 148.129 16.4495 148.129 15.3063C148.129 14.1779 148.384 13.1593 148.893 12.2507C149.418 11.342 150.13 10.6386 151.029 10.1403C151.943 9.62735 152.97 9.37088 154.109 9.37088C155.248 9.37088 156.26 9.62735 157.144 10.1403C158.044 10.6386 158.741 11.342 159.235 12.2507C159.745 13.1593 160 14.1999 160 15.3723ZM154.109 11.1515C153.075 11.1515 152.206 11.4593 151.501 12.0748C150.812 12.6903 150.407 13.4964 150.287 14.493H157.931C157.811 13.511 157.399 12.7123 156.695 12.0968C156.005 11.4666 155.143 11.1515 154.109 11.1515Z" stroke="#1D2234" stroke-width="0.4" mask="url(#path-5-outside-1_207_6936)"/>
<path d="M169.359 9.37088C170.873 9.37088 172.072 9.80322 172.957 10.6679C173.856 11.5179 174.306 12.7709 174.306 14.427V21.1319H172.147V14.6688C172.147 13.5404 171.87 12.6903 171.315 12.1188C170.761 11.5472 169.966 11.2614 168.932 11.2614C167.763 11.2614 166.841 11.5985 166.167 12.2727C165.492 12.9322 165.155 13.8848 165.155 15.1305V21.1319H162.997V9.4808H165.065V11.2395C165.5 10.6386 166.084 10.1769 166.819 9.85451C167.568 9.53209 168.415 9.37088 169.359 9.37088Z" stroke="#1D2234" stroke-width="0.4" mask="url(#path-5-outside-1_207_6936)"/>
<path d="M185 20.4504C184.685 20.7142 184.295 20.9194 183.831 21.0659C183.366 21.1978 182.887 21.2638 182.392 21.2638C181.193 21.2638 180.264 20.9487 179.604 20.3185C178.945 19.6883 178.615 18.787 178.615 17.6146V11.2175H176.591V9.4808H178.615V6.93075H180.773V9.4808H184.191V11.2175H180.773V17.5266C180.773 18.1568 180.931 18.6405 181.245 18.9775C181.575 19.3146 182.04 19.4832 182.639 19.4832C183.299 19.4832 183.861 19.3 184.325 18.9336L185 20.4504Z" stroke="#1D2234" stroke-width="0.4" mask="url(#path-5-outside-1_207_6936)"/>
</svg>
