<svg fill="none" height="16" viewBox="0 0 16 16" width="16" xmlns="http://www.w3.org/2000/svg">
	<mask height="10" id="mask0" maskUnits="userSpaceOnUse" style="mask-type:alpha" width="10" x="3" y="3">
		<path d="M12.2 3.8081C12.0754 3.68327 11.9063 3.61311 11.73 3.61311C11.5536 3.61311 11.3845 3.68327 11.26 3.8081L7.99998 7.06144L4.73998 3.80144C4.61543 3.6766 4.44633 3.60645 4.26998 3.60645C4.09364 3.60645 3.92453 3.6766 3.79998 3.80144C3.53998 4.06144 3.53998 4.48144 3.79998 4.74144L7.05998 8.00144L3.79998 11.2614C3.53998 11.5214 3.53998 11.9414 3.79998 12.2014C4.05998 12.4614 4.47998 12.4614 4.73998 12.2014L7.99998 8.94144L11.26 12.2014C11.52 12.4614 11.94 12.4614 12.2 12.2014C12.46 11.9414 12.46 11.5214 12.2 11.2614L8.93998 8.00144L12.2 4.74144C12.4533 4.4881 12.4533 4.06144 12.2 3.8081Z" fill="black" />
	</mask>
	<g mask="url(#mask0)">
		<rect fill="#606167" height="16" width="16" y="0.000976562" />
	</g>
</svg>