<svg fill="none" height="40" viewBox="0 0 126 40" width="126" xmlns="http://www.w3.org/2000/svg">
	<path clip-rule="evenodd" d="M6.78809 8.48481C6.78809 7.5476 7.54785 6.78784 8.48506 6.78784H28.0002C28.9374 6.78784 29.6972 7.5476 29.6972 8.48481V28C29.6972 28.9372 28.9374 29.6969 28.0002 29.6969H8.48506C7.54785 29.6969 6.78809 28.9372 6.78809 28V8.48481ZM10.182 10.606C10.182 10.3717 10.372 10.1818 10.6063 10.1818H13.1517C13.386 10.1818 13.576 10.3717 13.576 10.606V13.1515C13.576 13.3858 13.386 13.5757 13.1517 13.5757H10.6063C10.372 13.5757 10.182 13.3858 10.182 13.1515V10.606ZM14.8487 10.1818C14.6144 10.1818 14.4244 10.3717 14.4244 10.606V13.1515C14.4244 13.3858 14.6144 13.5757 14.8487 13.5757H17.3941C17.6284 13.5757 17.8184 13.3858 17.8184 13.1515V10.606C17.8184 10.3717 17.6284 10.1818 17.3941 10.1818H14.8487ZM18.6669 10.606C18.6669 10.3717 18.8568 10.1818 19.0911 10.1818H21.6366C21.8709 10.1818 22.0608 10.3717 22.0608 10.606V13.1515C22.0608 13.3858 21.8709 13.5757 21.6366 13.5757H19.0911C18.8568 13.5757 18.6669 13.3858 18.6669 13.1515V10.606ZM10.6063 14.4242C10.372 14.4242 10.182 14.6141 10.182 14.8484V17.3939C10.182 17.6282 10.372 17.8181 10.6063 17.8181H13.1517C13.386 17.8181 13.576 17.6282 13.576 17.3939V14.8484C13.576 14.6141 13.386 14.4242 13.1517 14.4242H10.6063ZM14.4244 14.8484C14.4244 14.6141 14.6144 14.4242 14.8487 14.4242H17.3941C17.6284 14.4242 17.8184 14.6141 17.8184 14.8484V17.3939C17.8184 17.6282 17.6284 17.8181 17.3941 17.8181H14.8487C14.6144 17.8181 14.4244 17.6282 14.4244 17.3939V14.8484ZM23.3335 14.4242C23.0992 14.4242 22.9093 14.6141 22.9093 14.8484V17.3939C22.9093 17.6282 23.0992 17.8181 23.3335 17.8181H25.879C26.1133 17.8181 26.3032 17.6282 26.3032 17.3939V14.8484C26.3032 14.6141 26.1133 14.4242 25.879 14.4242H23.3335ZM10.182 19.0909C10.182 18.8566 10.372 18.6666 10.6063 18.6666H13.1517C13.386 18.6666 13.576 18.8566 13.576 19.0909V21.6363C13.576 21.8706 13.386 22.0606 13.1517 22.0606H10.6063C10.372 22.0606 10.182 21.8706 10.182 21.6363V19.0909ZM19.0911 18.6666C18.8568 18.6666 18.6669 18.8566 18.6669 19.0909V21.6363C18.6669 21.8706 18.8568 22.0606 19.0911 22.0606H21.6366C21.8709 22.0606 22.0608 21.8706 22.0608 21.6363V19.0909C22.0608 18.8566 21.8709 18.6666 21.6366 18.6666H19.0911ZM22.9093 19.0909C22.9093 18.8566 23.0992 18.6666 23.3335 18.6666H25.879C26.1133 18.6666 26.3032 18.8566 26.3032 19.0909V21.6363C26.3032 21.8706 26.1133 22.0606 25.879 22.0606H23.3335C23.0992 22.0606 22.9093 21.8706 22.9093 21.6363V19.0909ZM14.8487 22.9091C14.6144 22.9091 14.4244 23.099 14.4244 23.3333V25.8788C14.4244 26.1131 14.6144 26.303 14.8487 26.303H17.3941C17.6284 26.303 17.8184 26.1131 17.8184 25.8788V23.3333C17.8184 23.099 17.6284 22.9091 17.3941 22.9091H14.8487ZM18.6669 23.3333C18.6669 23.099 18.8568 22.9091 19.0911 22.9091H21.6366C21.8709 22.9091 22.0608 23.099 22.0608 23.3333V25.8788C22.0608 26.1131 21.8709 26.303 21.6366 26.303H19.0911C18.8568 26.303 18.6669 26.1131 18.6669 25.8788V23.3333ZM23.3335 22.9091C23.0992 22.9091 22.9093 23.099 22.9093 23.3333V25.8788C22.9093 26.1131 23.0992 26.303 23.3335 26.303H25.879C26.1133 26.303 26.3032 26.1131 26.3032 25.8788V23.3333C26.3032 23.099 26.1133 22.9091 25.879 22.9091H23.3335Z" fill="#0B63CE" fill-rule="evenodd" />
	<path d="M48.5333 27.7031H38.4788V6.91525C38.4788 6.78797 38.394 6.70313 38.2667 6.70313H36.697C36.5697 6.70313 36.4849 6.78797 36.4849 6.91525V29.2304C36.4849 29.3577 36.5697 29.4425 36.697 29.4425H48.5333C48.6606 29.4425 48.7455 29.3577 48.7455 29.2304V27.8728C48.7455 27.788 48.6606 27.7031 48.5333 27.7031Z" fill="#101820" />
	<path d="M63.4243 12.7699H59.8607V9.46086C59.8607 7.12752 60.6243 5.98207 62.194 5.98207C62.8304 5.98207 63.4668 6.15177 64.0607 6.40631C64.1031 6.44874 64.188 6.44874 64.2304 6.40631C64.2728 6.36389 64.3152 6.32146 64.3577 6.27904L64.7819 5.04874C64.8243 4.96389 64.7819 4.83662 64.6546 4.79419C63.8486 4.4548 62.9577 4.24268 62.194 4.24268C59.4789 4.24268 57.9516 6.06692 57.9516 9.33358V12.7699L55.9152 12.8972C55.788 12.8972 55.7031 12.9821 55.7031 13.1093V14.2548C55.7031 14.3821 55.788 14.4669 55.9152 14.4669H57.9516V29.2306C57.9516 29.3578 58.0365 29.4427 58.1637 29.4427H59.6486C59.7759 29.4427 59.8607 29.3578 59.8607 29.2306V14.4669H63.4243C63.5516 14.4669 63.6365 14.3821 63.6365 14.2548V12.9396C63.6365 12.8548 63.5516 12.7699 63.4243 12.7699Z" fill="#101820" />
	<path d="M71.1456 12.3455C67.6244 12.3455 63.8486 15.4424 63.8486 21.1273C63.8486 26.2606 67.0304 29.8667 71.5698 29.8667C73.988 29.8667 75.4729 29.0606 76.8305 28.2545C76.9153 28.2121 76.9577 28.0849 76.9153 27.9576L76.2789 26.8121C76.2365 26.7697 76.1941 26.7273 76.1517 26.7273C76.1092 26.7273 76.0244 26.7273 75.982 26.7697C74.6244 27.7455 73.2668 28.1697 71.7395 28.1697C68.3032 28.1697 65.9698 25.497 65.8426 21.5515H77.3395C77.4244 21.5515 77.5092 21.4667 77.5517 21.3818C77.6365 20.9576 77.6365 20.4909 77.6365 20.1091C77.5517 15.2303 75.1759 12.3455 71.1456 12.3455ZM65.8001 19.8545C66.182 16.4182 68.3456 14.0424 71.1456 14.0424C74.0729 14.0424 75.685 16.1212 75.7274 19.8545H65.8001Z" fill="#101820" />
	<path d="M88.4122 12.7276C87.9031 12.473 87.394 12.3882 86.7152 12.3882C85.0182 12.3882 83.4061 13.4488 82.1758 15.4427L82.0485 12.9821C82.0485 12.8549 81.9637 12.77 81.8364 12.77H80.5637C80.4364 12.77 80.3516 12.8549 80.3516 12.9821V29.273C80.3516 29.4003 80.4364 29.4852 80.5637 29.4852H82.0485C82.1758 29.4852 82.2607 29.4003 82.2607 29.273V18.2427C83.2788 15.6973 84.8485 14.2124 86.5031 14.2124C87.097 14.2124 87.3516 14.2973 87.9031 14.467C87.9455 14.467 88.0303 14.467 88.0728 14.467C88.1152 14.4245 88.1576 14.3821 88.1576 14.3397L88.497 12.9821C88.5394 12.8549 88.497 12.77 88.4122 12.7276Z" fill="#101820" />
	<path d="M101.818 12.77H100.503C100.376 12.77 100.291 12.8549 100.291 12.9821L100.206 14.2124C98.8061 13.1094 97.4485 12.3882 95.497 12.3882C91.1697 12.3882 88.0728 16.0791 88.0728 21.17C88.0728 26.6427 90.6606 29.9094 95.0303 29.9094C96.8121 29.9094 98.594 29.1033 100.249 27.5761L100.376 29.3155C100.376 29.4427 100.461 29.5276 100.588 29.5276H101.861C101.988 29.5276 102.073 29.4427 102.073 29.3155V12.9821C102.03 12.8549 101.945 12.77 101.818 12.77ZM100.121 16.0791V25.5397C98.3818 27.3215 96.8546 28.0852 95.2425 28.0852C92.0182 28.0852 90.0667 25.4549 90.0667 21.0852C90.0667 17.1397 92.4849 14.0427 95.5818 14.0427C97.194 14.0852 98.5515 14.6791 100.121 16.0791Z" fill="#101820" />
	<path d="M118.024 12.8548C117.982 12.8124 117.939 12.77 117.854 12.77H116.327C116.242 12.77 116.157 12.8124 116.115 12.8972L112.636 23.1215C112.467 23.673 112.254 24.2669 112.085 24.8609C111.83 25.7094 111.533 26.5578 111.279 27.3215C110.939 26.473 110.6 25.5397 110.261 24.6488C110.048 24.0972 109.836 23.5881 109.667 23.0791L105.764 12.8548C105.721 12.77 105.636 12.7275 105.551 12.7275H103.939C103.854 12.7275 103.812 12.77 103.77 12.8124C103.727 12.8548 103.727 12.9397 103.77 13.0245L110.43 29.5275L110.006 30.8851C109.37 32.7942 108.182 35.0427 106.018 35.0427C105.594 35.0427 105.085 34.9154 104.745 34.7881C104.703 34.7881 104.618 34.7881 104.576 34.7881C104.533 34.8306 104.491 34.873 104.448 34.9154L104.109 36.2306C104.067 36.3154 104.151 36.4427 104.236 36.4851C104.703 36.6972 105.382 36.8245 105.976 36.8245C108.479 36.8245 110.43 34.9154 111.661 31.3094L118.067 12.9821C118.109 12.9821 118.067 12.8972 118.024 12.8548Z" fill="#101820" />
	<path d="M52.7757 9.07877C53.0302 9.07877 53.2423 8.86665 53.2423 8.6121V7.08483C53.2423 6.83029 53.0302 6.61816 52.7757 6.61816H51.2484C50.9939 6.61816 50.7817 6.83029 50.7817 7.08483V8.6121C50.7817 8.86665 50.9939 9.07877 51.2484 9.07877H52.7757Z" fill="#101820" />
	<path d="M51.2484 12.7697H52.7332C52.8605 12.7697 52.9454 12.8545 52.9454 12.9818V29.2727C52.9454 29.4 52.8605 29.4848 52.7332 29.4848H51.2484C51.1211 29.4848 51.0363 29.4 51.0363 29.2727V12.9818C51.0363 12.8545 51.1211 12.7697 51.2484 12.7697Z" fill="#101820" />
</svg>