<svg width="32" height="32" viewBox="0 0 32 32" fill="none" xmlns="http://www.w3.org/2000/svg">
<rect width="32" height="32" fill="white"/>
<path d="M11.8817 16.0006C12.6845 16.0006 13.3534 16.6542 13.3534 17.4385V28.6808C13.3534 29.4651 12.6845 30.1188 11.8817 30.1188H2.47171C1.66896 30.1188 1 29.4651 1 28.6808V17.4385C1 16.6542 1.66896 16.0006 2.47171 16.0006H11.8817Z" fill="#1AA0E8"/>
<path d="M29.5294 8.05908C30.3322 8.05908 31.0011 8.68816 31.0011 9.44305V28.7348C31.0011 29.4896 30.3322 30.1187 29.5294 30.1187H20.1194C19.3167 30.1187 18.6477 29.4896 18.6477 28.7348V9.44305C18.6477 8.68816 19.3167 8.05908 20.1194 8.05908H29.5294Z" fill="#1AA0E8"/>
<path d="M20.7056 1C21.5083 1 22.1773 1.62576 22.1773 2.37667V28.7421C22.1773 29.493 21.5083 30.1187 20.7056 30.1187H11.2956C10.4928 30.1187 9.82385 29.493 9.82385 28.7421V2.37667C9.82385 1.62576 10.4928 1 11.2956 1H20.7056Z" fill="#0B63CE"/>
<path d="M9.8691 16.0013H11.8601C11.8601 16.0013 13.3534 15.9143 13.3534 17.6122V28.932C13.3534 28.932 13.3534 30.1075 11.5886 30.1075C11.5886 30.1075 10.0954 30.3252 9.82385 28.8449V16.0013H9.8691Z" fill="#134194"/>
<path d="M20.141 8.05981C20.141 8.05981 18.6477 7.97597 18.6477 9.61072V18.0779V20.509V28.9762C18.6477 28.9762 18.6477 30.1079 20.4125 30.1079C20.4125 30.1079 21.9057 30.3175 22.1773 28.8924V20.4252V16.5269V8.05981H20.141Z" fill="#134194"/>
</svg>
