<svg fill="none" height="28" viewBox="0 0 24 28" width="24" xmlns="http://www.w3.org/2000/svg">
	<mask height="22" id="mask0_1030_47461" maskUnits="userSpaceOnUse" style="mask-type:alpha" width="21" x="1" y="3">
		<path clip-rule="evenodd" d="M10.9999 7.27658C10.9999 7.33358 10.9969 7.38958 10.9899 7.44458L13.2949 8.38258C13.4396 8.18671 13.63 8.02908 13.8494 7.92337C14.0688 7.81765 14.3107 7.76703 14.5541 7.7759C14.7975 7.78476 15.0351 7.85285 15.2462 7.97424C15.4574 8.09564 15.6358 8.2667 15.7659 8.47258L18.0179 7.50758C17.9601 7.13602 18.044 6.75631 18.2529 6.44366C18.4618 6.131 18.7805 5.90822 19.1459 5.81945C19.5113 5.73067 19.8967 5.78237 20.2258 5.96431C20.5549 6.14624 20.8036 6.44515 20.9228 6.8018C21.0419 7.15846 21.0228 7.54686 20.8691 7.89005C20.7154 8.23324 20.4384 8.5062 20.093 8.65486C19.7476 8.80351 19.359 8.81701 19.0041 8.69269C18.6492 8.56836 18.354 8.31528 18.1769 7.98358L15.9599 8.93258C16.0124 9.15707 16.0125 9.39065 15.9602 9.61519C15.9078 9.83972 15.8044 10.0492 15.658 10.2272C15.5115 10.4053 15.326 10.5472 15.1158 10.642C14.9056 10.7367 14.6764 10.7818 14.446 10.7736C14.2156 10.7654 13.9902 10.7042 13.7872 10.5947C13.5843 10.4852 13.4094 10.3305 13.276 10.1424C13.1426 9.95439 13.0543 9.73813 13.018 9.51044C12.9818 9.28275 12.9985 9.04977 13.0669 8.82958L10.8519 7.92758C10.751 8.13688 10.6029 8.31988 10.4193 8.46217C10.2356 8.60446 10.0214 8.70214 9.79357 8.74751C9.56571 8.79289 9.33044 8.78472 9.10628 8.72365C8.88213 8.66257 8.67522 8.55027 8.50188 8.39558L5.87488 10.6776C6.02533 11.0221 6.04097 11.4105 5.91868 11.7659C5.7964 12.1214 5.54511 12.418 5.21457 12.597C4.88402 12.776 4.49832 12.8243 4.13381 12.7325C3.7693 12.6407 3.45256 12.4153 3.24628 12.1011C3.04001 11.7868 2.95925 11.4066 3.01998 11.0356C3.08071 10.6647 3.27851 10.33 3.57422 10.098C3.86993 9.86588 4.24199 9.7533 4.61676 9.78249C4.99152 9.81168 5.34167 9.98052 5.59788 10.2556L8.18788 8.00558C8.07693 7.80538 8.01327 7.58244 8.00177 7.35384C7.99028 7.12524 8.03125 6.89704 8.12155 6.68672C8.21185 6.4764 8.34908 6.28953 8.52275 6.14042C8.69641 5.99132 8.90189 5.88394 9.12345 5.8265C9.34502 5.76906 9.57679 5.76309 9.80102 5.80904C10.0252 5.85499 10.236 5.95165 10.4171 6.09161C10.5982 6.23157 10.7449 6.41112 10.8459 6.61651C10.9469 6.82191 10.9996 7.04769 10.9999 7.27658ZM7.99988 10.7766V20.7766H5.99988V14.7766H2.99988V20.7766H1.99988C1.99988 21.0418 2.10523 21.2962 2.29277 21.4837C2.48031 21.6712 2.73466 21.7766 2.99988 21.7766H20.9999C21.2651 21.7766 21.5194 21.6712 21.707 21.4837C21.8945 21.2962 21.9999 21.0418 21.9999 20.7766H20.9999V10.7766H17.9999V20.7766H15.9999V12.7766H12.9999V20.7766H10.9999V10.7766H7.99988Z" fill="black" fill-rule="evenodd" />
	</mask>
	<g mask="url(#mask0_1030_47461)">
		<rect fill="white" height="24" width="24" y="2" />
	</g>
</svg>