<svg fill="none" height="28" viewBox="0 0 24 28" width="24" xmlns="http://www.w3.org/2000/svg">
	<mask height="21" id="mask0_1030_47425" maskUnits="userSpaceOnUse" style="mask-type:alpha" width="17" x="3" y="3">
		<path clip-rule="evenodd" d="M8.99988 3.9993C8.73466 3.9993 8.48031 4.10465 8.29277 4.29219C8.10524 4.47973 7.99988 4.73408 7.99988 4.9993V6.6313H15.9999V4.9993C15.9999 4.73408 15.8945 4.47973 15.707 4.29219C15.5194 4.10465 15.2651 3.9993 14.9999 3.9993H8.99988ZM17.3329 5.3153V7.4463C17.3329 7.57891 17.2802 7.70608 17.1864 7.79985C17.0927 7.89362 16.9655 7.9463 16.8329 7.9463H7.16688C7.03427 7.9463 6.90709 7.89362 6.81332 7.79985C6.71956 7.70608 6.66688 7.57891 6.66688 7.4463V5.3153C5.32688 5.3153 4.66088 5.3153 4.32888 5.6483C3.99988 5.9793 3.99988 6.6363 3.99988 7.9463V21.3673C3.99988 22.6773 3.99988 23.3353 4.32888 23.6663C4.66088 23.9993 5.32688 23.9993 6.66688 23.9993H17.3329C18.6729 23.9993 19.3389 23.9993 19.6709 23.6663C19.9999 23.3363 19.9999 22.6773 19.9999 21.3673V7.9473C19.9999 6.6373 19.9999 5.9793 19.6709 5.6483C19.3389 5.3153 18.6729 5.3153 17.3329 5.3153ZM11.9999 19.1313C11.9999 19.3058 11.9306 19.4732 11.8072 19.5966C11.6838 19.72 11.5164 19.7893 11.3419 19.7893H7.32488C7.15037 19.7893 6.983 19.72 6.8596 19.5966C6.7362 19.4732 6.66688 19.3058 6.66688 19.1313C6.66688 18.9568 6.7362 18.7894 6.8596 18.666C6.983 18.5426 7.15037 18.4733 7.32488 18.4733H11.3419C11.7049 18.4733 11.9999 18.7673 11.9999 19.1313ZM17.3329 16.4993C17.3329 16.6738 17.2636 16.8412 17.1402 16.9646C17.0168 17.088 16.8494 17.1573 16.6749 17.1573H7.32488C7.15037 17.1573 6.983 17.088 6.8596 16.9646C6.7362 16.8412 6.66688 16.6738 6.66688 16.4993C6.66688 16.3248 6.7362 16.1574 6.8596 16.034C6.983 15.9106 7.15037 15.8413 7.32488 15.8413H16.6749C17.0389 15.8413 17.3329 16.1363 17.3329 16.4993ZM17.3329 13.8673C17.3329 14.0418 17.2636 14.2092 17.1402 14.3326C17.0168 14.456 16.8494 14.5253 16.6749 14.5253H7.32488C7.23638 14.5288 7.14809 14.5143 7.06531 14.4828C6.98252 14.4513 6.90695 14.4035 6.84311 14.3421C6.77928 14.2807 6.72849 14.207 6.6938 14.1255C6.65911 14.044 6.64123 13.9564 6.64123 13.8678C6.64123 13.7792 6.65911 13.6916 6.6938 13.6101C6.72849 13.5286 6.77928 13.4549 6.84311 13.3935C6.90695 13.3321 6.98252 13.2843 7.06531 13.2528C7.14809 13.2213 7.23638 13.2068 7.32488 13.2103H16.6749C17.0389 13.2103 17.3329 13.5043 17.3329 13.8673ZM6.66688 11.2363C6.66688 10.8723 6.96088 10.5783 7.32488 10.5783H16.6749C16.8494 10.5783 17.0168 10.6476 17.1402 10.771C17.2636 10.8944 17.3329 11.0618 17.3329 11.2363C17.3329 11.4108 17.2636 11.5782 17.1402 11.7016C17.0168 11.825 16.8494 11.8943 16.6749 11.8943H7.32488C7.15037 11.8943 6.983 11.825 6.8596 11.7016C6.7362 11.5782 6.66688 11.4108 6.66688 11.2363Z" fill="black" fill-rule="evenodd" />
	</mask>
	<g mask="url(#mask0_1030_47425)">
		<rect fill="white" height="24" width="24" y="2" />
	</g>
</svg>