<svg width="186" height="26" viewBox="0 0 186 26" fill="none" xmlns="http://www.w3.org/2000/svg">
<path fill-rule="evenodd" clip-rule="evenodd" d="M2.77964 16.9986C3.91912 15.8845 5.46459 15.2585 7.07606 15.2585H16.7978C18.4092 15.2585 19.9547 15.8845 21.0942 16.9986C22.2337 18.1128 22.8738 19.6239 22.8738 21.1996V23.576C22.8738 24.2322 22.3297 24.7642 21.6586 24.7642C20.9875 24.7642 20.4434 24.2322 20.4434 23.576V21.1996C20.4434 20.2542 20.0593 19.3475 19.3756 18.679C18.6919 18.0105 17.7646 17.635 16.7978 17.635H7.07606C6.10918 17.635 5.1819 18.0105 4.49821 18.679C3.81452 19.3475 3.43042 20.2542 3.43042 21.1996V23.576C3.43042 24.2322 2.88635 24.7642 2.21521 24.7642C1.54407 24.7642 1 24.2322 1 23.576V21.1996C1 19.6239 1.64015 18.1128 2.77964 16.9986Z" fill="white" stroke="white" stroke-width="0.2" stroke-linecap="round" stroke-linejoin="round"/>
<path fill-rule="evenodd" clip-rule="evenodd" d="M11.9369 3.37641C9.92347 3.37641 8.29126 4.97235 8.29126 6.94103C8.29126 8.90972 9.92347 10.5057 11.9369 10.5057C13.9503 10.5057 15.5825 8.90972 15.5825 6.94103C15.5825 4.97235 13.9503 3.37641 11.9369 3.37641ZM5.86084 6.94103C5.86084 3.65989 8.58118 1 11.9369 1C15.2926 1 18.013 3.65989 18.013 6.94103C18.013 10.2222 15.2926 12.8821 11.9369 12.8821C8.58118 12.8821 5.86084 10.2222 5.86084 6.94103Z" fill="white" stroke="white" stroke-width="0.2" stroke-linecap="round" stroke-linejoin="round"/>
<path opacity="0.6" fill-rule="evenodd" clip-rule="evenodd" d="M24.1275 16.3033C24.2953 15.6679 24.9581 15.2858 25.6079 15.4499C26.9114 15.779 28.0663 16.522 28.8911 17.5624C29.7159 18.6027 30.164 19.8815 30.165 21.1978L30.165 23.5751C30.165 24.2314 29.6209 24.7633 28.9498 24.7633C28.2786 24.7633 27.7346 24.2314 27.7346 23.5751L27.7346 21.1996C27.7346 21.1995 27.7346 21.1997 27.7346 21.1996C27.7339 20.4099 27.465 19.6425 26.9702 19.0183C26.4753 18.3941 25.7824 17.9483 25.0003 17.7508C24.3505 17.5868 23.9597 16.9387 24.1275 16.3033Z" fill="white" stroke="white" stroke-width="0.2" stroke-linecap="round" stroke-linejoin="round"/>
<path opacity="0.6" fill-rule="evenodd" clip-rule="evenodd" d="M19.2663 2.04831C19.4328 1.41259 20.0948 1.02919 20.745 1.19196C22.0519 1.51916 23.2104 2.26239 24.0376 3.30446C24.8649 4.34653 25.3139 5.62818 25.3139 6.94734C25.3139 8.2665 24.8649 9.54815 24.0376 10.5902C23.2104 11.6323 22.0519 12.3755 20.745 12.7027C20.0948 12.8655 19.4328 12.4821 19.2663 11.8464C19.0998 11.2106 19.4919 10.5633 20.1421 10.4006C20.9263 10.2042 21.6214 9.75831 22.1177 9.13307C22.6141 8.50782 22.8835 7.73884 22.8835 6.94734C22.8835 6.15584 22.6141 5.38686 22.1177 4.76161C21.6214 4.13637 20.9263 3.69043 20.1421 3.49411C19.4919 3.33134 19.0998 2.68403 19.2663 2.04831Z" fill="white" stroke="white" stroke-width="0.2" stroke-linecap="round" stroke-linejoin="round"/>
<mask id="path-5-outside-1_277_6153" maskUnits="userSpaceOnUse" x="44.8699" y="4.74365" width="141" height="21" fill="black">
<rect fill="white" x="44.8699" y="4.74365" width="141" height="21"/>
<path d="M45.8699 5.74365H52.5023C54.166 5.74365 55.6424 6.06607 56.9314 6.71091C58.2204 7.35575 59.2172 8.26439 59.9216 9.43683C60.6411 10.5946 61.0008 11.9283 61.0008 13.4378C61.0008 14.9473 60.6411 16.2883 59.9216 17.4607C59.2172 18.6185 58.2204 19.5198 56.9314 20.1646C55.6424 20.8095 54.166 21.1319 52.5023 21.1319H45.8699V5.74365ZM52.3674 19.2194C53.6414 19.2194 54.7581 18.9775 55.7173 18.4939C56.6916 18.0103 57.441 17.3361 57.9656 16.4715C58.4902 15.5921 58.7525 14.5809 58.7525 13.4378C58.7525 12.2946 58.4902 11.2907 57.9656 10.4261C57.441 9.54674 56.6916 8.86527 55.7173 8.38164C54.7581 7.89801 53.6414 7.65619 52.3674 7.65619H48.1182V19.2194H52.3674Z"/>
<path d="M74.899 15.3723C74.899 15.5335 74.8841 15.746 74.8541 16.0098H65.1865C65.3214 17.0357 65.7785 17.8637 66.5579 18.4939C67.3523 19.1094 68.3341 19.4172 69.5032 19.4172C70.9271 19.4172 72.0737 18.9482 72.943 18.0103L74.1346 19.3732C73.595 19.9888 72.9206 20.4577 72.1112 20.7802C71.3168 21.1026 70.425 21.2638 69.4357 21.2638C68.1767 21.2638 67.06 21.0146 66.0858 20.5164C65.1115 20.0034 64.3546 19.2926 63.815 18.384C63.2904 17.4754 63.0281 16.4495 63.0281 15.3063C63.0281 14.1779 63.2829 13.1593 63.7925 12.2507C64.3171 11.342 65.0291 10.6386 65.9284 10.1403C66.8427 9.62735 67.8694 9.37088 69.0085 9.37088C70.1477 9.37088 71.1594 9.62735 72.0437 10.1403C72.943 10.6386 73.64 11.342 74.1346 12.2507C74.6442 13.1593 74.899 14.1999 74.899 15.3723ZM69.0085 11.1515C67.9743 11.1515 67.105 11.4593 66.4005 12.0748C65.7111 12.6903 65.3064 13.4964 65.1865 14.493H72.8306C72.7107 13.511 72.2985 12.7123 71.5941 12.0968C70.9046 11.4666 70.0428 11.1515 69.0085 11.1515Z"/>
<path d="M84.2138 9.37088C85.3679 9.37088 86.4021 9.62002 87.3164 10.1183C88.2307 10.6166 88.9427 11.3127 89.4523 12.2067C89.9769 13.1007 90.2392 14.1339 90.2392 15.3063C90.2392 16.4788 89.9769 17.5193 89.4523 18.428C88.9427 19.3219 88.2307 20.0181 87.3164 20.5164C86.4021 21.0146 85.3679 21.2638 84.2138 21.2638C83.3594 21.2638 82.5725 21.1026 81.8531 20.7802C81.1486 20.4577 80.5491 19.9888 80.0544 19.3732V25.3966H77.8961V9.4808H79.9645V11.3274C80.4442 10.6825 81.0512 10.1989 81.7856 9.87649C82.5201 9.53942 83.3294 9.37088 84.2138 9.37088ZM84.0339 19.4172C84.7983 19.4172 85.4803 19.2487 86.0798 18.9116C86.6944 18.5599 87.174 18.0762 87.5187 17.4607C87.8785 16.8305 88.0583 16.1124 88.0583 15.3063C88.0583 14.5003 87.8785 13.7895 87.5187 13.174C87.174 12.5438 86.6944 12.0602 86.0798 11.7231C85.4803 11.386 84.7983 11.2175 84.0339 11.2175C83.2845 11.2175 82.6025 11.3933 81.988 11.7451C81.3884 12.0821 80.9088 12.5584 80.5491 13.174C80.2043 13.7895 80.032 14.5003 80.032 15.3063C80.032 16.1124 80.2043 16.8305 80.5491 17.4607C80.8938 18.0762 81.3734 18.5599 81.988 18.9116C82.6025 19.2487 83.2845 19.4172 84.0339 19.4172Z"/>
<path d="M97.4507 9.37088C99.0994 9.37088 100.358 9.76658 101.228 10.558C102.112 11.3494 102.554 12.5291 102.554 14.0973V21.1319H100.508V19.5931C100.149 20.1353 99.6315 20.553 98.957 20.8461C98.2975 21.1246 97.5107 21.2638 96.5963 21.2638C95.2624 21.2638 94.1907 20.9487 93.3813 20.3185C92.5869 19.6883 92.1897 18.8603 92.1897 17.8344C92.1897 16.8085 92.5719 15.9878 93.3363 15.3723C94.1008 14.7421 95.3148 14.427 96.9786 14.427H100.396V14.0093C100.396 13.1007 100.126 12.4046 99.5866 11.9209C99.047 11.4373 98.2526 11.1955 97.2034 11.1955C96.4989 11.1955 95.8095 11.3127 95.135 11.5472C94.4605 11.767 93.8909 12.0675 93.4263 12.4485L92.527 10.8657C93.1415 10.3821 93.8759 10.0157 94.7303 9.76658C95.5846 9.50278 96.4914 9.37088 97.4507 9.37088ZM96.9561 19.637C97.7804 19.637 98.4924 19.4612 99.0919 19.1094C99.6915 18.743 100.126 18.2301 100.396 17.5706V15.9439H97.0685C95.2399 15.9439 94.3256 16.5447 94.3256 17.7465C94.3256 18.3327 94.5579 18.7943 95.0226 19.1314C95.4872 19.4685 96.1317 19.637 96.9561 19.637Z"/>
<path d="M108.617 11.4373C108.992 10.7631 109.546 10.2502 110.281 9.89848C111.015 9.54675 111.907 9.37088 112.956 9.37088V11.4153C112.836 11.4007 112.671 11.3933 112.461 11.3933C111.292 11.3933 110.371 11.7377 109.696 12.4265C109.037 13.1007 108.707 14.068 108.707 15.3283V21.1319H106.549V9.4808H108.617V11.4373Z"/>
<path d="M122.799 20.4504C122.484 20.7142 122.095 20.9194 121.63 21.0659C121.165 21.1978 120.686 21.2638 120.191 21.2638C118.992 21.2638 118.063 20.9487 117.403 20.3185C116.744 19.6883 116.414 18.787 116.414 17.6146V11.2175H114.391V9.4808H116.414V6.93075H118.572V9.4808H121.99V11.2175H118.572V17.5266C118.572 18.1568 118.73 18.6405 119.045 18.9775C119.374 19.3146 119.839 19.4832 120.438 19.4832C121.098 19.4832 121.66 19.3 122.125 18.9336L122.799 20.4504Z"/>
<path d="M140.315 9.37088C141.814 9.37088 142.998 9.79589 143.867 10.6459C144.751 11.4959 145.193 12.7563 145.193 14.427V21.1319H143.035V14.6688C143.035 13.5404 142.765 12.6903 142.226 12.1188C141.701 11.5472 140.944 11.2614 139.955 11.2614C138.861 11.2614 137.991 11.5985 137.347 12.2727C136.702 12.9322 136.38 13.8848 136.38 15.1305V21.1319H134.222V14.6688C134.222 13.5404 133.952 12.6903 133.412 12.1188C132.888 11.5472 132.131 11.2614 131.142 11.2614C130.048 11.2614 129.178 11.5985 128.534 12.2727C127.889 12.9322 127.567 13.8848 127.567 15.1305V21.1319H125.409V9.4808H127.477V11.2175C127.912 10.6166 128.481 10.1623 129.186 9.85451C129.89 9.53209 130.692 9.37088 131.591 9.37088C132.521 9.37088 133.345 9.55407 134.064 9.92046C134.784 10.2868 135.339 10.8218 135.728 11.5252C136.178 10.8511 136.8 10.3235 137.594 9.94244C138.404 9.5614 139.31 9.37088 140.315 9.37088Z"/>
<path d="M160 15.3723C160 15.5335 159.985 15.746 159.955 16.0098H150.287C150.422 17.0357 150.879 17.8637 151.659 18.4939C152.453 19.1094 153.435 19.4172 154.604 19.4172C156.028 19.4172 157.175 18.9482 158.044 18.0103L159.236 19.3732C158.696 19.9888 158.021 20.4577 157.212 20.7802C156.418 21.1026 155.526 21.2638 154.537 21.2638C153.278 21.2638 152.161 21.0146 151.187 20.5164C150.212 20.0034 149.456 19.2926 148.916 18.384C148.391 17.4754 148.129 16.4495 148.129 15.3063C148.129 14.1779 148.384 13.1593 148.893 12.2507C149.418 11.342 150.13 10.6386 151.029 10.1403C151.944 9.62735 152.97 9.37088 154.109 9.37088C155.249 9.37088 156.26 9.62735 157.145 10.1403C158.044 10.6386 158.741 11.342 159.236 12.2507C159.745 13.1593 160 14.1999 160 15.3723ZM154.109 11.1515C153.075 11.1515 152.206 11.4593 151.501 12.0748C150.812 12.6903 150.407 13.4964 150.287 14.493H157.932C157.812 13.511 157.399 12.7123 156.695 12.0968C156.006 11.4666 155.144 11.1515 154.109 11.1515Z"/>
<path d="M169.36 9.37088C170.874 9.37088 172.073 9.80322 172.957 10.6679C173.856 11.5179 174.306 12.7709 174.306 14.427V21.1319H172.148V14.6688C172.148 13.5404 171.87 12.6903 171.316 12.1188C170.761 11.5472 169.967 11.2614 168.932 11.2614C167.763 11.2614 166.842 11.5985 166.167 12.2727C165.493 12.9322 165.155 13.8848 165.155 15.1305V21.1319H162.997V9.4808H165.065V11.2395C165.5 10.6386 166.085 10.1769 166.819 9.85451C167.569 9.53209 168.415 9.37088 169.36 9.37088Z"/>
<path d="M185 20.4504C184.685 20.7142 184.296 20.9194 183.831 21.0659C183.366 21.1978 182.887 21.2638 182.392 21.2638C181.193 21.2638 180.264 20.9487 179.604 20.3185C178.945 19.6883 178.615 18.787 178.615 17.6146V11.2175H176.592V9.4808H178.615V6.93075H180.773V9.4808H184.191V11.2175H180.773V17.5266C180.773 18.1568 180.931 18.6405 181.246 18.9775C181.575 19.3146 182.04 19.4832 182.639 19.4832C183.299 19.4832 183.861 19.3 184.326 18.9336L185 20.4504Z"/>
</mask>
<path d="M45.8699 5.74365H52.5023C54.166 5.74365 55.6424 6.06607 56.9314 6.71091C58.2204 7.35575 59.2172 8.26439 59.9216 9.43683C60.6411 10.5946 61.0008 11.9283 61.0008 13.4378C61.0008 14.9473 60.6411 16.2883 59.9216 17.4607C59.2172 18.6185 58.2204 19.5198 56.9314 20.1646C55.6424 20.8095 54.166 21.1319 52.5023 21.1319H45.8699V5.74365ZM52.3674 19.2194C53.6414 19.2194 54.7581 18.9775 55.7173 18.4939C56.6916 18.0103 57.441 17.3361 57.9656 16.4715C58.4902 15.5921 58.7525 14.5809 58.7525 13.4378C58.7525 12.2946 58.4902 11.2907 57.9656 10.4261C57.441 9.54674 56.6916 8.86527 55.7173 8.38164C54.7581 7.89801 53.6414 7.65619 52.3674 7.65619H48.1182V19.2194H52.3674Z" fill="white"/>
<path d="M74.899 15.3723C74.899 15.5335 74.8841 15.746 74.8541 16.0098H65.1865C65.3214 17.0357 65.7785 17.8637 66.5579 18.4939C67.3523 19.1094 68.3341 19.4172 69.5032 19.4172C70.9271 19.4172 72.0737 18.9482 72.943 18.0103L74.1346 19.3732C73.595 19.9888 72.9206 20.4577 72.1112 20.7802C71.3168 21.1026 70.425 21.2638 69.4357 21.2638C68.1767 21.2638 67.06 21.0146 66.0858 20.5164C65.1115 20.0034 64.3546 19.2926 63.815 18.384C63.2904 17.4754 63.0281 16.4495 63.0281 15.3063C63.0281 14.1779 63.2829 13.1593 63.7925 12.2507C64.3171 11.342 65.0291 10.6386 65.9284 10.1403C66.8427 9.62735 67.8694 9.37088 69.0085 9.37088C70.1477 9.37088 71.1594 9.62735 72.0437 10.1403C72.943 10.6386 73.64 11.342 74.1346 12.2507C74.6442 13.1593 74.899 14.1999 74.899 15.3723ZM69.0085 11.1515C67.9743 11.1515 67.105 11.4593 66.4005 12.0748C65.7111 12.6903 65.3064 13.4964 65.1865 14.493H72.8306C72.7107 13.511 72.2985 12.7123 71.5941 12.0968C70.9046 11.4666 70.0428 11.1515 69.0085 11.1515Z" fill="white"/>
<path d="M84.2138 9.37088C85.3679 9.37088 86.4021 9.62002 87.3164 10.1183C88.2307 10.6166 88.9427 11.3127 89.4523 12.2067C89.9769 13.1007 90.2392 14.1339 90.2392 15.3063C90.2392 16.4788 89.9769 17.5193 89.4523 18.428C88.9427 19.3219 88.2307 20.0181 87.3164 20.5164C86.4021 21.0146 85.3679 21.2638 84.2138 21.2638C83.3594 21.2638 82.5725 21.1026 81.8531 20.7802C81.1486 20.4577 80.5491 19.9888 80.0544 19.3732V25.3966H77.8961V9.4808H79.9645V11.3274C80.4442 10.6825 81.0512 10.1989 81.7856 9.87649C82.5201 9.53942 83.3294 9.37088 84.2138 9.37088ZM84.0339 19.4172C84.7983 19.4172 85.4803 19.2487 86.0798 18.9116C86.6944 18.5599 87.174 18.0762 87.5187 17.4607C87.8785 16.8305 88.0583 16.1124 88.0583 15.3063C88.0583 14.5003 87.8785 13.7895 87.5187 13.174C87.174 12.5438 86.6944 12.0602 86.0798 11.7231C85.4803 11.386 84.7983 11.2175 84.0339 11.2175C83.2845 11.2175 82.6025 11.3933 81.988 11.7451C81.3884 12.0821 80.9088 12.5584 80.5491 13.174C80.2043 13.7895 80.032 14.5003 80.032 15.3063C80.032 16.1124 80.2043 16.8305 80.5491 17.4607C80.8938 18.0762 81.3734 18.5599 81.988 18.9116C82.6025 19.2487 83.2845 19.4172 84.0339 19.4172Z" fill="white"/>
<path d="M97.4507 9.37088C99.0994 9.37088 100.358 9.76658 101.228 10.558C102.112 11.3494 102.554 12.5291 102.554 14.0973V21.1319H100.508V19.5931C100.149 20.1353 99.6315 20.553 98.957 20.8461C98.2975 21.1246 97.5107 21.2638 96.5963 21.2638C95.2624 21.2638 94.1907 20.9487 93.3813 20.3185C92.5869 19.6883 92.1897 18.8603 92.1897 17.8344C92.1897 16.8085 92.5719 15.9878 93.3363 15.3723C94.1008 14.7421 95.3148 14.427 96.9786 14.427H100.396V14.0093C100.396 13.1007 100.126 12.4046 99.5866 11.9209C99.047 11.4373 98.2526 11.1955 97.2034 11.1955C96.4989 11.1955 95.8095 11.3127 95.135 11.5472C94.4605 11.767 93.8909 12.0675 93.4263 12.4485L92.527 10.8657C93.1415 10.3821 93.8759 10.0157 94.7303 9.76658C95.5846 9.50278 96.4914 9.37088 97.4507 9.37088ZM96.9561 19.637C97.7804 19.637 98.4924 19.4612 99.0919 19.1094C99.6915 18.743 100.126 18.2301 100.396 17.5706V15.9439H97.0685C95.2399 15.9439 94.3256 16.5447 94.3256 17.7465C94.3256 18.3327 94.5579 18.7943 95.0226 19.1314C95.4872 19.4685 96.1317 19.637 96.9561 19.637Z" fill="white"/>
<path d="M108.617 11.4373C108.992 10.7631 109.546 10.2502 110.281 9.89848C111.015 9.54675 111.907 9.37088 112.956 9.37088V11.4153C112.836 11.4007 112.671 11.3933 112.461 11.3933C111.292 11.3933 110.371 11.7377 109.696 12.4265C109.037 13.1007 108.707 14.068 108.707 15.3283V21.1319H106.549V9.4808H108.617V11.4373Z" fill="white"/>
<path d="M122.799 20.4504C122.484 20.7142 122.095 20.9194 121.63 21.0659C121.165 21.1978 120.686 21.2638 120.191 21.2638C118.992 21.2638 118.063 20.9487 117.403 20.3185C116.744 19.6883 116.414 18.787 116.414 17.6146V11.2175H114.391V9.4808H116.414V6.93075H118.572V9.4808H121.99V11.2175H118.572V17.5266C118.572 18.1568 118.73 18.6405 119.045 18.9775C119.374 19.3146 119.839 19.4832 120.438 19.4832C121.098 19.4832 121.66 19.3 122.125 18.9336L122.799 20.4504Z" fill="white"/>
<path d="M140.315 9.37088C141.814 9.37088 142.998 9.79589 143.867 10.6459C144.751 11.4959 145.193 12.7563 145.193 14.427V21.1319H143.035V14.6688C143.035 13.5404 142.765 12.6903 142.226 12.1188C141.701 11.5472 140.944 11.2614 139.955 11.2614C138.861 11.2614 137.991 11.5985 137.347 12.2727C136.702 12.9322 136.38 13.8848 136.38 15.1305V21.1319H134.222V14.6688C134.222 13.5404 133.952 12.6903 133.412 12.1188C132.888 11.5472 132.131 11.2614 131.142 11.2614C130.048 11.2614 129.178 11.5985 128.534 12.2727C127.889 12.9322 127.567 13.8848 127.567 15.1305V21.1319H125.409V9.4808H127.477V11.2175C127.912 10.6166 128.481 10.1623 129.186 9.85451C129.89 9.53209 130.692 9.37088 131.591 9.37088C132.521 9.37088 133.345 9.55407 134.064 9.92046C134.784 10.2868 135.339 10.8218 135.728 11.5252C136.178 10.8511 136.8 10.3235 137.594 9.94244C138.404 9.5614 139.31 9.37088 140.315 9.37088Z" fill="white"/>
<path d="M160 15.3723C160 15.5335 159.985 15.746 159.955 16.0098H150.287C150.422 17.0357 150.879 17.8637 151.659 18.4939C152.453 19.1094 153.435 19.4172 154.604 19.4172C156.028 19.4172 157.175 18.9482 158.044 18.0103L159.236 19.3732C158.696 19.9888 158.021 20.4577 157.212 20.7802C156.418 21.1026 155.526 21.2638 154.537 21.2638C153.278 21.2638 152.161 21.0146 151.187 20.5164C150.212 20.0034 149.456 19.2926 148.916 18.384C148.391 17.4754 148.129 16.4495 148.129 15.3063C148.129 14.1779 148.384 13.1593 148.893 12.2507C149.418 11.342 150.13 10.6386 151.029 10.1403C151.944 9.62735 152.97 9.37088 154.109 9.37088C155.249 9.37088 156.26 9.62735 157.145 10.1403C158.044 10.6386 158.741 11.342 159.236 12.2507C159.745 13.1593 160 14.1999 160 15.3723ZM154.109 11.1515C153.075 11.1515 152.206 11.4593 151.501 12.0748C150.812 12.6903 150.407 13.4964 150.287 14.493H157.932C157.812 13.511 157.399 12.7123 156.695 12.0968C156.006 11.4666 155.144 11.1515 154.109 11.1515Z" fill="white"/>
<path d="M169.36 9.37088C170.874 9.37088 172.073 9.80322 172.957 10.6679C173.856 11.5179 174.306 12.7709 174.306 14.427V21.1319H172.148V14.6688C172.148 13.5404 171.87 12.6903 171.316 12.1188C170.761 11.5472 169.967 11.2614 168.932 11.2614C167.763 11.2614 166.842 11.5985 166.167 12.2727C165.493 12.9322 165.155 13.8848 165.155 15.1305V21.1319H162.997V9.4808H165.065V11.2395C165.5 10.6386 166.085 10.1769 166.819 9.85451C167.569 9.53209 168.415 9.37088 169.36 9.37088Z" fill="white"/>
<path d="M185 20.4504C184.685 20.7142 184.296 20.9194 183.831 21.0659C183.366 21.1978 182.887 21.2638 182.392 21.2638C181.193 21.2638 180.264 20.9487 179.604 20.3185C178.945 19.6883 178.615 18.787 178.615 17.6146V11.2175H176.592V9.4808H178.615V6.93075H180.773V9.4808H184.191V11.2175H180.773V17.5266C180.773 18.1568 180.931 18.6405 181.246 18.9775C181.575 19.3146 182.04 19.4832 182.639 19.4832C183.299 19.4832 183.861 19.3 184.326 18.9336L185 20.4504Z" fill="white"/>
<path d="M45.8699 5.74365H52.5023C54.166 5.74365 55.6424 6.06607 56.9314 6.71091C58.2204 7.35575 59.2172 8.26439 59.9216 9.43683C60.6411 10.5946 61.0008 11.9283 61.0008 13.4378C61.0008 14.9473 60.6411 16.2883 59.9216 17.4607C59.2172 18.6185 58.2204 19.5198 56.9314 20.1646C55.6424 20.8095 54.166 21.1319 52.5023 21.1319H45.8699V5.74365ZM52.3674 19.2194C53.6414 19.2194 54.7581 18.9775 55.7173 18.4939C56.6916 18.0103 57.441 17.3361 57.9656 16.4715C58.4902 15.5921 58.7525 14.5809 58.7525 13.4378C58.7525 12.2946 58.4902 11.2907 57.9656 10.4261C57.441 9.54674 56.6916 8.86527 55.7173 8.38164C54.7581 7.89801 53.6414 7.65619 52.3674 7.65619H48.1182V19.2194H52.3674Z" stroke="white" stroke-width="0.4" mask="url(#path-5-outside-1_277_6153)"/>
<path d="M74.899 15.3723C74.899 15.5335 74.8841 15.746 74.8541 16.0098H65.1865C65.3214 17.0357 65.7785 17.8637 66.5579 18.4939C67.3523 19.1094 68.3341 19.4172 69.5032 19.4172C70.9271 19.4172 72.0737 18.9482 72.943 18.0103L74.1346 19.3732C73.595 19.9888 72.9206 20.4577 72.1112 20.7802C71.3168 21.1026 70.425 21.2638 69.4357 21.2638C68.1767 21.2638 67.06 21.0146 66.0858 20.5164C65.1115 20.0034 64.3546 19.2926 63.815 18.384C63.2904 17.4754 63.0281 16.4495 63.0281 15.3063C63.0281 14.1779 63.2829 13.1593 63.7925 12.2507C64.3171 11.342 65.0291 10.6386 65.9284 10.1403C66.8427 9.62735 67.8694 9.37088 69.0085 9.37088C70.1477 9.37088 71.1594 9.62735 72.0437 10.1403C72.943 10.6386 73.64 11.342 74.1346 12.2507C74.6442 13.1593 74.899 14.1999 74.899 15.3723ZM69.0085 11.1515C67.9743 11.1515 67.105 11.4593 66.4005 12.0748C65.7111 12.6903 65.3064 13.4964 65.1865 14.493H72.8306C72.7107 13.511 72.2985 12.7123 71.5941 12.0968C70.9046 11.4666 70.0428 11.1515 69.0085 11.1515Z" stroke="white" stroke-width="0.4" mask="url(#path-5-outside-1_277_6153)"/>
<path d="M84.2138 9.37088C85.3679 9.37088 86.4021 9.62002 87.3164 10.1183C88.2307 10.6166 88.9427 11.3127 89.4523 12.2067C89.9769 13.1007 90.2392 14.1339 90.2392 15.3063C90.2392 16.4788 89.9769 17.5193 89.4523 18.428C88.9427 19.3219 88.2307 20.0181 87.3164 20.5164C86.4021 21.0146 85.3679 21.2638 84.2138 21.2638C83.3594 21.2638 82.5725 21.1026 81.8531 20.7802C81.1486 20.4577 80.5491 19.9888 80.0544 19.3732V25.3966H77.8961V9.4808H79.9645V11.3274C80.4442 10.6825 81.0512 10.1989 81.7856 9.87649C82.5201 9.53942 83.3294 9.37088 84.2138 9.37088ZM84.0339 19.4172C84.7983 19.4172 85.4803 19.2487 86.0798 18.9116C86.6944 18.5599 87.174 18.0762 87.5187 17.4607C87.8785 16.8305 88.0583 16.1124 88.0583 15.3063C88.0583 14.5003 87.8785 13.7895 87.5187 13.174C87.174 12.5438 86.6944 12.0602 86.0798 11.7231C85.4803 11.386 84.7983 11.2175 84.0339 11.2175C83.2845 11.2175 82.6025 11.3933 81.988 11.7451C81.3884 12.0821 80.9088 12.5584 80.5491 13.174C80.2043 13.7895 80.032 14.5003 80.032 15.3063C80.032 16.1124 80.2043 16.8305 80.5491 17.4607C80.8938 18.0762 81.3734 18.5599 81.988 18.9116C82.6025 19.2487 83.2845 19.4172 84.0339 19.4172Z" stroke="white" stroke-width="0.4" mask="url(#path-5-outside-1_277_6153)"/>
<path d="M97.4507 9.37088C99.0994 9.37088 100.358 9.76658 101.228 10.558C102.112 11.3494 102.554 12.5291 102.554 14.0973V21.1319H100.508V19.5931C100.149 20.1353 99.6315 20.553 98.957 20.8461C98.2975 21.1246 97.5107 21.2638 96.5963 21.2638C95.2624 21.2638 94.1907 20.9487 93.3813 20.3185C92.5869 19.6883 92.1897 18.8603 92.1897 17.8344C92.1897 16.8085 92.5719 15.9878 93.3363 15.3723C94.1008 14.7421 95.3148 14.427 96.9786 14.427H100.396V14.0093C100.396 13.1007 100.126 12.4046 99.5866 11.9209C99.047 11.4373 98.2526 11.1955 97.2034 11.1955C96.4989 11.1955 95.8095 11.3127 95.135 11.5472C94.4605 11.767 93.8909 12.0675 93.4263 12.4485L92.527 10.8657C93.1415 10.3821 93.8759 10.0157 94.7303 9.76658C95.5846 9.50278 96.4914 9.37088 97.4507 9.37088ZM96.9561 19.637C97.7804 19.637 98.4924 19.4612 99.0919 19.1094C99.6915 18.743 100.126 18.2301 100.396 17.5706V15.9439H97.0685C95.2399 15.9439 94.3256 16.5447 94.3256 17.7465C94.3256 18.3327 94.5579 18.7943 95.0226 19.1314C95.4872 19.4685 96.1317 19.637 96.9561 19.637Z" stroke="white" stroke-width="0.4" mask="url(#path-5-outside-1_277_6153)"/>
<path d="M108.617 11.4373C108.992 10.7631 109.546 10.2502 110.281 9.89848C111.015 9.54675 111.907 9.37088 112.956 9.37088V11.4153C112.836 11.4007 112.671 11.3933 112.461 11.3933C111.292 11.3933 110.371 11.7377 109.696 12.4265C109.037 13.1007 108.707 14.068 108.707 15.3283V21.1319H106.549V9.4808H108.617V11.4373Z" stroke="white" stroke-width="0.4" mask="url(#path-5-outside-1_277_6153)"/>
<path d="M122.799 20.4504C122.484 20.7142 122.095 20.9194 121.63 21.0659C121.165 21.1978 120.686 21.2638 120.191 21.2638C118.992 21.2638 118.063 20.9487 117.403 20.3185C116.744 19.6883 116.414 18.787 116.414 17.6146V11.2175H114.391V9.4808H116.414V6.93075H118.572V9.4808H121.99V11.2175H118.572V17.5266C118.572 18.1568 118.73 18.6405 119.045 18.9775C119.374 19.3146 119.839 19.4832 120.438 19.4832C121.098 19.4832 121.66 19.3 122.125 18.9336L122.799 20.4504Z" stroke="white" stroke-width="0.4" mask="url(#path-5-outside-1_277_6153)"/>
<path d="M140.315 9.37088C141.814 9.37088 142.998 9.79589 143.867 10.6459C144.751 11.4959 145.193 12.7563 145.193 14.427V21.1319H143.035V14.6688C143.035 13.5404 142.765 12.6903 142.226 12.1188C141.701 11.5472 140.944 11.2614 139.955 11.2614C138.861 11.2614 137.991 11.5985 137.347 12.2727C136.702 12.9322 136.38 13.8848 136.38 15.1305V21.1319H134.222V14.6688C134.222 13.5404 133.952 12.6903 133.412 12.1188C132.888 11.5472 132.131 11.2614 131.142 11.2614C130.048 11.2614 129.178 11.5985 128.534 12.2727C127.889 12.9322 127.567 13.8848 127.567 15.1305V21.1319H125.409V9.4808H127.477V11.2175C127.912 10.6166 128.481 10.1623 129.186 9.85451C129.89 9.53209 130.692 9.37088 131.591 9.37088C132.521 9.37088 133.345 9.55407 134.064 9.92046C134.784 10.2868 135.339 10.8218 135.728 11.5252C136.178 10.8511 136.8 10.3235 137.594 9.94244C138.404 9.5614 139.31 9.37088 140.315 9.37088Z" stroke="white" stroke-width="0.4" mask="url(#path-5-outside-1_277_6153)"/>
<path d="M160 15.3723C160 15.5335 159.985 15.746 159.955 16.0098H150.287C150.422 17.0357 150.879 17.8637 151.659 18.4939C152.453 19.1094 153.435 19.4172 154.604 19.4172C156.028 19.4172 157.175 18.9482 158.044 18.0103L159.236 19.3732C158.696 19.9888 158.021 20.4577 157.212 20.7802C156.418 21.1026 155.526 21.2638 154.537 21.2638C153.278 21.2638 152.161 21.0146 151.187 20.5164C150.212 20.0034 149.456 19.2926 148.916 18.384C148.391 17.4754 148.129 16.4495 148.129 15.3063C148.129 14.1779 148.384 13.1593 148.893 12.2507C149.418 11.342 150.13 10.6386 151.029 10.1403C151.944 9.62735 152.97 9.37088 154.109 9.37088C155.249 9.37088 156.26 9.62735 157.145 10.1403C158.044 10.6386 158.741 11.342 159.236 12.2507C159.745 13.1593 160 14.1999 160 15.3723ZM154.109 11.1515C153.075 11.1515 152.206 11.4593 151.501 12.0748C150.812 12.6903 150.407 13.4964 150.287 14.493H157.932C157.812 13.511 157.399 12.7123 156.695 12.0968C156.006 11.4666 155.144 11.1515 154.109 11.1515Z" stroke="white" stroke-width="0.4" mask="url(#path-5-outside-1_277_6153)"/>
<path d="M169.36 9.37088C170.874 9.37088 172.073 9.80322 172.957 10.6679C173.856 11.5179 174.306 12.7709 174.306 14.427V21.1319H172.148V14.6688C172.148 13.5404 171.87 12.6903 171.316 12.1188C170.761 11.5472 169.967 11.2614 168.932 11.2614C167.763 11.2614 166.842 11.5985 166.167 12.2727C165.493 12.9322 165.155 13.8848 165.155 15.1305V21.1319H162.997V9.4808H165.065V11.2395C165.5 10.6386 166.085 10.1769 166.819 9.85451C167.569 9.53209 168.415 9.37088 169.36 9.37088Z" stroke="white" stroke-width="0.4" mask="url(#path-5-outside-1_277_6153)"/>
<path d="M185 20.4504C184.685 20.7142 184.296 20.9194 183.831 21.0659C183.366 21.1978 182.887 21.2638 182.392 21.2638C181.193 21.2638 180.264 20.9487 179.604 20.3185C178.945 19.6883 178.615 18.787 178.615 17.6146V11.2175H176.592V9.4808H178.615V6.93075H180.773V9.4808H184.191V11.2175H180.773V17.5266C180.773 18.1568 180.931 18.6405 181.246 18.9775C181.575 19.3146 182.04 19.4832 182.639 19.4832C183.299 19.4832 183.861 19.3 184.326 18.9336L185 20.4504Z" stroke="white" stroke-width="0.4" mask="url(#path-5-outside-1_277_6153)"/>
</svg>
