<svg fill="none" height="18" viewBox="0 0 20 18" width="20" xmlns="http://www.w3.org/2000/svg">
	<path d="M6.2918 17.1248C13.8371 17.1248 17.9652 10.8721 17.9652 5.45137C17.9652 5.27559 17.9613 5.0959 17.9535 4.92012C18.7566 4.33937 19.4496 3.62003 20 2.7959C19.2521 3.12865 18.458 3.34597 17.6449 3.44043C18.5011 2.92724 19.1421 2.12104 19.4492 1.17129C18.6438 1.64861 17.763 1.98533 16.8445 2.16699C16.2257 1.50945 15.4075 1.07408 14.5164 0.928193C13.6253 0.782305 12.711 0.934026 11.9148 1.3599C11.1186 1.78577 10.4848 2.46207 10.1115 3.28424C9.73825 4.10641 9.64619 5.02866 9.84961 5.9084C8.21874 5.82656 6.62328 5.4029 5.16665 4.6649C3.71002 3.92689 2.42474 2.89101 1.39414 1.62441C0.870333 2.52752 0.710047 3.59619 0.945859 4.61323C1.18167 5.63026 1.79589 6.51936 2.66367 7.0998C2.01219 7.07912 1.37498 6.90372 0.804688 6.58809V6.63887C0.804104 7.58661 1.13175 8.50531 1.73192 9.23879C2.3321 9.97228 3.16777 10.4753 4.09687 10.6623C3.49338 10.8274 2.85999 10.8515 2.2457 10.7326C2.50788 11.5477 3.01798 12.2606 3.70481 12.7718C4.39164 13.283 5.22093 13.567 6.07695 13.5842C4.62369 14.7257 2.82848 15.3449 0.980469 15.342C0.652739 15.3415 0.325333 15.3214 0 15.2818C1.87738 16.4863 4.06128 17.126 6.2918 17.1248Z" fill="#272833" />
</svg>