<svg width="392" height="300" viewBox="0 0 392 300" fill="none" xmlns="http://www.w3.org/2000/svg">
<rect width="391.579" height="300" fill="white"/>
<rect x="126.49" y="73.0428" width="85.646" height="53.9942" rx="6.93856" fill="#CDE0E8"/>
<rect x="120.284" y="38.9085" width="50.8911" height="27.928" rx="3.85407" fill="#E1EAEF"/>
<rect x="70.6338" y="97.8677" width="50.8911" height="27.928" rx="3.85407" fill="#E1EAEF"/>
<rect x="107.25" y="131.381" width="34.1343" height="18.6187" rx="2.55697" fill="#E1EAEF"/>
<rect x="164.968" y="131.381" width="34.1343" height="18.6187" rx="2.55697" fill="#E1EAEF"/>
<rect x="204.688" y="131.381" width="34.1343" height="18.6187" rx="2.55697" fill="#E1EAEF"/>
<rect x="264.268" y="131.381" width="23.5837" height="18.6187" rx="2.11632" fill="#E1EAEF"/>
<rect x="175.519" y="81.1109" width="22.3424" height="22.3424" rx="6.55998" fill="white"/>
<path d="M271.715 97.8677C271.715 97.8677 269.904 111.646 253.097 112.763C256.205 112.131 261.696 105.567 260.819 98.5376" fill="#DAEAF2"/>
<rect x="179.243" y="45.7354" width="98.679" height="53.9942" rx="7.44747" fill="#DAEAF2"/>
<path d="M254.334 146.897C251.671 146.897 248.985 146.271 247.089 145.701C242.31 144.262 237.877 141.762 237.604 140.353C237.445 139.535 234.674 136.859 230.021 135.379C226.478 134.252 219.606 133.248 213.384 139.172C206.185 146.038 198.585 146.336 192.005 140.014L191.656 139.675C189.68 137.742 186.693 134.822 182.206 138.288C177.169 142.177 172.014 141.862 171.795 141.844L171.841 141.192C171.894 141.192 176.972 141.499 181.804 137.77C186.743 133.957 190.094 137.244 192.114 139.207L192.459 139.542C193.29 140.342 195.819 142.775 199.44 143.614C203.879 144.642 208.415 142.99 212.92 138.698C219.386 132.541 226.528 133.585 230.209 134.757C234.742 136.196 237.99 138.959 238.235 140.227C238.411 141.138 242.281 143.573 247.268 145.075C255.994 147.701 259.679 145.201 260.859 144.005C267.827 136.948 273.117 135.713 278.552 139.875C284.163 144.175 292.477 140.694 292.559 140.659L292.817 141.257C292.463 141.409 284.067 144.925 278.152 140.388C273.041 136.474 268.008 137.687 261.326 144.455C259.537 146.297 256.941 146.897 254.334 146.897Z" fill="#C6DAE5"/>
<path d="M190.724 61.2509C192.952 61.2509 194.759 59.4448 194.759 57.2169C194.759 54.9889 192.952 53.1828 190.724 53.1828C188.497 53.1828 186.69 54.9889 186.69 57.2169C186.69 59.4448 188.497 61.2509 190.724 61.2509Z" fill="white"/>
<path opacity="0.19" d="M245.474 58.7684H202.381C201.599 58.7684 200.965 58.0738 200.965 57.2169C200.965 56.36 201.599 55.6653 202.381 55.6653H245.474C246.257 55.6653 246.891 56.36 246.891 57.2169C246.891 58.0738 246.257 58.7684 245.474 58.7684Z" fill="#00537C"/>
<path d="M190.724 92.9027C192.952 92.9027 194.759 91.0966 194.759 88.8686C194.759 86.6407 192.952 84.8346 190.724 84.8346C188.497 84.8346 186.69 86.6407 186.69 88.8686C186.69 91.0966 188.497 92.9027 190.724 92.9027Z" fill="white"/>
<path opacity="0.19" d="M258.509 90.4202H202.38C201.599 90.4202 200.965 89.7256 200.965 88.8687C200.965 88.0117 201.599 87.3171 202.38 87.3171H258.509C259.29 87.3171 259.924 88.0117 259.924 88.8687C259.924 89.7256 259.29 90.4202 258.509 90.4202Z" fill="#00537C"/>
<path d="M190.724 81.7315C192.952 81.7315 194.759 79.9254 194.759 77.6974C194.759 75.4695 192.952 73.6634 190.724 73.6634C188.497 73.6634 186.69 75.4695 186.69 77.6974C186.69 79.9254 188.497 81.7315 190.724 81.7315Z" fill="white"/>
<path opacity="0.19" d="M226.215 79.249H202.402C201.608 79.249 200.965 78.5543 200.965 77.6974C200.965 76.8405 201.608 76.1459 202.402 76.1459H226.215C227.008 76.1459 227.652 76.8405 227.652 77.6974C227.652 78.5543 227.008 79.249 226.215 79.249Z" fill="#00537C"/>
<path opacity="0.19" d="M255.404 68.6984H212.311C211.529 68.6984 210.895 68.0037 210.895 67.1468C210.895 66.2899 211.529 65.5953 212.311 65.5953H255.404C256.186 65.5953 256.821 66.2899 256.821 67.1468C256.821 68.0037 256.186 68.6984 255.404 68.6984Z" fill="#00537C"/>
<rect opacity="0.21" x="142.005" y="89.179" width="25.4455" height="25.4455" rx="7.44747" fill="white"/>
<rect opacity="0.6" x="138.282" y="84.8346" width="25.4455" height="25.4455" rx="7.44747" fill="white"/>
<rect x="133.938" y="80.4902" width="25.4455" height="25.4455" rx="7.44747" fill="white"/>
<path opacity="0.19" d="M147.279 91.6615L144.488 96.6264H150.073L147.279 91.6615Z" fill="#00537C"/>
<path opacity="0.16" d="M120.284 141.311C120.969 141.311 121.525 140.756 121.525 140.07C121.525 139.385 120.969 138.829 120.284 138.829C119.598 138.829 119.042 139.385 119.042 140.07C119.042 140.756 119.598 141.311 120.284 141.311Z" fill="#044572"/>
<path opacity="0.16" d="M124.007 141.311C124.693 141.311 125.249 140.756 125.249 140.07C125.249 139.385 124.693 138.829 124.007 138.829C123.322 138.829 122.766 139.385 122.766 140.07C122.766 140.756 123.322 141.311 124.007 141.311Z" fill="#044572"/>
<path opacity="0.16" d="M128.352 141.311C129.037 141.311 129.593 140.756 129.593 140.07C129.593 139.385 129.037 138.829 128.352 138.829C127.666 138.829 127.11 139.385 127.11 140.07C127.11 140.756 127.666 141.311 128.352 141.311Z" fill="#044572"/>
<rect x="131.455" y="45.1147" width="6.20623" height="15.5156" fill="#8FAFC6"/>
<rect x="139.523" y="50.7003" width="6.20623" height="10.5506" fill="#8FAFC6"/>
<rect x="147.591" y="36.426" width="6.20623" height="24.8249" fill="#8FAFC6"/>
<rect x="155.659" y="42.0116" width="6.20623" height="19.2393" fill="#8FAFC6"/>
<path d="M172.726 143.794C173.583 143.794 174.278 143.099 174.278 142.242C174.278 141.385 173.583 140.691 172.726 140.691C171.869 140.691 171.175 141.385 171.175 142.242C171.175 143.099 171.869 143.794 172.726 143.794Z" fill="#CDE0E8"/>
<path d="M187.001 138.208C187.858 138.208 188.552 137.514 188.552 136.657C188.552 135.8 187.858 135.105 187.001 135.105C186.144 135.105 185.449 135.8 185.449 136.657C185.449 137.514 186.144 138.208 187.001 138.208Z" fill="#CDE0E8"/>
<path d="M209.964 143.794C210.821 143.794 211.515 143.099 211.515 142.242C211.515 141.385 210.821 140.691 209.964 140.691C209.107 140.691 208.412 141.385 208.412 142.242C208.412 143.099 209.107 143.794 209.964 143.794Z" fill="#CDE0E8"/>
<path d="M224.238 136.346C225.095 136.346 225.79 135.652 225.79 134.795C225.79 133.938 225.095 133.243 224.238 133.243C223.381 133.243 222.687 133.938 222.687 134.795C222.687 135.652 223.381 136.346 224.238 136.346Z" fill="#CDE0E8"/>
<path d="M279.473 141.932C280.33 141.932 281.025 141.237 281.025 140.38C281.025 139.523 280.33 138.829 279.473 138.829C278.617 138.829 277.922 139.523 277.922 140.38C277.922 141.237 278.617 141.932 279.473 141.932Z" fill="#CDE0E8"/>
<path d="M82.7357 110.28C84.6209 110.28 86.1491 108.752 86.1491 106.867C86.1491 104.982 84.6209 103.453 82.7357 103.453C80.8505 103.453 79.3223 104.982 79.3223 106.867C79.3223 108.752 80.8505 110.28 82.7357 110.28Z" fill="#CDE0E8"/>
<path d="M77.4773 121.451C77.4773 121.451 76.8637 110.901 83.0461 110.901V121.451H77.4773Z" fill="#CDE0E8"/>
<path d="M87.9947 121.451C87.9947 121.451 88.6062 110.901 82.4258 110.901V121.451H87.9947Z" fill="#CDE0E8"/>
<rect x="94.8379" y="104.695" width="16.7568" height="1.24125" fill="#CDE0E8"/>
<rect x="94.8379" y="115.245" width="16.7568" height="1.24125" fill="#CDE0E8"/>
<rect x="94.8379" y="110.28" width="21.1012" height="1.86187" fill="#CDE0E8"/>
<path opacity="0.24" d="M157.823 240.714C157.823 240.714 249.12 232.223 279.596 233.928C283.846 233.834 403.941 242.188 319.086 247.261C319.086 247.261 214.777 252.334 210.549 252.334C206.321 252.334 55.3732 247.592 157.823 240.714Z" fill="url(#paint0_linear)"/>
<path opacity="0.24" d="M139.039 259.893C139.039 259.893 230.335 256.845 260.811 257.455C265.061 257.42 385.156 260.424 300.301 262.245C300.301 262.245 195.993 264.069 191.763 264.069C187.532 264.069 36.5887 262.366 139.039 259.893Z" fill="url(#paint1_linear)"/>
<path d="M217.518 155.151C217.518 155.151 188.247 160.446 188.247 163.69C188.247 163.69 200.191 164.826 212.242 166.59C212.242 166.592 242.271 164.828 217.518 155.151Z" fill="#003F72"/>
<path d="M221.236 103.397C220.87 104.851 219.866 120.22 219.866 120.22C219.866 120.22 226.95 125.689 232.653 125.025C238.356 124.361 231.708 136.614 231.708 136.614C231.708 136.614 208.207 166.736 208.462 186.69C208.717 206.643 243.785 212.476 245.989 208.518C248.194 204.56 257.459 157.905 249.525 130.549C241.591 103.192 249.664 105.729 249.664 105.729C249.664 105.729 239.208 96.5953 235.322 95.1518C231.435 93.7083 224.578 90.1203 221.236 103.397Z" fill="#A6E0FF"/>
<path d="M163.393 199.067L193.754 233.094C193.754 233.094 184.125 200.872 177.749 192.117C177.749 192.119 160.363 185.655 163.393 199.067Z" fill="#2361AD"/>
<path d="M218.853 184.458C210.316 182.022 166.835 178.754 160.849 184.105C154.863 189.457 142.57 237.899 139.27 239.188C142.57 237.908 163.232 211.677 170.17 205.361C170.17 205.361 247.747 237.316 248.871 207.366C249.995 177.417 218.853 184.458 218.853 184.458Z" fill="#0B63CE"/>
<g opacity="0.42">
<path d="M140.758 236.948C140.152 238.239 139.645 239.031 139.259 239.179C139.876 238.942 141.098 237.832 142.723 236.144L140.758 236.948Z" fill="#0B34AC"/>
<path d="M215.264 187.182C215.264 187.182 219.403 196.864 204.777 199.113C200.638 199.489 177.005 187.556 169.687 193.147C164.62 196.112 156.739 201.07 157.114 210.199C157.114 210.199 153.395 219.38 151.125 221.063C151.125 221.063 144.468 229.291 142.723 236.144C149.799 228.799 164.52 210.491 170.171 205.352C170.171 205.352 247.748 237.307 248.872 207.358C249.134 200.378 247.644 195.409 245.204 191.9L215.264 187.182Z" fill="#0B34AC"/>
</g>
<path d="M261.36 128.77C260.192 128.313 247.004 214.066 247.004 214.066C247.004 214.066 293.446 141.3 261.36 128.77Z" fill="#374A63"/>
<path d="M249.619 127.555L228.253 130.603L227.637 138.173L231.322 137.106L206.75 169.211C206.75 169.211 202.857 171.863 206.314 174.547C209.772 177.232 203.047 179.916 203.047 179.916L208.493 184.924C208.493 184.924 249.593 197.813 252.061 205.633C252.061 205.633 250.553 193.844 250.972 180.992C250.972 180.992 255.518 156.268 252.664 135.843L253.719 135.129C253.719 135.129 252.327 127.167 249.619 127.555Z" fill="#56BFE5"/>
<path opacity="0.26" d="M239.842 149.771C239.842 149.771 232.549 174.732 224.48 177.358C216.412 179.984 220.163 180.073 224.48 183.779C228.798 187.484 224.48 190.563 224.48 190.563C224.48 190.563 241.191 196.062 252.07 205.651C252.07 205.651 250.852 193.354 250.917 187.182C250.917 187.182 257.27 129.31 239.842 149.771Z" fill="#374A63"/>
<path d="M232.847 140.527L226.646 158.78C226.646 158.78 197.069 155.369 190.491 156.927C190.491 156.927 226.674 174.674 234.819 179.834L249.477 157.914C249.477 157.914 255.542 144.744 244.648 136.91C244.648 136.91 233.462 132.874 232.847 140.527Z" fill="#A6E0FF"/>
<path d="M191.048 156.94C189.863 156.995 183.979 159.466 185.007 163.69C185.007 163.69 190.333 158.567 195.004 158.501L191.048 156.94Z" fill="#054E96"/>
<path d="M194.294 161.273C193.137 161.01 186.804 161.809 186.669 166.156C186.669 166.156 193.178 162.651 197.692 163.842L194.294 161.273Z" fill="#003F72"/>
<path d="M135.904 241.844C134.785 242.147 125.1 244.929 125.1 244.929C125.1 244.929 137.858 247.995 138.425 246.358C138.991 244.72 140.488 240.608 135.904 241.844Z" fill="#054E96"/>
<path d="M193.148 236.036C192.658 236.906 188.523 244.527 188.523 244.527C188.523 244.527 198.108 238.552 197.44 237.218C196.771 235.883 195.159 232.48 193.148 236.036Z" fill="#054E96"/>
<path opacity="0.09" d="M244.648 136.91C244.648 136.91 238.62 134.733 235.17 136.605L232.991 139.582C232.921 139.893 232.873 140.209 232.85 140.527L228.221 153.207L236.464 164.905L231.996 172.054L191.722 156.723C191.308 156.767 190.897 156.836 190.491 156.927C190.491 156.927 226.674 174.674 234.819 179.834L249.477 157.914C249.477 157.914 255.542 144.744 244.648 136.91Z" fill="#374A63"/>
<path d="M151.125 136.821L161.126 166.936H188.247C185.646 164.227 163.707 163.583 163.707 163.583C163.707 163.583 155.32 139.079 151.125 136.821Z" fill="#054E96"/>
<path d="M192.02 166.592H87.1558C87.1558 166.592 85.2606 173.905 87.1558 174.188C89.051 174.471 189.615 174.188 189.615 174.188C189.615 174.188 200.798 167.935 192.02 166.592Z" fill="#5F7F9D"/>
<path d="M178.396 213.306C178.396 213.306 232.266 215.768 245.722 216.055C245.902 216.058 246.052 216.192 246.075 216.371C246.098 216.549 245.987 216.717 245.813 216.765C234.86 219.561 197.172 227.73 178.396 213.306Z" fill="#374A63"/>
<path d="M246.71 218.727C249.464 218.727 251.697 216.496 251.697 213.743C251.697 210.991 249.464 208.76 246.71 208.76C243.957 208.76 241.724 210.991 241.724 213.743C241.724 216.496 243.957 218.727 246.71 218.727Z" fill="#5F7F9D"/>
<path d="M246.71 217.288C248.669 217.288 250.257 215.701 250.257 213.743C250.257 211.786 248.669 210.199 246.71 210.199C244.752 210.199 243.164 211.786 243.164 213.743C243.164 215.701 244.752 217.288 246.71 217.288Z" fill="#374A63"/>
<path fill-rule="evenodd" clip-rule="evenodd" d="M187.243 217.455H239.594C265.207 255.87 253.729 256.286 253.729 256.286H188.247C177.993 256.286 174.577 252.619 174.577 252.619C171.763 237.218 187.243 217.455 187.243 217.455ZM182.74 248.929C182.74 248.929 189.841 253.351 249.338 249.93C249.338 249.93 254.226 252.793 234.538 222.75H191.127C191.127 222.75 178.784 241.603 182.74 248.929Z" fill="#374A63"/>
<rect x="105.415" y="174.375" width="2.75349" height="87.7538" fill="#5F7F9D"/>
<rect x="173.063" y="174.375" width="2.75349" height="87.7538" fill="#5F7F9D"/>
<rect opacity="0.35" x="105.415" y="174.375" width="2.75349" height="18.7369" fill="#000E3F"/>
<rect opacity="0.35" x="173.063" y="174.375" width="2.75349" height="11.2343" fill="#000E3F"/>
<path d="M234.424 136.248C231.202 136.547 228.253 153.17 228.253 153.17L246.05 170.078L251.695 153.163C251.695 153.163 254.527 139.797 243.759 134.55L234.424 136.248Z" fill="#56BFE5"/>
<path fill-rule="evenodd" clip-rule="evenodd" d="M145.89 158.28C145.915 158.488 146.084 158.648 146.293 158.663L146.297 158.66C146.332 158.661 146.367 158.657 146.402 158.65C147.491 158.377 148.144 158.266 148.144 158.266C148.316 158.264 148.47 158.161 148.538 158.004C148.607 157.847 148.576 157.664 148.46 157.538C148.345 157.411 148.166 157.364 148.003 157.417C147.999 157.418 147.984 157.421 147.958 157.426C147.791 157.457 147.164 157.572 146.19 157.813C145.991 157.877 145.865 158.073 145.89 158.28ZM141.282 160.25C141.08 160.24 140.912 160.092 140.876 159.893C140.839 159.694 140.945 159.497 141.13 159.416C141.696 159.198 142.274 158.994 142.851 158.8C143.003 158.719 143.189 158.735 143.325 158.842C143.461 158.949 143.52 159.126 143.477 159.293C143.434 159.46 143.296 159.586 143.125 159.614C142.561 159.806 141.993 160.008 141.437 160.221C141.386 160.24 141.332 160.249 141.278 160.248L141.282 160.25ZM136.084 162.077C136.131 162.265 136.296 162.4 136.49 162.407L136.483 162.405C136.555 162.407 136.626 162.39 136.69 162.357C137.204 162.083 137.751 161.815 138.293 161.558C138.46 161.511 138.583 161.371 138.607 161.199C138.631 161.028 138.551 160.859 138.404 160.768C138.257 160.678 138.07 160.683 137.927 160.781C137.378 161.042 136.823 161.317 136.289 161.595C136.121 161.692 136.038 161.888 136.084 162.077ZM132.011 165.148C131.827 165.143 131.666 165.022 131.61 164.846C131.553 164.67 131.614 164.479 131.76 164.367C132.251 164.018 132.762 163.674 133.285 163.344C133.482 163.257 133.712 163.326 133.828 163.507C133.944 163.688 133.91 163.927 133.749 164.069C133.246 164.391 132.747 164.722 132.268 165.068C132.191 165.122 132.098 165.149 132.004 165.146L132.011 165.148ZM127.588 168.24C127.654 168.4 127.808 168.506 127.981 168.51L127.974 168.508C128.089 168.511 128.2 168.469 128.284 168.39C128.702 167.979 129.142 167.572 129.591 167.18C129.742 167.017 129.745 166.766 129.6 166.598C129.454 166.431 129.205 166.4 129.022 166.527C128.563 166.929 128.114 167.35 127.678 167.772C127.558 167.896 127.523 168.08 127.588 168.24ZM124.576 172.494C124.416 172.491 124.271 172.401 124.198 172.26C124.124 172.118 124.134 171.947 124.223 171.815C124.574 171.321 124.947 170.829 125.33 170.354C125.416 170.206 125.581 170.122 125.752 170.14C125.922 170.158 126.067 170.274 126.12 170.436C126.174 170.599 126.127 170.778 126.001 170.894C125.628 171.356 125.267 171.832 124.927 172.314C124.844 172.427 124.711 172.494 124.57 172.492L124.576 172.494ZM121.603 176.836C121.682 176.958 121.816 177.033 121.962 177.036V177.034C122.131 177.032 122.283 176.934 122.354 176.781C122.598 176.246 122.862 175.708 123.141 175.19C123.215 174.986 123.128 174.759 122.937 174.657C122.746 174.554 122.509 174.608 122.38 174.783C122.095 175.32 121.821 175.873 121.57 176.426C121.512 176.56 121.524 176.713 121.603 176.836ZM120.261 181.982C120.226 181.982 120.192 181.979 120.158 181.972C119.928 181.914 119.787 181.682 119.84 181.451C119.986 180.857 120.15 180.265 120.33 179.686C120.355 179.515 120.478 179.376 120.644 179.329C120.81 179.283 120.987 179.339 121.097 179.471C121.207 179.604 121.228 179.788 121.152 179.942C120.977 180.502 120.818 181.079 120.677 181.654C120.628 181.844 120.457 181.978 120.261 181.98V181.982ZM119.457 187.155H119.426C119.191 187.136 119.014 186.932 119.028 186.696C119.073 186.084 119.134 185.473 119.208 184.876C119.265 184.666 119.468 184.531 119.684 184.558C119.9 184.585 120.062 184.768 120.065 184.985C119.99 185.566 119.929 186.163 119.886 186.757C119.867 186.98 119.681 187.153 119.457 187.155Z" fill="#F948A9"/>
<path opacity="0.26" d="M208.46 175.521C208.46 175.521 213.93 178.501 215.263 179.992C216.596 181.484 214.263 184.671 212.242 182.235C210.22 179.799 208.46 175.521 208.46 175.521Z" fill="#374A63"/>
<path opacity="0.26" d="M231.708 136.614L248.891 135.846L227.974 141.724L231.708 136.614Z" fill="#374A63"/>
<path d="M222.624 99.2144C222.624 99.2144 210.39 91.2241 223.8 84.7884C237.21 78.3526 231.734 86.565 235.688 90.6494C239.641 94.7338 241.687 92.7177 246.026 94.9167C250.366 97.1156 253.679 104.124 249.856 107.98C246.033 111.836 244.576 117.342 244.576 117.342C244.576 117.342 240.705 114.017 241.171 112.926C241.637 111.836 243.65 105.6 239.504 105.639C235.359 105.679 236.178 109.508 236.178 109.508C236.178 109.508 230.78 106.434 230.71 102.665L222.624 99.2144Z" fill="#054E96"/>
<path opacity="0.8" d="M246.027 94.9167C241.687 92.7177 239.642 94.736 235.688 90.6494C235.384 90.3337 235.121 89.9811 234.906 89.6C231.734 91.2329 230.303 94.1329 231.61 98.644C232.141 100.503 236.55 100.965 232.577 106.599C233.579 107.39 236.178 109.502 236.178 109.502C236.178 109.502 235.359 105.672 239.504 105.633C243.65 105.594 241.635 111.827 241.171 112.92C240.707 114.013 244.576 117.335 244.576 117.335C244.576 117.335 246.035 111.842 249.856 107.973C253.677 104.104 250.366 97.1134 246.027 94.9167Z" fill="#044572"/>
<path d="M195.37 168.477C195.316 168.042 195.037 167.648 194.458 167.317L195.37 168.477Z" fill="#46667F"/>
<path d="M86.3367 171.417C86.2473 172.851 86.402 174.075 87.1557 174.188C89.0531 174.469 189.615 174.188 189.615 174.188C191.013 173.39 192.334 172.462 193.56 171.417L86.3367 171.417Z" fill="#46667F"/>
<path opacity="0.09" d="M233.486 106.064C233.486 106.064 228.04 107.716 229.347 112.062C230.654 116.408 227.621 122.354 223.888 122.756C223.888 122.756 226.471 124.818 232.643 125.025C232.643 125.025 236.041 124.219 234.516 129.908L240.13 128.768L246.7 127.971C245.494 123.439 244.711 118.805 244.36 114.128C244.36 114.128 243.62 97.0351 233.486 106.064Z" fill="#374A63"/>
<path fill-rule="evenodd" clip-rule="evenodd" d="M113.404 53.7474C113.444 53.9416 113.611 54.084 113.809 54.0936L113.8 54.0915C113.866 54.0937 113.933 54.0811 113.994 54.0544C115.012 53.6079 115.643 53.401 115.643 53.401C115.867 53.3253 115.99 53.0846 115.92 52.8587C115.844 52.6345 115.604 52.5116 115.378 52.582C115.341 52.5908 114.699 52.802 113.637 53.2681C113.459 53.3562 113.363 53.5532 113.404 53.7474ZM109.174 56.5701C108.99 56.5574 108.834 56.4294 108.785 56.2509C108.736 56.0725 108.805 55.8826 108.957 55.7773C109.47 55.4506 109.999 55.1348 110.528 54.8364C110.663 54.729 110.848 54.7111 111.001 54.7908C111.153 54.8704 111.245 55.0326 111.234 55.2046C111.223 55.3765 111.112 55.5259 110.951 55.5856C110.435 55.8775 109.919 56.1868 109.416 56.5048C109.341 56.5501 109.254 56.572 109.166 56.5679L109.174 56.5701ZM104.551 59.3976C104.612 59.5642 104.768 59.6769 104.946 59.6826C105.048 59.6816 105.146 59.6446 105.224 59.5781C105.673 59.1947 106.14 58.8179 106.613 58.4542C106.764 58.2991 106.778 58.0568 106.646 57.8852C106.514 57.7136 106.277 57.6646 106.088 57.7702C105.605 58.1427 105.126 58.5304 104.667 58.9246C104.536 59.0439 104.49 59.231 104.551 59.3976ZM101.224 63.3854C101.121 63.3848 101.021 63.3478 100.943 63.2808C100.766 63.1238 100.746 62.8538 100.899 62.6731C101.293 62.2157 101.707 61.7583 102.129 61.3183C102.298 61.1523 102.569 61.1523 102.739 61.3183C102.906 61.4845 102.911 61.754 102.749 61.926C102.338 62.3617 101.935 62.7973 101.55 63.246C101.466 63.3367 101.347 63.3874 101.224 63.3854ZM97.9044 67.5608C97.9698 67.6013 98.0451 67.6231 98.122 67.6239L98.1307 67.6174C98.2787 67.6171 98.4165 67.5417 98.4964 67.417L98.4965 67.4168C98.8121 66.9137 99.1276 66.4107 99.465 65.9228C99.5587 65.7296 99.4976 65.4968 99.3211 65.3745C99.1446 65.2522 98.9054 65.2769 98.7576 65.4328C98.4137 65.9337 98.0763 66.4521 97.7607 66.9705C97.641 67.1737 97.7047 67.4354 97.9044 67.5608ZM95.7822 72.3155C95.7276 72.3152 95.6736 72.3041 95.6233 72.2829C95.4059 72.1924 95.2999 71.9453 95.3839 71.7253C95.6015 71.1568 95.8518 70.5927 96.1087 70.0438C96.2285 69.8663 96.4594 69.8023 96.6534 69.8929C96.8473 69.9834 96.9468 70.2016 96.8879 70.4075C96.6397 70.9412 96.4025 71.4966 96.1827 72.0433C96.1166 72.2068 95.9584 72.3143 95.7822 72.3155ZM94.165 77.3142C94.1957 77.321 94.2271 77.3246 94.2585 77.3251C94.4556 77.3183 94.6235 77.1798 94.6677 76.9875C94.8005 76.406 94.9442 75.8244 95.1031 75.2581C95.1732 75.1018 95.1452 74.9188 95.0316 74.7906C94.9179 74.6624 94.7397 74.6128 94.5763 74.6639C94.4128 74.7149 94.2944 74.8571 94.2738 75.0273C94.1192 75.6088 93.9691 76.2056 93.8385 76.8002C93.7896 77.0319 93.9346 77.2602 94.165 77.3142ZM93.5098 82.5046H93.4772C93.2418 82.4849 93.065 82.281 93.0788 82.0451C93.1224 81.4352 93.1811 80.8253 93.253 80.2263C93.3095 80.0173 93.5111 79.8816 93.7259 79.9078C93.9408 79.9341 94.1037 80.1143 94.1084 80.3309C94.0365 80.9146 93.9799 81.5114 93.9364 82.106C93.9175 82.3287 93.7331 82.501 93.5098 82.5046ZM93.0397 87.3443C93.0557 87.5729 93.246 87.75 93.475 87.7495H93.5055C93.7408 87.7332 93.9203 87.5323 93.9103 87.2964C93.8777 86.6975 93.8472 86.0963 93.8472 85.5082C93.8442 85.2676 93.6469 85.075 93.4065 85.078C93.1661 85.081 92.9736 85.2785 92.9766 85.5191C92.9853 86.1203 93.0071 86.7345 93.0397 87.3443ZM93.5184 91.9183C93.5569 92.123 93.7348 92.2717 93.9428 92.2734C93.9643 92.2784 93.9861 92.2814 94.0081 92.2821C94.2416 92.2441 94.4021 92.0265 94.3695 91.792C94.315 91.4239 94.265 91.0623 94.2171 90.703C94.2212 90.5313 94.1242 90.3733 93.9694 90.2994C93.8146 90.2254 93.6309 90.2494 93.5001 90.3605C93.3694 90.4716 93.316 90.6492 93.3639 90.814C93.4118 91.1778 93.464 91.5459 93.5184 91.9183Z" fill="#F948A9"/>
<path fill-rule="evenodd" clip-rule="evenodd" d="M286.486 82.6344C286.568 82.7597 286.708 82.8359 286.859 82.8369L286.845 82.8413C286.934 82.8428 287.021 82.8182 287.095 82.7708C287.299 82.6404 287.359 82.3736 287.231 82.1701C286.906 81.6596 286.56 81.1426 286.205 80.6299C286.054 80.4708 285.808 80.4443 285.627 80.5676C285.445 80.6909 285.381 80.9269 285.478 81.1228C285.561 81.2459 285.644 81.3693 285.728 81.4928C285.986 81.8746 286.245 82.257 286.486 82.6344ZM289.455 87.4775C289.284 87.4762 289.129 87.3788 289.056 87.2266C288.799 86.6919 288.525 86.1484 288.239 85.6115C288.132 85.4725 288.118 85.2841 288.204 85.1314C288.29 84.9786 288.46 84.8905 288.636 84.9068C288.812 84.9231 288.962 85.0408 289.018 85.2067C289.312 85.7546 289.593 86.3069 289.854 86.8592C289.952 87.0792 289.853 87.3357 289.631 87.4357C289.573 87.4651 289.508 87.4809 289.442 87.4819L289.455 87.4775ZM290.932 92.1181C290.988 92.3034 291.16 92.4311 291.356 92.4327V92.4305C291.493 92.4284 291.622 92.3638 291.705 92.2555C291.788 92.1471 291.815 92.0071 291.779 91.8761C291.61 91.2951 291.418 90.701 291.208 90.1157C291.178 89.9434 291.047 89.805 290.875 89.7632C290.703 89.7215 290.522 89.7843 290.414 89.9233C290.307 90.0623 290.293 90.251 290.379 90.404C290.582 90.9739 290.769 91.5504 290.932 92.1181ZM292.333 97.6411C292.101 97.642 291.907 97.4681 291.887 97.2406C291.838 96.6531 291.766 96.0524 291.664 95.4605C291.612 95.2956 291.662 95.116 291.793 95.0012C291.924 94.8865 292.111 94.8577 292.271 94.9277C292.431 94.9978 292.534 95.1536 292.536 95.3263C292.632 95.9402 292.705 96.5607 292.759 97.1702C292.776 97.4087 292.596 97.6167 292.355 97.6389L292.333 97.6411ZM292.114 102.922H292.176L292.163 102.935C292.389 102.938 292.582 102.774 292.611 102.552C292.701 101.941 292.768 101.32 292.805 100.704C292.845 100.534 292.779 100.357 292.637 100.253C292.496 100.149 292.305 100.137 292.151 100.223C291.997 100.308 291.909 100.476 291.927 100.649C291.889 101.241 291.826 101.842 291.739 102.429C291.707 102.667 291.874 102.886 292.114 102.922ZM290.814 108.038C290.759 108.038 290.706 108.028 290.655 108.009C290.431 107.92 290.319 107.672 290.403 107.448C290.626 106.889 290.82 106.319 290.992 105.752C291.086 105.554 291.313 105.454 291.525 105.517C291.737 105.58 291.87 105.786 291.837 106.003C291.657 106.592 291.452 107.182 291.226 107.763C291.161 107.939 290.99 108.054 290.8 108.051L290.814 108.038ZM288.121 112.683C288.192 112.729 288.275 112.754 288.36 112.753L288.355 112.767C288.509 112.764 288.65 112.685 288.73 112.555C289.071 112.034 289.397 111.497 289.696 110.964C289.774 110.76 289.688 110.531 289.495 110.425C289.301 110.319 289.059 110.369 288.924 110.542C288.634 111.057 288.32 111.576 287.99 112.082C287.861 112.285 287.919 112.551 288.121 112.683ZM285.052 116.934C284.941 116.935 284.834 116.893 284.753 116.817C284.578 116.653 284.567 116.381 284.729 116.204C285.146 115.763 285.552 115.306 285.933 114.848C286.097 114.702 286.345 114.697 286.516 114.836C286.686 114.975 286.728 115.216 286.613 115.403C286.221 115.871 285.804 116.34 285.375 116.795C285.292 116.889 285.173 116.943 285.048 116.945L285.052 116.934ZM280.683 120.229C280.744 120.402 280.907 120.52 281.093 120.525L281.088 120.536C281.188 120.534 281.285 120.5 281.362 120.437C281.851 120.059 282.339 119.663 282.81 119.255C282.961 119.09 282.963 118.84 282.816 118.673C282.668 118.505 282.417 118.472 282.23 118.595C281.771 118.991 281.296 119.379 280.82 119.746C280.677 119.863 280.622 120.055 280.683 120.229ZM276.06 122.886C276.068 123.129 276.273 123.32 276.52 123.313C276.874 123.313 277.749 122.858 278.405 122.446C278.572 122.385 278.687 122.231 278.696 122.055C278.705 121.879 278.606 121.715 278.446 121.638C278.285 121.561 278.094 121.585 277.959 121.7C277.499 121.997 277.008 122.243 276.493 122.433C276.247 122.44 276.053 122.643 276.06 122.886Z" fill="#F948A9"/>
<defs>
<linearGradient id="paint0_linear" x1="349.339" y1="233.7" x2="122.241" y2="233.7" gradientUnits="userSpaceOnUse">
<stop stop-color="white" stop-opacity="0.01"/>
<stop offset="0.12" stop-color="#D2DDE6" stop-opacity="0.18"/>
<stop offset="0.39" stop-color="#7899B4" stop-opacity="0.53"/>
<stop offset="0.63" stop-color="#366890" stop-opacity="0.79"/>
<stop offset="0.85" stop-color="#0E4A7A" stop-opacity="0.94"/>
<stop offset="1" stop-color="#003F72"/>
</linearGradient>
<linearGradient id="paint1_linear" x1="330.555" y1="257.375" x2="103.459" y2="257.375" gradientUnits="userSpaceOnUse">
<stop stop-color="white" stop-opacity="0.01"/>
<stop offset="0.12" stop-color="#D2DDE6" stop-opacity="0.18"/>
<stop offset="0.39" stop-color="#7899B4" stop-opacity="0.53"/>
<stop offset="0.63" stop-color="#366890" stop-opacity="0.79"/>
<stop offset="0.85" stop-color="#0E4A7A" stop-opacity="0.94"/>
<stop offset="1" stop-color="#003F72"/>
</linearGradient>
</defs>
</svg>
