<svg fill="none" height="22" viewBox="0 0 22 22" width="22" xmlns="http://www.w3.org/2000/svg">
	<path clip-rule="evenodd" d="M11.0197 0.0826416C4.95658 0.0826416 0.0400391 5.0821 0.0400391 11.2497C0.0400391 16.1837 3.18604 20.3697 7.54858 21.8463C8.09731 21.9497 8.29877 21.6041 8.29877 21.3091C8.29877 21.0428 8.28858 20.1631 8.28386 19.23C5.22931 19.9055 4.58477 17.9124 4.58477 17.9124C4.08531 16.6216 3.36568 16.2784 3.36568 16.2784C2.36949 15.5853 3.44077 15.5995 3.44077 15.5995C4.54331 15.6781 5.12386 16.7503 5.12386 16.7503C6.10313 18.4576 7.6924 17.964 8.31895 17.6787C8.41749 16.9571 8.70204 16.4641 9.01604 16.1854C6.57731 15.903 4.01368 14.9455 4.01368 10.6665C4.01368 9.44726 4.44258 8.45107 5.14495 7.66902C5.03095 7.38756 4.65513 6.25194 5.25131 4.71373C5.25131 4.71373 6.17331 4.41359 8.27149 5.85841C9.14731 5.61098 10.0866 5.4869 11.0197 5.48265C11.9528 5.4869 12.8928 5.61098 13.7702 5.85841C15.8659 4.41359 16.7866 4.71373 16.7866 4.71373C17.3842 6.25194 17.0082 7.38756 16.8942 7.66902C17.5982 8.45107 18.0242 9.44726 18.0242 10.6665C18.0242 14.9556 15.4557 15.9 13.0108 16.1765C13.4046 16.5231 13.7555 17.2027 13.7555 18.2445C13.7555 19.7385 13.7428 20.9411 13.7428 21.3091C13.7428 21.6063 13.9404 21.9545 14.4969 21.8448C18.8571 20.3665 21.9991 16.1821 21.9991 11.2497C21.9991 5.0821 17.0833 0.0826416 11.0197 0.0826416Z" fill="#272833" fill-rule="evenodd" />
	<path clip-rule="evenodd" d="M4.19858 16.1162C4.1744 16.1719 4.08858 16.1883 4.0104 16.1502C3.93077 16.1138 3.88604 16.0382 3.91186 15.9825C3.93549 15.9254 4.02149 15.9097 4.10095 15.9476C4.18077 15.9842 4.22622 16.0606 4.19858 16.1162Z" fill="#272833" fill-rule="evenodd" />
	<path clip-rule="evenodd" d="M4.64331 16.6207C4.59095 16.6701 4.48858 16.6471 4.41913 16.5691C4.34731 16.4913 4.33386 16.3871 4.38695 16.337C4.44095 16.2876 4.54022 16.3108 4.61222 16.3886C4.68404 16.4674 4.69804 16.5708 4.64331 16.6207Z" fill="#272833" fill-rule="evenodd" />
	<path clip-rule="evenodd" d="M5.07622 17.2639C5.00895 17.3114 4.89895 17.2668 4.83095 17.1675C4.76368 17.0682 4.76368 16.9491 4.8324 16.9014C4.90058 16.8537 5.00895 16.8966 5.07786 16.9952C5.14495 17.096 5.14495 17.2152 5.07622 17.2639Z" fill="#272833" fill-rule="evenodd" />
	<path clip-rule="evenodd" d="M5.66931 17.8852C5.60913 17.9527 5.48095 17.9346 5.38713 17.8425C5.29113 17.7524 5.2644 17.6247 5.32477 17.5572C5.38568 17.4895 5.51459 17.5085 5.60913 17.5999C5.7044 17.6898 5.73349 17.8185 5.66931 17.8852Z" fill="#272833" fill-rule="evenodd" />
	<path clip-rule="evenodd" d="M6.48749 18.246C6.46095 18.3335 6.33749 18.3732 6.21313 18.3361C6.08895 18.2978 6.00768 18.1953 6.03277 18.1069C6.05858 18.0189 6.18258 17.9775 6.30786 18.0173C6.43186 18.0553 6.51331 18.1571 6.48749 18.246Z" fill="#272833" fill-rule="evenodd" />
	<path clip-rule="evenodd" d="M7.38604 18.313C7.38913 18.405 7.28368 18.4814 7.15313 18.4829C7.02186 18.486 6.91568 18.4115 6.91422 18.3209C6.91422 18.2279 7.01731 18.1523 7.14858 18.15C7.27913 18.1474 7.38604 18.2214 7.38604 18.313Z" fill="#272833" fill-rule="evenodd" />
	<path clip-rule="evenodd" d="M8.22222 18.1682C8.23786 18.258 8.14713 18.3503 8.01749 18.3747C7.89004 18.3986 7.77204 18.3431 7.75586 18.254C7.74004 18.1619 7.8324 18.0696 7.95968 18.0457C8.08949 18.0228 8.20568 18.0768 8.22222 18.1682Z" fill="#272833" fill-rule="evenodd" />
</svg>