<svg fill="none" height="16" viewBox="0 0 22 16" width="22" xmlns="http://www.w3.org/2000/svg">
	<path d="M21.7809 3.59984C21.7809 3.59984 21.566 2.08304 20.9043 1.41703C20.0664 0.540466 19.1297 0.536169 18.7 0.484607C15.6234 0.261169 11.0043 0.261169 11.0043 0.261169H10.9957C10.9957 0.261169 6.37656 0.261169 3.3 0.484607C2.87031 0.536169 1.93359 0.540466 1.0957 1.41703C0.433984 2.08304 0.223438 3.59984 0.223438 3.59984C0.223438 3.59984 0 5.38304 0 7.16195V8.82914C0 10.608 0.219141 12.3912 0.219141 12.3912C0.219141 12.3912 0.433984 13.908 1.09141 14.5741C1.9293 15.4506 3.0293 15.4205 3.51914 15.5151C5.28086 15.6827 11 15.7342 11 15.7342C11 15.7342 15.6234 15.7256 18.7 15.5065C19.1297 15.4549 20.0664 15.4506 20.9043 14.5741C21.566 13.908 21.7809 12.3912 21.7809 12.3912C21.7809 12.3912 22 10.6123 22 8.82914V7.16195C22 5.38304 21.7809 3.59984 21.7809 3.59984ZM8.72695 10.853V4.66976L14.6695 7.77211L8.72695 10.853Z" fill="#272833" />
</svg>