<svg width="12" height="12" viewBox="0 0 12 12" fill="none" xmlns="http://www.w3.org/2000/svg">
    <path d="M10.5273 5.34018H3.08066L6.334 2.08685C6.594 1.82685 6.594 1.40018 6.334 1.14018C6.20944 1.01535 6.04034 0.94519 5.864 0.94519C5.68765 0.94519 5.51855 1.01535 5.394 1.14018L1.00066 5.53351C0.740664 5.79351 0.740664 6.21351 1.00066 6.47351L5.394 10.8668C5.654 11.1268 6.074 11.1268 6.334 10.8668C6.594 10.6068 6.594 10.1868 6.334 9.92685L3.08066 6.67351H10.5273C10.894 6.67351 11.194 6.37351 11.194 6.00685C11.194 5.64018 10.894 5.34018 10.5273 5.34018Z" fill="#77a3f7"/>
</svg>