<svg width="14" height="13" viewBox="0 0 14 13" fill="none" xmlns="http://www.w3.org/2000/svg">
<path fill-rule="evenodd" clip-rule="evenodd" d="M4.02888 2.35972C5.52601 0.260094 9.68873 0.552217 11.9344 2.57882C16.1702 6.39467 10.6746 15.7974 5.52601 12.0363C5.39817 11.945 5.27037 11.8537 5.14257 11.7442C3.51764 10.3383 2.20308 8.34823 3.59067 3.27261C3.68195 2.92571 3.84627 2.63359 4.02888 2.35972Z" fill="#1AA0E8"/>
<path fill-rule="evenodd" clip-rule="evenodd" d="M4.02887 2.35934C8.3559 0.588348 13.7784 4.84238 9.5609 9.57111C8.575 10.6666 7.04136 11.6342 5.52597 12.0359C4.43054 12.328 3.33508 12.3098 2.47699 11.8168C0.413875 10.6666 -0.0973399 6.57686 1.49107 4.38594C2.22137 3.40002 3.09775 2.74275 4.02887 2.35934Z" fill="#0B63CE"/>
<path d="M9.5609 9.57111C13.7784 4.84238 8.3559 0.588348 4.02885 2.35934C3.84627 2.6332 3.68195 2.92533 3.59067 3.27222C2.20309 8.34785 3.51763 10.3379 5.14256 11.7438C5.27036 11.8533 5.39817 11.9446 5.52597 12.0359C7.04135 11.6342 8.57499 10.6666 9.5609 9.57111Z" fill="#134194"/>
</svg>
