<svg width="16" height="16" viewBox="0 0 16 16" fill="none" xmlns="http://www.w3.org/2000/svg">
<mask id="mask0" style="mask-type:alpha" maskUnits="userSpaceOnUse" x="2" y="2" width="12" height="12">
<path d="M12.5276 7.3364H5.08091L8.33424 4.08306C8.59424 3.82306 8.59424 3.3964 8.33424 3.1364C8.20969 3.01156 8.04059 2.94141 7.86424 2.94141C7.6879 2.94141 7.5188 3.01156 7.39424 3.1364L3.00091 7.52973C2.74091 7.78973 2.74091 8.20973 3.00091 8.46973L7.39424 12.8631C7.65424 13.1231 8.07424 13.1231 8.33424 12.8631C8.59424 12.6031 8.59424 12.1831 8.33424 11.9231L5.08091 8.66973H12.5276C12.8942 8.66973 13.1942 8.36973 13.1942 8.00306C13.1942 7.6364 12.8942 7.3364 12.5276 7.3364Z" fill="black"/>
</mask>
<g mask="url(#mask0)">
<rect width="16" height="16" fill="#7D7E85"/>
</g>
</svg>
