<svg fill="none" height="12" viewBox="0 0 12 12" width="12" xmlns="http://www.w3.org/2000/svg">
	<mask height="12" id="mask0" mask-type="alpha" maskUnits="userSpaceOnUse" width="8" x="2" y="0">
		<path clip-rule="evenodd" d="M8 0.5H4C3.17 0.5 2.5 1.17 2.5 2V10C2.5 10.83 3.17 11.5 4 11.5H8C8.83 11.5 9.5 10.83 9.5 10V2C9.5 1.17 8.83 0.5 8 0.5ZM6.75 10.5H5.25C5.11 10.5 5 10.39 5 10.25C5 10.11 5.11 10 5.25 10H6.75C6.89 10 7 10.11 7 10.25C7 10.39 6.89 10.5 6.75 10.5ZM3.5 9H8.5V2H3.5V9Z" fill="black" fill-rule="evenodd" />
	</mask>
	<g mask="url(#mask0)">
		<rect fill="#4C85FF" height="12" width="12" />
	</g>
</svg>