<svg width="12" height="12" viewBox="0 0 12 12" fill="none" xmlns="http://www.w3.org/2000/svg">
<mask id="mask0" mask-type="alpha" maskUnits="userSpaceOnUse" x="2" y="0" width="8" height="12">
<path fill-rule="evenodd" clip-rule="evenodd" d="M8 0.5H4C3.17 0.5 2.5 1.17 2.5 2V10C2.5 10.83 3.17 11.5 4 11.5H8C8.83 11.5 9.5 10.83 9.5 10V2C9.5 1.17 8.83 0.5 8 0.5ZM6.75 10.5H5.25C5.11 10.5 5 10.39 5 10.25C5 10.11 5.11 10 5.25 10H6.75C6.89 10 7 10.11 7 10.25C7 10.39 6.89 10.5 6.75 10.5ZM3.5 9H8.5V2H3.5V9Z" fill="black"/>
</mask>
<g mask="url(#mask0)">
<rect width="12" height="12" fill="#4C85FF"/>
</g>
</svg>
