<svg fill="none" height="16" viewBox="0 0 20 20" width="16" xmlns="http://www.w3.org/2000/svg">
	<mask height="16" id="mask0" mask-type="alpha" maskUnits="userSpaceOnUse" width="16" x="1" y="1">
		<path clip-rule="evenodd" d="M3.33317 1.66666H16.6665C17.5832 1.66666 18.3332 2.41666 18.3332 3.33333V13.3333C18.3332 14.25 17.5832 15 16.6665 15H4.99984L1.6665 18.3333L1.67484 3.33333C1.67484 2.41666 2.4165 1.66666 3.33317 1.66666ZM11.6665 9L13.6498 10.5833C14.1915 11.0167 14.9998 10.6333 14.9998 9.93333V6.73333C14.9998 6.03333 14.1915 5.65 13.6498 6.08333L11.6665 7.66666V5.83333C11.6665 5.375 11.2915 5 10.8332 5H5.83317C5.37484 5 4.99984 5.375 4.99984 5.83333V10.8333C4.99984 11.2917 5.37484 11.6667 5.83317 11.6667H10.8332C11.2915 11.6667 11.6665 11.2917 11.6665 10.8333V9Z" fill="black" fill-rule="evenodd" />
	</mask>
	<g mask="url(#mask0)">
		<rect fill="#4C85FF" height="16" width="16" />
	</g>
</svg>