<svg fill="none" height="56" viewBox="0 0 56 56" width="56" xmlns="http://www.w3.org/2000/svg">
	<rect fill="#A7A9BC" height="16" rx="2" width="16" x="20" y="40" />
	<path clip-rule="evenodd" d="M48 2C47.1716 2 46.5 2.67157 46.5 3.5V6.5H43.5C42.6716 6.5 42 7.17157 42 8C42 8.82843 42.6716 9.5 43.5 9.5H46.5V12.5C46.5 13.3284 47.1716 14 48 14C48.8284 14 49.5 13.3284 49.5 12.5V9.5H52.5C53.3284 9.5 54 8.82843 54 8C54 7.17157 53.3284 6.5 52.5 6.5H49.5V3.5C49.5 2.67157 48.8284 2 48 2Z" fill="#6B6C7E" fill-rule="evenodd" />
	<rect fill="#A7A9BC" height="16" rx="2" width="16" x="20" y="20" />
	<rect fill="#A7A9BC" height="16" rx="2" width="16" x="20" />
	<rect fill="#A7A9BC" height="16" rx="2" width="16" x="40" y="40" />
	<rect fill="#A7A9BC" height="16" rx="2" width="16" x="40" y="20" />
	<rect fill="#A7A9BC" height="16" rx="2" width="16" y="40" />
	<rect fill="#A7A9BC" height="16" rx="2" width="16" y="20" />
	<rect fill="#A7A9BC" height="16" rx="2" width="16" />
</svg>