<svg fill="none" height="56" viewBox="0 0 56 56" width="56" xmlns="http://www.w3.org/2000/svg">
	<path d="M-6.11959e-07 42L-8.74228e-08 54C-6.42368e-08 54.5304 0.210714 55.0391 0.585786 55.4142C0.960859 55.7893 1.46957 56 2 56L14 56C14.5304 56 15.0391 55.7893 15.4142 55.4142C15.7893 55.0391 16 54.5304 16 54L16 42C16 41.4696 15.7893 40.9609 15.4142 40.5858C15.0391 40.2107 14.5304 40 14 40L2 40C1.46957 40 0.960858 40.2107 0.585786 40.5858C0.210713 40.9609 -6.35145e-07 41.4696 -6.11959e-07 42ZM-1.48619e-06 22L-9.61651e-07 34C-9.38465e-07 34.5304 0.210713 35.0391 0.585785 35.4142C0.960858 35.7893 1.46957 36 2 36L14 36C14.5304 36 15.0391 35.7893 15.4142 35.4142C15.7893 35.0391 16 34.5304 16 34L16 22C16 21.4696 15.7893 20.9609 15.4142 20.5858C15.0391 20.2107 14.5304 20 14 20L2 20C1.46957 20 0.960857 20.2107 0.585785 20.5858C0.210712 20.9609 -1.50937e-06 21.4696 -1.48619e-06 22ZM20 42L20 54C20 54.5304 20.2107 55.0391 20.5858 55.4142C20.9609 55.7893 21.4696 56 22 56L34 56C34.5304 56 35.0391 55.7893 35.4142 55.4142C35.7893 55.0391 36 54.5304 36 54L36 42C36 41.4696 35.7893 40.9609 35.4142 40.5858C35.0391 40.2107 34.5304 40 34 40L22 40C21.4696 40 20.9609 40.2107 20.5858 40.5858C20.2107 40.9609 20 41.4696 20 42Z" fill="#A7A9BC" />
	<rect height="15" rx="1.5" stroke="#A7A9BC" stroke-dasharray="3 3" width="15" x="0.5" y="0.5" />
	<path clip-rule="evenodd" d="M48 2C47.1716 2 46.5 2.67157 46.5 3.5V6.5H43.5C42.6716 6.5 42 7.17157 42 8C42 8.82843 42.6716 9.5 43.5 9.5H46.5V12.5C46.5 13.3284 47.1716 14 48 14C48.8284 14 49.5 13.3284 49.5 12.5V9.5H52.5C53.3284 9.5 54 8.82843 54 8C54 7.17157 53.3284 6.5 52.5 6.5H49.5V3.5C49.5 2.67157 48.8284 2 48 2Z" fill="#6B6C7E" fill-rule="evenodd" />
	<rect height="15" rx="1.5" stroke="#A7A9BC" stroke-dasharray="3 3" width="15" x="20.5" y="0.5" />
	<rect height="15" rx="1.5" stroke="#A7A9BC" stroke-dasharray="3 3" width="15" x="20.5" y="20.5" />
	<rect height="15" rx="1.5" stroke="#A7A9BC" stroke-dasharray="3 3" width="15" x="40.5" y="20.5" />
	<rect height="15" rx="1.5" stroke="#A7A9BC" stroke-dasharray="3 3" width="15" x="40.5" y="40.5" />
</svg>