<svg width="20" height="20" viewBox="0 0 20 20" fill="none" xmlns="http://www.w3.org/2000/svg">
<mask id="mask0" mask-type="alpha" maskUnits="userSpaceOnUse" x="1" y="1" width="18" height="18">
<path fill-rule="evenodd" clip-rule="evenodd" d="M10.0003 1.66667C5.40033 1.66667 1.66699 5.40001 1.66699 10C1.66699 14.6 5.40033 18.3333 10.0003 18.3333C14.6003 18.3333 18.3337 14.6 18.3337 10C18.3337 5.40001 14.6003 1.66667 10.0003 1.66667ZM10.0003 16.6667C6.32533 16.6667 3.33366 13.675 3.33366 10C3.33366 6.32501 6.32533 3.33334 10.0003 3.33334C13.6753 3.33334 16.667 6.32501 16.667 10C16.667 13.675 13.6753 16.6667 10.0003 16.6667ZM8.33366 11.8083L13.2337 6.90834C13.5587 6.58334 14.092 6.58334 14.417 6.90834C14.742 7.23334 14.742 7.75834 14.417 8.08334L8.92533 13.575C8.60033 13.9 8.07533 13.9 7.75033 13.575L5.59199 11.4167C5.26699 11.0917 5.26699 10.5667 5.59199 10.2417C5.74769 10.0856 5.95906 9.99793 6.17949 9.99793C6.39992 9.99793 6.6113 10.0856 6.76699 10.2417L8.33366 11.8083Z" fill="black"/>
</mask>
<g mask="url(#mask0)">
<rect width="20" height="20" fill="#98999B"/>
</g>
</svg>
