<svg xmlns="http://www.w3.org/2000/svg" version="1.1" xmlns:xlink="http://www.w3.org/1999/xlink" xmlns:svgjs="http://svgjs.com/svgjs" width="1444" height="560" preserveAspectRatio="none" viewBox="0 0 1444 560"><g mask="url(&quot;#SvgjsMask1000&quot;)" fill="none"><rect width="60" height="60" clip-path="url(&quot;#SvgjsClipPath1001&quot;)" x="814.1" y="511.54" fill="url(#SvgjsPattern1002)" transform="rotate(326.61, 844.1, 541.54)"></rect><path d="M876.62 465.62 L820.52 513.92L876.5841792300381 517.7841792300381z" fill="rgba(36, 60, 147, 1)"></path><path d="M154.83 417.08L151.53 429.45 138.73 428.94 135.43 441.31 122.63 440.81 119.33 453.18 106.53 452.67M150.09 410.64L146.78 423.01 133.99 422.5 130.68 434.87 117.89 434.37 114.58 446.74 101.79 446.23" stroke="rgba(187, 237, 220, 1)" stroke-width="2.3"></path><path d="M1083.01 618.79 L1138.55 526.1899999999999L1036.1682635088712 497.8782635088713z" stroke="rgba(36, 60, 147, 1)" stroke-width="1" stroke-dasharray="2, 2"></path><rect width="329.28" height="329.28" clip-path="url(&quot;#SvgjsClipPath1003&quot;)" x="779.53" y="152.62" fill="url(#SvgjsPattern1004)" transform="rotate(85.16, 944.17, 317.26)"></rect><rect width="338.56" height="338.56" clip-path="url(&quot;#SvgjsClipPath1005&quot;)" x="95.39" y="331.54" fill="url(#SvgjsPattern1006)" transform="rotate(111.51, 264.67, 500.82)"></rect><rect width="93.4" height="93.4" clip-path="url(&quot;#SvgjsClipPath1007&quot;)" x="1352.94" y="278.85" fill="url(#SvgjsPattern1008)" transform="rotate(175.7, 1399.64, 325.55)"></rect><path d="M613.06 403.26a5.6 5.6 0 1 0 11.14-1.17 5.6 5.6 0 1 0-11.14 1.17zM628.98 401.59a5.6 5.6 0 1 0 11.13-1.17 5.6 5.6 0 1 0-11.13 1.17zM644.89 399.91a5.6 5.6 0 1 0 11.14-1.17 5.6 5.6 0 1 0-11.14 1.17zM660.8 398.24a5.6 5.6 0 1 0 11.14-1.17 5.6 5.6 0 1 0-11.14 1.17zM582.91 422.52a5.6 5.6 0 1 0 11.14-1.18 5.6 5.6 0 1 0-11.14 1.18zM598.82 420.84a5.6 5.6 0 1 0 11.14-1.17 5.6 5.6 0 1 0-11.14 1.17zM614.74 419.17a5.6 5.6 0 1 0 11.13-1.17 5.6 5.6 0 1 0-11.13 1.17zM630.65 417.5a5.6 5.6 0 1 0 11.14-1.17 5.6 5.6 0 1 0-11.14 1.17zM552.76 441.77a5.6 5.6 0 1 0 11.14-1.17 5.6 5.6 0 1 0-11.14 1.17zM568.67 440.1a5.6 5.6 0 1 0 11.14-1.17 5.6 5.6 0 1 0-11.14 1.17zM584.58 438.43a5.6 5.6 0 1 0 11.14-1.17 5.6 5.6 0 1 0-11.14 1.17zM600.5 436.76a5.6 5.6 0 1 0 11.13-1.18 5.6 5.6 0 1 0-11.13 1.18z" stroke="rgba(79, 191, 163, 1)" stroke-width="1.96" stroke-dasharray="4, 4"></path><rect width="126.8" height="126.8" clip-path="url(&quot;#SvgjsClipPath1009&quot;)" x="300.75" y="150.74" fill="url(#SvgjsPattern1010)" transform="rotate(87.65, 364.15, 214.14)"></rect><circle r="46.666666666666664" cx="265.02" cy="238.46" stroke="rgba(79, 191, 163, 1)" stroke-width="1"></circle><path d="M1308.1399999999999 356.05 L1327.05 314.69L1339.2111273215942 356.9861273215944z" fill="rgba(79, 191, 163, 1)"></path><path d="M778.79 538.96L791.56 538.06 795.25 550.32 808.02 549.42 811.7 561.69 824.48 560.79 828.16 573.05M774.24 545.54L787.02 544.64 790.7 556.9 803.47 556 807.16 568.27 819.93 567.37 823.61 579.64M769.7 552.12L782.47 551.22 786.15 563.49 798.93 562.59 802.61 574.85 815.38 573.95 819.07 586.22" stroke="rgba(79, 191, 163, 1)" stroke-width="1"></path></g><defs><mask id="SvgjsMask1000"><rect width="1444" height="560" fill="#ffffff"></rect></mask><pattern x="0" y="0" width="6" height="6" patternUnits="userSpaceOnUse" id="SvgjsPattern1002"><path d="M0 6L3 0L6 6" stroke="rgba(187, 237, 220, 1)" fill="none"></path></pattern><clipPath id="SvgjsClipPath1001"><circle r="15" cx="844.1" cy="541.54"></circle></clipPath><pattern x="0" y="0" width="11.76" height="11.76" patternUnits="userSpaceOnUse" id="SvgjsPattern1004"><path d="M5.88 1L5.88 10.76M1 5.88L10.76 5.88" stroke="rgba(36, 60, 147, 1)" fill="none" stroke-width="1.5"></path></pattern><clipPath id="SvgjsClipPath1003"><circle r="82.32" cx="944.17" cy="317.26"></circle></clipPath><pattern x="0" y="0" width="7.36" height="7.36" patternUnits="userSpaceOnUse" id="SvgjsPattern1006"><path d="M3.68 1L3.68 6.36M1 3.68L6.36 3.68" stroke="rgba(36, 60, 147, 1)" fill="none" stroke-width="2.16"></path></pattern><clipPath id="SvgjsClipPath1005"><circle r="84.64" cx="264.67" cy="500.82"></circle></clipPath><pattern x="0" y="0" width="9.34" height="9.34" patternUnits="userSpaceOnUse" id="SvgjsPattern1008"><path d="M4.67 1L4.67 8.34M1 4.67L8.34 4.67" stroke="rgba(79, 191, 163, 1)" fill="none" stroke-width="3.09"></path></pattern><clipPath id="SvgjsClipPath1007"><circle r="23.35" cx="1399.64" cy="325.55"></circle></clipPath><pattern x="0" y="0" width="12.68" height="12.68" patternUnits="userSpaceOnUse" id="SvgjsPattern1010"><path d="M0 12.68L6.34 0L12.68 12.68" stroke="rgba(36, 60, 147, 1)" fill="none"></path></pattern><clipPath id="SvgjsClipPath1009"><circle r="31.7" cx="364.15" cy="214.14"></circle></clipPath></defs></svg>