<svg width="32" height="32" viewBox="0 0 32 32" fill="none" xmlns="http://www.w3.org/2000/svg">
<circle cx="16" cy="16" r="16" fill="#393A4A"/>
<path fill-rule="evenodd" clip-rule="evenodd" d="M10.4738 17.7407C11.1615 17.0531 12.0941 16.6667 13.0666 16.6667H18.9332C19.9057 16.6667 20.8383 17.0531 21.526 17.7407C22.2136 18.4283 22.5999 19.361 22.5999 20.3334V21.8001C22.5999 22.2051 22.2716 22.5334 21.8666 22.5334C21.4616 22.5334 21.1332 22.2051 21.1332 21.8001V20.3334C21.1332 19.7499 20.9015 19.1904 20.4889 18.7778C20.0763 18.3652 19.5167 18.1334 18.9332 18.1334H13.0666C12.4831 18.1334 11.9235 18.3652 11.5109 18.7778C11.0984 19.1904 10.8666 19.7499 10.8666 20.3334V21.8001C10.8666 22.2051 10.5382 22.5334 10.1332 22.5334C9.72823 22.5334 9.3999 22.2051 9.3999 21.8001V20.3334C9.3999 19.361 9.78621 18.4283 10.4738 17.7407Z" fill="white"/>
<path fill-rule="evenodd" clip-rule="evenodd" d="M15.9999 9.33337C14.7849 9.33337 13.7999 10.3183 13.7999 11.5334C13.7999 12.7484 14.7849 13.7334 15.9999 13.7334C17.2149 13.7334 18.1999 12.7484 18.1999 11.5334C18.1999 10.3183 17.2149 9.33337 15.9999 9.33337ZM12.3333 11.5334C12.3333 9.50832 13.9749 7.8667 15.9999 7.8667C18.025 7.8667 19.6666 9.50832 19.6666 11.5334C19.6666 13.5584 18.025 15.2 15.9999 15.2C13.9749 15.2 12.3333 13.5584 12.3333 11.5334Z" fill="white"/>
</svg>
