<svg fill="none" height="20" viewBox="0 0 20 20" width="20" xmlns="http://www.w3.org/2000/svg">
	<mask height="18" id="mask0" mask-type="alpha" maskUnits="userSpaceOnUse" width="18" x="1" y="1">
		<path clip-rule="evenodd" d="M10.0003 1.66666C5.40033 1.66666 1.66699 5.4 1.66699 10C1.66699 14.6 5.40033 18.3333 10.0003 18.3333C14.6003 18.3333 18.3337 14.6 18.3337 10C18.3337 5.4 14.6003 1.66666 10.0003 1.66666ZM9.16699 15.8333V14.1667H10.8337V15.8333H9.16699ZM11.8087 10.1417L12.5587 9.375C13.4087 8.525 13.7003 7.06666 12.717 5.70833C11.967 4.66666 10.7587 4.00833 9.49199 4.20833C8.20033 4.40833 7.15866 5.34166 6.80033 6.56666C6.66699 7.03333 7.00033 7.5 7.48366 7.5H7.73366C8.05866 7.5 8.31699 7.26666 8.41699 6.95833C8.69199 6.16666 9.55033 5.64166 10.4753 5.9C11.0587 6.06666 11.5253 6.575 11.6337 7.175C11.742 7.75833 11.5587 8.30833 11.1753 8.675L10.142 9.725C9.79199 10.075 9.51699 10.5083 9.35033 10.9917C9.23366 11.3333 9.16699 11.7 9.16699 12.0833V12.5H10.8337C10.8337 12.1167 10.8753 11.8167 10.942 11.55C11.092 10.95 11.392 10.5667 11.8087 10.1417Z" fill="black" fill-rule="evenodd" />
	</mask>
	<g mask="url(#mask0)">
		<rect fill="#98999B" height="20" width="20" />
	</g>
</svg>