<svg fill="none" height="18" viewBox="0 0 20 18" width="20" xmlns="http://www.w3.org/2000/svg">
	<path clip-rule="evenodd" d="M17.8492 7.14215C16.2592 8.73215 14.1092 9.23215 12.5792 8.52215L11.1092 9.99214L17.2892 16.1721C17.6792 16.5621 17.6792 17.1921 17.2892 17.5821C16.8992 17.9721 16.2692 17.9721 15.8792 17.5821L9.69922 11.4021L3.50922 17.5721C3.11922 17.9621 2.48922 17.9621 2.09922 17.5721C1.70922 17.1821 1.70922 16.5521 2.09922 16.1621L11.1592 7.10215C10.4492 5.57215 10.9492 3.42214 12.5392 1.83214C14.4592 -0.077855 17.1992 -0.437855 18.6592 1.02214C20.1292 2.49215 19.7592 5.23215 17.8492 7.14215ZM8.62922 7.50214L5.79922 10.3321L1.60922 6.15214C0.379221 4.91215 0.119221 3.08214 0.829221 1.59214C1.12922 0.972145 1.95922 0.842145 2.43922 1.32214L8.62922 7.50214Z" fill="#4D85FF" fill-rule="evenodd" />
</svg>