<svg fill="none" height="16" viewBox="0 0 14 16" width="14" xmlns="http://www.w3.org/2000/svg">
	<path clip-rule="evenodd" d="M4.19435 14.9788L4.45402 13.3067L3.87556 13.2931H1.11328L3.03297 0.954267C3.03895 0.916904 3.05828 0.882219 3.08652 0.857545C3.11489 0.832871 3.15105 0.819336 3.18888 0.819336H7.84651C9.39288 0.819336 10.46 1.14545 11.017 1.78923C11.2782 2.09124 11.4446 2.40693 11.5251 2.75419C11.6095 3.11866 11.6109 3.55405 11.5286 4.08518L11.5226 4.12381V4.46417L11.7838 4.61419C12.0037 4.73248 12.1785 4.86783 12.3126 5.02279C12.536 5.28109 12.6805 5.60932 12.7416 5.99832C12.8047 6.39846 12.7838 6.87474 12.6805 7.4139C12.5613 8.03399 12.3687 8.57414 12.1084 9.01601C11.8692 9.4232 11.5643 9.76103 11.2023 10.0227C10.8566 10.2714 10.4461 10.4602 9.98178 10.581C9.53183 10.6998 9.01887 10.7597 8.45627 10.7597H8.0938C7.83468 10.7597 7.58294 10.8543 7.38529 11.0239C7.18709 11.197 7.05607 11.4336 7.01588 11.6924L6.98848 11.8429L6.52963 14.7901L6.5089 14.8983C6.50334 14.9325 6.49388 14.9496 6.47997 14.9612C6.46759 14.9717 6.44979 14.9788 6.4324 14.9788H4.19435" fill="#28356A" fill-rule="evenodd" />
	<path clip-rule="evenodd" d="M12.0299 4.16309C12.0161 4.25318 12.0001 4.34525 11.9823 4.43986C11.3681 7.63675 9.26662 8.74115 6.58278 8.74115H5.21625C4.888 8.74115 4.61136 8.98268 4.56031 9.31091L3.6625 15.0839C3.62926 15.2995 3.7931 15.4936 4.00758 15.4936H6.43132C6.71825 15.4936 6.96207 15.2823 7.00728 14.9954L7.03106 14.8706L7.48741 11.9349L7.51675 11.7739C7.5614 11.486 7.80578 11.2745 8.09272 11.2745H8.45518C10.8034 11.2745 12.6417 10.3082 13.179 7.51141C13.4034 6.34313 13.2872 5.3676 12.6933 4.68152C12.5136 4.47468 12.2907 4.30295 12.0299 4.16309" fill="#298FC2" fill-rule="evenodd" />
	<path clip-rule="evenodd" d="M11.3877 3.90316C11.2938 3.87539 11.197 3.85029 11.0977 3.82759C10.9978 3.80545 10.8956 3.78586 10.7903 3.76865C10.4218 3.70831 10.0181 3.67969 9.58564 3.67969H5.93501C5.84502 3.67969 5.75962 3.70027 5.68326 3.73749C5.51483 3.81955 5.38979 3.98113 5.35947 4.17895L4.5828 9.16533L4.56055 9.3107C4.61159 8.98246 4.88824 8.74094 5.21648 8.74094H6.58302C9.26685 8.74094 11.3683 7.63597 11.9825 4.43964C12.0009 4.34504 12.0163 4.25297 12.0301 4.16287C11.8747 4.07926 11.7064 4.00778 11.5252 3.94687C11.4804 3.93178 11.4343 3.91726 11.3877 3.90316" fill="#22284F" fill-rule="evenodd" />
	<path clip-rule="evenodd" d="M5.3598 4.17907C5.39012 3.98125 5.51516 3.81967 5.68359 3.73818C5.76051 3.70082 5.84535 3.68023 5.93534 3.68023H9.58597C10.0184 3.68023 10.4222 3.70899 10.7906 3.76934C10.8959 3.7864 10.9981 3.80614 11.098 3.82827C11.1973 3.85083 11.2941 3.87607 11.388 3.90371C11.4346 3.91781 11.4808 3.93247 11.526 3.94699C11.7072 4.0079 11.8756 4.07995 12.031 4.16299C12.2138 2.98161 12.0295 2.17724 11.3994 1.44886C10.7047 0.64689 9.45092 0.303711 7.84654 0.303711H3.18878C2.86109 0.303711 2.58152 0.545233 2.5309 0.874031L0.590902 13.3397C0.552653 13.5863 0.740282 13.8088 0.985633 13.8088H3.86113L5.3598 4.17907" fill="#28356A" fill-rule="evenodd" />
</svg>