<svg fill="none" height="20" viewBox="0 0 18 20" width="18" xmlns="http://www.w3.org/2000/svg">
	<path clip-rule="evenodd" d="M8.99974 0.52002C6.00974 0.52002 3.27974 1.60002 1.16974 3.40002C0.459744 4.01002 0.309744 5.05002 0.769744 5.86002L8.12974 18.97C8.50974 19.65 9.48974 19.65 9.86974 18.97L17.2297 5.86002C17.6897 5.05002 17.5397 4.00002 16.8297 3.40002C14.7297 1.61002 11.9897 0.52002 8.99974 0.52002ZM3.99974 5.52002C3.99974 4.42002 4.89974 3.52002 5.99974 3.52002C7.09974 3.52002 7.99974 4.42002 7.99974 5.52002C7.99974 6.62002 7.09974 7.52002 5.99974 7.52002C4.89974 7.52002 3.99974 6.62002 3.99974 5.52002ZM6.99974 11.52C6.99974 12.62 7.89974 13.52 8.99974 13.52C10.0997 13.52 10.9997 12.62 10.9997 11.52C10.9997 10.42 10.0997 9.52002 8.99974 9.52002C7.89974 9.52002 6.99974 10.42 6.99974 11.52Z" fill="#4D85FF" fill-rule="evenodd" />
</svg>