<svg fill="none" height="26" viewBox="0 0 203 26" width="203" xmlns="http://www.w3.org/2000/svg">
	<mask fill="black" height="17" id="path-1-outside-1_358_6393" maskUnits="userSpaceOnUse" width="160" x="43" y="4.3999">
		<rect fill="white" height="17" width="160" x="43" y="4.3999" />
		<path d="M49.0992 7.24834H44V5.3999H56.3017V7.24834H51.2025V20.2724H49.0992V7.24834Z" />
		<path d="M67.5459 14.7059C67.5459 14.8617 67.5317 15.067 67.5034 15.322H58.3674C58.4949 16.3135 58.9269 17.1138 59.6635 17.7228C60.4142 18.3177 61.3419 18.6152 62.4467 18.6152C63.7923 18.6152 64.8759 18.1619 65.6974 17.2554L66.8235 18.5727C66.3136 19.1676 65.6762 19.6209 64.9113 19.9325C64.1606 20.2441 63.3178 20.3999 62.383 20.3999C61.1932 20.3999 60.138 20.1591 59.2173 19.6775C58.2966 19.1818 57.5813 18.4948 57.0714 17.6166C56.5756 16.7384 56.3278 15.7469 56.3278 14.6421C56.3278 13.5515 56.5686 12.567 57.0501 11.6889C57.5459 10.8107 58.2187 10.1308 59.0686 9.64919C59.9326 9.15344 60.9028 8.90557 61.9793 8.90557C63.0558 8.90557 64.0119 9.15344 64.8476 9.64919C65.6974 10.1308 66.3561 10.8107 66.8235 11.6889C67.3051 12.567 67.5459 13.5727 67.5459 14.7059ZM61.9793 10.6265C61.002 10.6265 60.1805 10.924 59.5147 11.5189C58.8632 12.1138 58.4807 12.8928 58.3674 13.856H65.5912C65.4779 12.907 65.0884 12.135 64.4227 11.5401C63.7711 10.9311 62.9567 10.6265 61.9793 10.6265Z" />
		<path d="M74.3799 8.90557C75.938 8.90557 77.1278 9.288 77.9493 10.0529C78.785 10.8177 79.2029 11.958 79.2029 13.4736V20.2724H77.2695V18.7852C76.9295 19.3092 76.4409 19.7129 75.8035 19.9962C75.1802 20.2653 74.4366 20.3999 73.5726 20.3999C72.312 20.3999 71.2992 20.0954 70.5343 19.4863C69.7836 18.8772 69.4083 18.077 69.4083 17.0855C69.4083 16.094 69.7695 15.3008 70.4918 14.7059C71.2142 14.0968 72.3615 13.7923 73.9338 13.7923H77.1632V13.3886C77.1632 12.5104 76.9083 11.8376 76.3984 11.3702C75.8884 10.9027 75.1377 10.669 74.1462 10.669C73.4805 10.669 72.829 10.7823 72.1916 11.009C71.5542 11.2214 71.0159 11.5118 70.5768 11.8801L69.727 10.3503C70.3077 9.88291 71.0018 9.5288 71.8091 9.288C72.6165 9.03305 73.4734 8.90557 74.3799 8.90557ZM73.9125 18.8277C74.6916 18.8277 75.3644 18.6577 75.9309 18.3177C76.4975 17.9636 76.9083 17.4679 77.1632 16.8305V15.2583H74.0188C72.2907 15.2583 71.4267 15.839 71.4267 17.0005C71.4267 17.567 71.6462 18.0132 72.0853 18.339C72.5244 18.6648 73.1335 18.8277 73.9125 18.8277Z" />
		<path d="M97.2763 8.90557C98.6928 8.90557 99.8117 9.31633 100.633 10.1379C101.469 10.9594 101.887 12.1775 101.887 13.7923V20.2724H99.8471V14.026C99.8471 12.9353 99.5922 12.1138 99.0823 11.5614C98.5865 11.009 97.8712 10.7328 96.9364 10.7328C95.9024 10.7328 95.0809 11.0585 94.4718 11.7101C93.8627 12.3475 93.5582 13.2682 93.5582 14.4721V20.2724H91.5185V14.026C91.5185 12.9353 91.2636 12.1138 90.7537 11.5614C90.2579 11.009 89.5426 10.7328 88.6078 10.7328C87.5738 10.7328 86.7522 11.0585 86.1432 11.7101C85.5341 12.3475 85.2296 13.2682 85.2296 14.4721V20.2724H83.1899V9.0118H85.1446V10.6903C85.5554 10.1095 86.0936 9.67044 86.7593 9.37299C87.425 9.06138 88.1828 8.90557 89.0327 8.90557C89.9109 8.90557 90.6899 9.08262 91.3698 9.43673C92.0497 9.79084 92.5738 10.3078 92.942 10.9877C93.367 10.3362 93.9548 9.82625 94.7055 9.45798C95.4704 9.0897 96.3273 8.90557 97.2763 8.90557Z" />
		<path d="M122.224 18.424V20.2724H111.431V5.3999H121.926V7.24834H113.555V11.8163H121.013V13.6223H113.555V18.424H122.224Z" />
		<path d="M132.511 20.2724L129.261 15.9594L125.968 20.2724H123.694L128.135 14.5146L123.907 9.0118H126.18L129.282 13.0699L132.363 9.0118H134.594L130.344 14.5146L134.827 20.2724H132.511Z" />
		<path d="M143.597 19.6138C143.299 19.8687 142.931 20.067 142.492 20.2087C142.053 20.3362 141.6 20.3999 141.132 20.3999C139.999 20.3999 139.121 20.0954 138.498 19.4863C137.875 18.8772 137.563 18.0061 137.563 16.873V10.6903H135.651V9.0118H137.563V6.54721H139.603V9.0118H142.832V10.6903H139.603V16.788C139.603 17.3971 139.751 17.8645 140.049 18.1903C140.36 18.516 140.799 18.6789 141.366 18.6789C141.989 18.6789 142.52 18.5019 142.96 18.1478L143.597 19.6138Z" />
		<path d="M148.23 10.9027C148.584 10.2512 149.108 9.75543 149.802 9.41548C150.496 9.07554 151.339 8.90557 152.331 8.90557V10.8815C152.217 10.8673 152.061 10.8602 151.863 10.8602C150.758 10.8602 149.887 11.1931 149.25 11.8588C148.627 12.5104 148.315 13.4452 148.315 14.6634V20.2724H146.275V9.0118H148.23V10.9027Z" />
		<path d="M159.137 8.90557C160.695 8.90557 161.885 9.288 162.706 10.0529C163.542 10.8177 163.96 11.958 163.96 13.4736V20.2724H162.026V18.7852C161.686 19.3092 161.198 19.7129 160.56 19.9962C159.937 20.2653 159.193 20.3999 158.329 20.3999C157.069 20.3999 156.056 20.0954 155.291 19.4863C154.54 18.8772 154.165 18.077 154.165 17.0855C154.165 16.094 154.526 15.3008 155.249 14.7059C155.971 14.0968 157.118 13.7923 158.691 13.7923H161.92V13.3886C161.92 12.5104 161.665 11.8376 161.155 11.3702C160.645 10.9027 159.894 10.669 158.903 10.669C158.237 10.669 157.586 10.7823 156.948 11.009C156.311 11.2214 155.773 11.5118 155.334 11.8801L154.484 10.3503C155.064 9.88291 155.759 9.5288 156.566 9.288C157.373 9.03305 158.23 8.90557 159.137 8.90557ZM158.669 18.8277C159.448 18.8277 160.121 18.6577 160.688 18.3177C161.254 17.9636 161.665 17.4679 161.92 16.8305V15.2583H158.776C157.047 15.2583 156.183 15.839 156.183 17.0005C156.183 17.567 156.403 18.0132 156.842 18.339C157.281 18.6648 157.89 18.8277 158.669 18.8277Z" />
		<path d="M173.959 8.90557C175.39 8.90557 176.523 9.32342 177.359 10.1591C178.209 10.9806 178.634 12.1917 178.634 13.7923V20.2724H176.594V14.026C176.594 12.9353 176.332 12.1138 175.808 11.5614C175.284 11.009 174.533 10.7328 173.556 10.7328C172.451 10.7328 171.58 11.0585 170.942 11.7101C170.305 12.3475 169.986 13.2682 169.986 14.4721V20.2724H167.947V9.0118H169.901V10.7115C170.312 10.1308 170.865 9.68461 171.559 9.37299C172.267 9.06138 173.067 8.90557 173.959 8.90557Z" />
		<path d="M192.86 14.7059C192.86 14.8617 192.846 15.067 192.818 15.322H183.682C183.809 16.3135 184.241 17.1138 184.978 17.7228C185.728 18.3177 186.656 18.6152 187.761 18.6152C189.107 18.6152 190.19 18.1619 191.012 17.2554L192.138 18.5727C191.628 19.1676 190.99 19.6209 190.226 19.9325C189.475 20.2441 188.632 20.3999 187.697 20.3999C186.507 20.3999 185.452 20.1591 184.532 19.6775C183.611 19.1818 182.896 18.4948 182.386 17.6166C181.89 16.7384 181.642 15.7469 181.642 14.6421C181.642 13.5515 181.883 12.567 182.364 11.6889C182.86 10.8107 183.533 10.1308 184.383 9.64919C185.247 9.15344 186.217 8.90557 187.294 8.90557C188.37 8.90557 189.326 9.15344 190.162 9.64919C191.012 10.1308 191.67 10.8107 192.138 11.6889C192.619 12.567 192.86 13.5727 192.86 14.7059ZM187.294 10.6265C186.316 10.6265 185.495 10.924 184.829 11.5189C184.177 12.1138 183.795 12.8928 183.682 13.856H190.905C190.792 12.907 190.403 12.135 189.737 11.5401C189.085 10.9311 188.271 10.6265 187.294 10.6265Z" />
		<path d="M202.236 19.6138C201.939 19.8687 201.571 20.067 201.132 20.2087C200.692 20.3362 200.239 20.3999 199.772 20.3999C198.639 20.3999 197.76 20.0954 197.137 19.4863C196.514 18.8772 196.202 18.0061 196.202 16.873V10.6903H194.29V9.0118H196.202V6.54721H198.242V9.0118H201.471V10.6903H198.242V16.788C198.242 17.3971 198.391 17.8645 198.688 18.1903C199 18.516 199.439 18.6789 200.005 18.6789C200.629 18.6789 201.16 18.5019 201.599 18.1478L202.236 19.6138Z" />
	</mask>
	<path d="M49.0992 7.24834H44V5.3999H56.3017V7.24834H51.2025V20.2724H49.0992V7.24834Z" fill="white" />
	<path d="M67.5459 14.7059C67.5459 14.8617 67.5317 15.067 67.5034 15.322H58.3674C58.4949 16.3135 58.9269 17.1138 59.6635 17.7228C60.4142 18.3177 61.3419 18.6152 62.4467 18.6152C63.7923 18.6152 64.8759 18.1619 65.6974 17.2554L66.8235 18.5727C66.3136 19.1676 65.6762 19.6209 64.9113 19.9325C64.1606 20.2441 63.3178 20.3999 62.383 20.3999C61.1932 20.3999 60.138 20.1591 59.2173 19.6775C58.2966 19.1818 57.5813 18.4948 57.0714 17.6166C56.5756 16.7384 56.3278 15.7469 56.3278 14.6421C56.3278 13.5515 56.5686 12.567 57.0501 11.6889C57.5459 10.8107 58.2187 10.1308 59.0686 9.64919C59.9326 9.15344 60.9028 8.90557 61.9793 8.90557C63.0558 8.90557 64.0119 9.15344 64.8476 9.64919C65.6974 10.1308 66.3561 10.8107 66.8235 11.6889C67.3051 12.567 67.5459 13.5727 67.5459 14.7059ZM61.9793 10.6265C61.002 10.6265 60.1805 10.924 59.5147 11.5189C58.8632 12.1138 58.4807 12.8928 58.3674 13.856H65.5912C65.4779 12.907 65.0884 12.135 64.4227 11.5401C63.7711 10.9311 62.9567 10.6265 61.9793 10.6265Z" fill="white" />
	<path d="M74.3799 8.90557C75.938 8.90557 77.1278 9.288 77.9493 10.0529C78.785 10.8177 79.2029 11.958 79.2029 13.4736V20.2724H77.2695V18.7852C76.9295 19.3092 76.4409 19.7129 75.8035 19.9962C75.1802 20.2653 74.4366 20.3999 73.5726 20.3999C72.312 20.3999 71.2992 20.0954 70.5343 19.4863C69.7836 18.8772 69.4083 18.077 69.4083 17.0855C69.4083 16.094 69.7695 15.3008 70.4918 14.7059C71.2142 14.0968 72.3615 13.7923 73.9338 13.7923H77.1632V13.3886C77.1632 12.5104 76.9083 11.8376 76.3984 11.3702C75.8884 10.9027 75.1377 10.669 74.1462 10.669C73.4805 10.669 72.829 10.7823 72.1916 11.009C71.5542 11.2214 71.0159 11.5118 70.5768 11.8801L69.727 10.3503C70.3077 9.88291 71.0018 9.5288 71.8091 9.288C72.6165 9.03305 73.4734 8.90557 74.3799 8.90557ZM73.9125 18.8277C74.6916 18.8277 75.3644 18.6577 75.9309 18.3177C76.4975 17.9636 76.9083 17.4679 77.1632 16.8305V15.2583H74.0188C72.2907 15.2583 71.4267 15.839 71.4267 17.0005C71.4267 17.567 71.6462 18.0132 72.0853 18.339C72.5244 18.6648 73.1335 18.8277 73.9125 18.8277Z" fill="white" />
	<path d="M97.2763 8.90557C98.6928 8.90557 99.8117 9.31633 100.633 10.1379C101.469 10.9594 101.887 12.1775 101.887 13.7923V20.2724H99.8471V14.026C99.8471 12.9353 99.5922 12.1138 99.0823 11.5614C98.5865 11.009 97.8712 10.7328 96.9364 10.7328C95.9024 10.7328 95.0809 11.0585 94.4718 11.7101C93.8627 12.3475 93.5582 13.2682 93.5582 14.4721V20.2724H91.5185V14.026C91.5185 12.9353 91.2636 12.1138 90.7537 11.5614C90.2579 11.009 89.5426 10.7328 88.6078 10.7328C87.5738 10.7328 86.7522 11.0585 86.1432 11.7101C85.5341 12.3475 85.2296 13.2682 85.2296 14.4721V20.2724H83.1899V9.0118H85.1446V10.6903C85.5554 10.1095 86.0936 9.67044 86.7593 9.37299C87.425 9.06138 88.1828 8.90557 89.0327 8.90557C89.9109 8.90557 90.6899 9.08262 91.3698 9.43673C92.0497 9.79084 92.5738 10.3078 92.942 10.9877C93.367 10.3362 93.9548 9.82625 94.7055 9.45798C95.4704 9.0897 96.3273 8.90557 97.2763 8.90557Z" fill="white" />
	<path d="M122.224 18.424V20.2724H111.431V5.3999H121.926V7.24834H113.555V11.8163H121.013V13.6223H113.555V18.424H122.224Z" fill="white" />
	<path d="M132.511 20.2724L129.261 15.9594L125.968 20.2724H123.694L128.135 14.5146L123.907 9.0118H126.18L129.282 13.0699L132.363 9.0118H134.594L130.344 14.5146L134.827 20.2724H132.511Z" fill="white" />
	<path d="M143.597 19.6138C143.299 19.8687 142.931 20.067 142.492 20.2087C142.053 20.3362 141.6 20.3999 141.132 20.3999C139.999 20.3999 139.121 20.0954 138.498 19.4863C137.875 18.8772 137.563 18.0061 137.563 16.873V10.6903H135.651V9.0118H137.563V6.54721H139.603V9.0118H142.832V10.6903H139.603V16.788C139.603 17.3971 139.751 17.8645 140.049 18.1903C140.36 18.516 140.799 18.6789 141.366 18.6789C141.989 18.6789 142.52 18.5019 142.96 18.1478L143.597 19.6138Z" fill="white" />
	<path d="M148.23 10.9027C148.584 10.2512 149.108 9.75543 149.802 9.41548C150.496 9.07554 151.339 8.90557 152.331 8.90557V10.8815C152.217 10.8673 152.061 10.8602 151.863 10.8602C150.758 10.8602 149.887 11.1931 149.25 11.8588C148.627 12.5104 148.315 13.4452 148.315 14.6634V20.2724H146.275V9.0118H148.23V10.9027Z" fill="white" />
	<path d="M159.137 8.90557C160.695 8.90557 161.885 9.288 162.706 10.0529C163.542 10.8177 163.96 11.958 163.96 13.4736V20.2724H162.026V18.7852C161.686 19.3092 161.198 19.7129 160.56 19.9962C159.937 20.2653 159.193 20.3999 158.329 20.3999C157.069 20.3999 156.056 20.0954 155.291 19.4863C154.54 18.8772 154.165 18.077 154.165 17.0855C154.165 16.094 154.526 15.3008 155.249 14.7059C155.971 14.0968 157.118 13.7923 158.691 13.7923H161.92V13.3886C161.92 12.5104 161.665 11.8376 161.155 11.3702C160.645 10.9027 159.894 10.669 158.903 10.669C158.237 10.669 157.586 10.7823 156.948 11.009C156.311 11.2214 155.773 11.5118 155.334 11.8801L154.484 10.3503C155.064 9.88291 155.759 9.5288 156.566 9.288C157.373 9.03305 158.23 8.90557 159.137 8.90557ZM158.669 18.8277C159.448 18.8277 160.121 18.6577 160.688 18.3177C161.254 17.9636 161.665 17.4679 161.92 16.8305V15.2583H158.776C157.047 15.2583 156.183 15.839 156.183 17.0005C156.183 17.567 156.403 18.0132 156.842 18.339C157.281 18.6648 157.89 18.8277 158.669 18.8277Z" fill="white" />
	<path d="M173.959 8.90557C175.39 8.90557 176.523 9.32342 177.359 10.1591C178.209 10.9806 178.634 12.1917 178.634 13.7923V20.2724H176.594V14.026C176.594 12.9353 176.332 12.1138 175.808 11.5614C175.284 11.009 174.533 10.7328 173.556 10.7328C172.451 10.7328 171.58 11.0585 170.942 11.7101C170.305 12.3475 169.986 13.2682 169.986 14.4721V20.2724H167.947V9.0118H169.901V10.7115C170.312 10.1308 170.865 9.68461 171.559 9.37299C172.267 9.06138 173.067 8.90557 173.959 8.90557Z" fill="white" />
	<path d="M192.86 14.7059C192.86 14.8617 192.846 15.067 192.818 15.322H183.682C183.809 16.3135 184.241 17.1138 184.978 17.7228C185.728 18.3177 186.656 18.6152 187.761 18.6152C189.107 18.6152 190.19 18.1619 191.012 17.2554L192.138 18.5727C191.628 19.1676 190.99 19.6209 190.226 19.9325C189.475 20.2441 188.632 20.3999 187.697 20.3999C186.507 20.3999 185.452 20.1591 184.532 19.6775C183.611 19.1818 182.896 18.4948 182.386 17.6166C181.89 16.7384 181.642 15.7469 181.642 14.6421C181.642 13.5515 181.883 12.567 182.364 11.6889C182.86 10.8107 183.533 10.1308 184.383 9.64919C185.247 9.15344 186.217 8.90557 187.294 8.90557C188.37 8.90557 189.326 9.15344 190.162 9.64919C191.012 10.1308 191.67 10.8107 192.138 11.6889C192.619 12.567 192.86 13.5727 192.86 14.7059ZM187.294 10.6265C186.316 10.6265 185.495 10.924 184.829 11.5189C184.177 12.1138 183.795 12.8928 183.682 13.856H190.905C190.792 12.907 190.403 12.135 189.737 11.5401C189.085 10.9311 188.271 10.6265 187.294 10.6265Z" fill="white" />
	<path d="M202.236 19.6138C201.939 19.8687 201.571 20.067 201.132 20.2087C200.692 20.3362 200.239 20.3999 199.772 20.3999C198.639 20.3999 197.76 20.0954 197.137 19.4863C196.514 18.8772 196.202 18.0061 196.202 16.873V10.6903H194.29V9.0118H196.202V6.54721H198.242V9.0118H201.471V10.6903H198.242V16.788C198.242 17.3971 198.391 17.8645 198.688 18.1903C199 18.516 199.439 18.6789 200.005 18.6789C200.629 18.6789 201.16 18.5019 201.599 18.1478L202.236 19.6138Z" fill="white" />
	<path d="M49.0992 7.24834H44V5.3999H56.3017V7.24834H51.2025V20.2724H49.0992V7.24834Z" mask="url(#path-1-outside-1_358_6393)" stroke="white" stroke-width="0.5" />
	<path d="M67.5459 14.7059C67.5459 14.8617 67.5317 15.067 67.5034 15.322H58.3674C58.4949 16.3135 58.9269 17.1138 59.6635 17.7228C60.4142 18.3177 61.3419 18.6152 62.4467 18.6152C63.7923 18.6152 64.8759 18.1619 65.6974 17.2554L66.8235 18.5727C66.3136 19.1676 65.6762 19.6209 64.9113 19.9325C64.1606 20.2441 63.3178 20.3999 62.383 20.3999C61.1932 20.3999 60.138 20.1591 59.2173 19.6775C58.2966 19.1818 57.5813 18.4948 57.0714 17.6166C56.5756 16.7384 56.3278 15.7469 56.3278 14.6421C56.3278 13.5515 56.5686 12.567 57.0501 11.6889C57.5459 10.8107 58.2187 10.1308 59.0686 9.64919C59.9326 9.15344 60.9028 8.90557 61.9793 8.90557C63.0558 8.90557 64.0119 9.15344 64.8476 9.64919C65.6974 10.1308 66.3561 10.8107 66.8235 11.6889C67.3051 12.567 67.5459 13.5727 67.5459 14.7059ZM61.9793 10.6265C61.002 10.6265 60.1805 10.924 59.5147 11.5189C58.8632 12.1138 58.4807 12.8928 58.3674 13.856H65.5912C65.4779 12.907 65.0884 12.135 64.4227 11.5401C63.7711 10.9311 62.9567 10.6265 61.9793 10.6265Z" mask="url(#path-1-outside-1_358_6393)" stroke="white" stroke-width="0.5" />
	<path d="M74.3799 8.90557C75.938 8.90557 77.1278 9.288 77.9493 10.0529C78.785 10.8177 79.2029 11.958 79.2029 13.4736V20.2724H77.2695V18.7852C76.9295 19.3092 76.4409 19.7129 75.8035 19.9962C75.1802 20.2653 74.4366 20.3999 73.5726 20.3999C72.312 20.3999 71.2992 20.0954 70.5343 19.4863C69.7836 18.8772 69.4083 18.077 69.4083 17.0855C69.4083 16.094 69.7695 15.3008 70.4918 14.7059C71.2142 14.0968 72.3615 13.7923 73.9338 13.7923H77.1632V13.3886C77.1632 12.5104 76.9083 11.8376 76.3984 11.3702C75.8884 10.9027 75.1377 10.669 74.1462 10.669C73.4805 10.669 72.829 10.7823 72.1916 11.009C71.5542 11.2214 71.0159 11.5118 70.5768 11.8801L69.727 10.3503C70.3077 9.88291 71.0018 9.5288 71.8091 9.288C72.6165 9.03305 73.4734 8.90557 74.3799 8.90557ZM73.9125 18.8277C74.6916 18.8277 75.3644 18.6577 75.9309 18.3177C76.4975 17.9636 76.9083 17.4679 77.1632 16.8305V15.2583H74.0188C72.2907 15.2583 71.4267 15.839 71.4267 17.0005C71.4267 17.567 71.6462 18.0132 72.0853 18.339C72.5244 18.6648 73.1335 18.8277 73.9125 18.8277Z" mask="url(#path-1-outside-1_358_6393)" stroke="white" stroke-width="0.5" />
	<path d="M97.2763 8.90557C98.6928 8.90557 99.8117 9.31633 100.633 10.1379C101.469 10.9594 101.887 12.1775 101.887 13.7923V20.2724H99.8471V14.026C99.8471 12.9353 99.5922 12.1138 99.0823 11.5614C98.5865 11.009 97.8712 10.7328 96.9364 10.7328C95.9024 10.7328 95.0809 11.0585 94.4718 11.7101C93.8627 12.3475 93.5582 13.2682 93.5582 14.4721V20.2724H91.5185V14.026C91.5185 12.9353 91.2636 12.1138 90.7537 11.5614C90.2579 11.009 89.5426 10.7328 88.6078 10.7328C87.5738 10.7328 86.7522 11.0585 86.1432 11.7101C85.5341 12.3475 85.2296 13.2682 85.2296 14.4721V20.2724H83.1899V9.0118H85.1446V10.6903C85.5554 10.1095 86.0936 9.67044 86.7593 9.37299C87.425 9.06138 88.1828 8.90557 89.0327 8.90557C89.9109 8.90557 90.6899 9.08262 91.3698 9.43673C92.0497 9.79084 92.5738 10.3078 92.942 10.9877C93.367 10.3362 93.9548 9.82625 94.7055 9.45798C95.4704 9.0897 96.3273 8.90557 97.2763 8.90557Z" mask="url(#path-1-outside-1_358_6393)" stroke="white" stroke-width="0.5" />
	<path d="M122.224 18.424V20.2724H111.431V5.3999H121.926V7.24834H113.555V11.8163H121.013V13.6223H113.555V18.424H122.224Z" mask="url(#path-1-outside-1_358_6393)" stroke="white" stroke-width="0.5" />
	<path d="M132.511 20.2724L129.261 15.9594L125.968 20.2724H123.694L128.135 14.5146L123.907 9.0118H126.18L129.282 13.0699L132.363 9.0118H134.594L130.344 14.5146L134.827 20.2724H132.511Z" mask="url(#path-1-outside-1_358_6393)" stroke="white" stroke-width="0.5" />
	<path d="M143.597 19.6138C143.299 19.8687 142.931 20.067 142.492 20.2087C142.053 20.3362 141.6 20.3999 141.132 20.3999C139.999 20.3999 139.121 20.0954 138.498 19.4863C137.875 18.8772 137.563 18.0061 137.563 16.873V10.6903H135.651V9.0118H137.563V6.54721H139.603V9.0118H142.832V10.6903H139.603V16.788C139.603 17.3971 139.751 17.8645 140.049 18.1903C140.36 18.516 140.799 18.6789 141.366 18.6789C141.989 18.6789 142.52 18.5019 142.96 18.1478L143.597 19.6138Z" mask="url(#path-1-outside-1_358_6393)" stroke="white" stroke-width="0.5" />
	<path d="M148.23 10.9027C148.584 10.2512 149.108 9.75543 149.802 9.41548C150.496 9.07554 151.339 8.90557 152.331 8.90557V10.8815C152.217 10.8673 152.061 10.8602 151.863 10.8602C150.758 10.8602 149.887 11.1931 149.25 11.8588C148.627 12.5104 148.315 13.4452 148.315 14.6634V20.2724H146.275V9.0118H148.23V10.9027Z" mask="url(#path-1-outside-1_358_6393)" stroke="white" stroke-width="0.5" />
	<path d="M159.137 8.90557C160.695 8.90557 161.885 9.288 162.706 10.0529C163.542 10.8177 163.96 11.958 163.96 13.4736V20.2724H162.026V18.7852C161.686 19.3092 161.198 19.7129 160.56 19.9962C159.937 20.2653 159.193 20.3999 158.329 20.3999C157.069 20.3999 156.056 20.0954 155.291 19.4863C154.54 18.8772 154.165 18.077 154.165 17.0855C154.165 16.094 154.526 15.3008 155.249 14.7059C155.971 14.0968 157.118 13.7923 158.691 13.7923H161.92V13.3886C161.92 12.5104 161.665 11.8376 161.155 11.3702C160.645 10.9027 159.894 10.669 158.903 10.669C158.237 10.669 157.586 10.7823 156.948 11.009C156.311 11.2214 155.773 11.5118 155.334 11.8801L154.484 10.3503C155.064 9.88291 155.759 9.5288 156.566 9.288C157.373 9.03305 158.23 8.90557 159.137 8.90557ZM158.669 18.8277C159.448 18.8277 160.121 18.6577 160.688 18.3177C161.254 17.9636 161.665 17.4679 161.92 16.8305V15.2583H158.776C157.047 15.2583 156.183 15.839 156.183 17.0005C156.183 17.567 156.403 18.0132 156.842 18.339C157.281 18.6648 157.89 18.8277 158.669 18.8277Z" mask="url(#path-1-outside-1_358_6393)" stroke="white" stroke-width="0.5" />
	<path d="M173.959 8.90557C175.39 8.90557 176.523 9.32342 177.359 10.1591C178.209 10.9806 178.634 12.1917 178.634 13.7923V20.2724H176.594V14.026C176.594 12.9353 176.332 12.1138 175.808 11.5614C175.284 11.009 174.533 10.7328 173.556 10.7328C172.451 10.7328 171.58 11.0585 170.942 11.7101C170.305 12.3475 169.986 13.2682 169.986 14.4721V20.2724H167.947V9.0118H169.901V10.7115C170.312 10.1308 170.865 9.68461 171.559 9.37299C172.267 9.06138 173.067 8.90557 173.959 8.90557Z" mask="url(#path-1-outside-1_358_6393)" stroke="white" stroke-width="0.5" />
	<path d="M192.86 14.7059C192.86 14.8617 192.846 15.067 192.818 15.322H183.682C183.809 16.3135 184.241 17.1138 184.978 17.7228C185.728 18.3177 186.656 18.6152 187.761 18.6152C189.107 18.6152 190.19 18.1619 191.012 17.2554L192.138 18.5727C191.628 19.1676 190.99 19.6209 190.226 19.9325C189.475 20.2441 188.632 20.3999 187.697 20.3999C186.507 20.3999 185.452 20.1591 184.532 19.6775C183.611 19.1818 182.896 18.4948 182.386 17.6166C181.89 16.7384 181.642 15.7469 181.642 14.6421C181.642 13.5515 181.883 12.567 182.364 11.6889C182.86 10.8107 183.533 10.1308 184.383 9.64919C185.247 9.15344 186.217 8.90557 187.294 8.90557C188.37 8.90557 189.326 9.15344 190.162 9.64919C191.012 10.1308 191.67 10.8107 192.138 11.6889C192.619 12.567 192.86 13.5727 192.86 14.7059ZM187.294 10.6265C186.316 10.6265 185.495 10.924 184.829 11.5189C184.177 12.1138 183.795 12.8928 183.682 13.856H190.905C190.792 12.907 190.403 12.135 189.737 11.5401C189.085 10.9311 188.271 10.6265 187.294 10.6265Z" mask="url(#path-1-outside-1_358_6393)" stroke="white" stroke-width="0.5" />
	<path d="M202.236 19.6138C201.939 19.8687 201.571 20.067 201.132 20.2087C200.692 20.3362 200.239 20.3999 199.772 20.3999C198.639 20.3999 197.76 20.0954 197.137 19.4863C196.514 18.8772 196.202 18.0061 196.202 16.873V10.6903H194.29V9.0118H196.202V6.54721H198.242V9.0118H201.471V10.6903H198.242V16.788C198.242 17.3971 198.391 17.8645 198.688 18.1903C199 18.516 199.439 18.6789 200.005 18.6789C200.629 18.6789 201.16 18.5019 201.599 18.1478L202.236 19.6138Z" mask="url(#path-1-outside-1_358_6393)" stroke="white" stroke-width="0.5" />
	<path clip-rule="evenodd" d="M2.79729 17.1573C3.94808 16.032 5.50888 15.3999 7.13634 15.3999H16.9545C18.582 15.3999 20.1428 16.032 21.2935 17.1573C22.4443 18.2825 23.0908 19.8086 23.0908 21.3999V23.7999C23.0908 24.4626 22.5414 24.9999 21.8636 24.9999C21.1858 24.9999 20.6363 24.4626 20.6363 23.7999V21.3999C20.6363 20.4451 20.2484 19.5294 19.5579 18.8543C18.8675 18.1792 17.931 17.7999 16.9545 17.7999H7.13634C6.15987 17.7999 5.22339 18.1792 4.53291 18.8543C3.84244 19.5294 3.45454 20.4451 3.45454 21.3999V23.7999C3.45454 24.4626 2.90507 24.9999 2.22727 24.9999C1.54947 24.9999 1 24.4626 1 23.7999V21.3999C1 19.8086 1.64651 18.2825 2.79729 17.1573Z" fill="white" fill-rule="evenodd" stroke="white" stroke-linecap="round" stroke-linejoin="round" stroke-width="0.2" />
	<path clip-rule="evenodd" d="M12.0465 3.39999C10.0131 3.39999 8.36469 5.01176 8.36469 6.99998C8.36469 8.9882 10.0131 10.6 12.0465 10.6C14.0799 10.6 15.7283 8.9882 15.7283 6.99998C15.7283 5.01176 14.0799 3.39999 12.0465 3.39999ZM5.91016 6.99998C5.91016 3.68628 8.65749 1 12.0465 1C15.4355 1 18.1828 3.68628 18.1828 6.99998C18.1828 10.3137 15.4355 13 12.0465 13C8.65749 13 5.91016 10.3137 5.91016 6.99998Z" fill="white" fill-rule="evenodd" stroke="white" stroke-linecap="round" stroke-linejoin="round" stroke-width="0.2" />
	<path clip-rule="evenodd" d="M24.3576 16.4552C24.5271 15.8135 25.1965 15.4276 25.8527 15.5933C27.1692 15.9257 28.3355 16.6761 29.1685 17.7268C30.0015 18.7775 30.454 20.0689 30.455 21.3983L30.455 23.7992C30.455 24.4619 29.9055 24.9992 29.2277 24.9992C28.5499 24.9992 28.0005 24.4619 28.0005 23.7992L28.0005 21.4001C28.0005 21.4 28.0005 21.4002 28.0005 21.4001C27.9998 20.6026 27.7283 19.8275 27.2285 19.1972C26.7287 18.5668 26.029 18.1165 25.2391 17.9171C24.5828 17.7514 24.1882 17.0969 24.3576 16.4552Z" fill="white" fill-rule="evenodd" opacity="0.6" stroke="white" stroke-linecap="round" stroke-linejoin="round" stroke-width="0.2" />
	<path clip-rule="evenodd" d="M19.4469 2.05865C19.615 1.41662 20.2836 1.02941 20.9402 1.19379C22.2601 1.52425 23.4301 2.27484 24.2655 3.32725C25.101 4.37967 25.5545 5.67403 25.5545 7.00628C25.5545 8.33853 25.101 9.63289 24.2655 10.6853C23.4301 11.7377 22.2601 12.4883 20.9402 12.8188C20.2836 12.9831 19.615 12.5959 19.4469 11.9539C19.2787 11.3119 19.6747 10.6582 20.3314 10.4938C21.1233 10.2955 21.8253 9.84514 22.3266 9.21369C22.8278 8.58225 23.0999 7.80563 23.0999 7.00628C23.0999 6.20693 22.8278 5.43031 22.3266 4.79886C21.8253 4.16742 21.1233 3.71706 20.3314 3.51879C19.6747 3.3544 19.2787 2.70067 19.4469 2.05865Z" fill="white" fill-rule="evenodd" opacity="0.6" stroke="white" stroke-linecap="round" stroke-linejoin="round" stroke-width="0.2" />
</svg>