<svg fill="none" height="42" viewBox="0 0 218 42" width="218" xmlns="http://www.w3.org/2000/svg">
	<path clip-rule="evenodd" d="M7.14893 8.93665C7.14893 7.94959 7.9491 7.14941 8.93616 7.14941H29.4894C30.4764 7.14941 31.2766 7.94959 31.2766 8.93665V29.4898C31.2766 30.4769 30.4764 31.2771 29.4894 31.2771H8.93616C7.9491 31.2771 7.14893 30.4769 7.14893 29.4898V8.93665ZM10.7234 11.1707C10.7234 10.9239 10.9234 10.7239 11.1702 10.7239H13.8511C14.0978 10.7239 14.2979 10.9239 14.2979 11.1707V13.8515C14.2979 14.0983 14.0978 14.2983 13.8511 14.2983H11.1702C10.9234 14.2983 10.7234 14.0983 10.7234 13.8515V11.1707ZM15.6383 10.7239C15.3915 10.7239 15.1915 10.9239 15.1915 11.1707V13.8515C15.1915 14.0983 15.3915 14.2983 15.6383 14.2983H18.3191C18.5659 14.2983 18.7659 14.0983 18.7659 13.8515V11.1707C18.7659 10.9239 18.5659 10.7239 18.3191 10.7239H15.6383ZM19.6596 11.1707C19.6596 10.9239 19.8596 10.7239 20.1064 10.7239H22.7872C23.034 10.7239 23.234 10.9239 23.234 11.1707V13.8515C23.234 14.0983 23.034 14.2983 22.7872 14.2983H20.1064C19.8596 14.2983 19.6596 14.0983 19.6596 13.8515V11.1707ZM11.1702 15.192C10.9234 15.192 10.7234 15.392 10.7234 15.6388V18.3196C10.7234 18.5664 10.9234 18.7664 11.1702 18.7664H13.8511C14.0978 18.7664 14.2979 18.5664 14.2979 18.3196V15.6388C14.2979 15.392 14.0978 15.192 13.8511 15.192H11.1702ZM15.1915 15.6388C15.1915 15.392 15.3915 15.192 15.6383 15.192H18.3191C18.5659 15.192 18.7659 15.392 18.7659 15.6388V18.3196C18.7659 18.5664 18.5659 18.7664 18.3191 18.7664H15.6383C15.3915 18.7664 15.1915 18.5664 15.1915 18.3196V15.6388ZM24.5745 15.192C24.3277 15.192 24.1276 15.392 24.1276 15.6388V18.3196C24.1276 18.5664 24.3277 18.7664 24.5745 18.7664H27.2553C27.5021 18.7664 27.7021 18.5664 27.7021 18.3196V15.6388C27.7021 15.392 27.5021 15.192 27.2553 15.192H24.5745ZM10.7234 20.1069C10.7234 19.8601 10.9234 19.6601 11.1702 19.6601H13.8511C14.0978 19.6601 14.2979 19.8601 14.2979 20.1069V22.7877C14.2979 23.0345 14.0978 23.2345 13.8511 23.2345H11.1702C10.9234 23.2345 10.7234 23.0345 10.7234 22.7877V20.1069ZM20.1064 19.6601C19.8596 19.6601 19.6596 19.8601 19.6596 20.1069V22.7877C19.6596 23.0345 19.8596 23.2345 20.1064 23.2345H22.7872C23.034 23.2345 23.234 23.0345 23.234 22.7877V20.1069C23.234 19.8601 23.034 19.6601 22.7872 19.6601H20.1064ZM24.1276 20.1069C24.1276 19.8601 24.3277 19.6601 24.5745 19.6601H27.2553C27.5021 19.6601 27.7021 19.8601 27.7021 20.1069V22.7877C27.7021 23.0345 27.5021 23.2345 27.2553 23.2345H24.5745C24.3277 23.2345 24.1276 23.0345 24.1276 22.7877V20.1069ZM15.6383 24.1281C15.3915 24.1281 15.1915 24.3282 15.1915 24.5749V27.2558C15.1915 27.5026 15.3915 27.7026 15.6383 27.7026H18.3191C18.5659 27.7026 18.7659 27.5026 18.7659 27.2558V24.5749C18.7659 24.3282 18.5659 24.1281 18.3191 24.1281H15.6383ZM19.6596 24.5749C19.6596 24.3282 19.8596 24.1281 20.1064 24.1281H22.7872C23.034 24.1281 23.234 24.3282 23.234 24.5749V27.2558C23.234 27.5026 23.034 27.7026 22.7872 27.7026H20.1064C19.8596 27.7026 19.6596 27.5026 19.6596 27.2558V24.5749ZM24.5745 24.1281C24.3277 24.1281 24.1276 24.3282 24.1276 24.5749V27.2558C24.1276 27.5026 24.3277 27.7026 24.5745 27.7026H27.2553C27.5021 27.7026 27.7021 27.5026 27.7021 27.2558V24.5749C27.7021 24.3282 27.5021 24.1281 27.2553 24.1281H24.5745Z" fill="#0B63CE" fill-rule="evenodd" />
	<path d="M51.1149 29.1766H40.5255V7.28297C40.5255 7.14893 40.4362 7.05957 40.3021 7.05957H38.6489C38.5149 7.05957 38.4255 7.14893 38.4255 7.28297V30.7851C38.4255 30.9191 38.5149 31.0085 38.6489 31.0085H51.1149C51.2489 31.0085 51.3383 30.9191 51.3383 30.7851V29.3553C51.3383 29.266 51.2489 29.1766 51.1149 29.1766Z" fill="#272833" />
	<path d="M66.7979 13.4486H63.0447V9.96352C63.0447 7.50607 63.849 6.29969 65.5022 6.29969C66.1724 6.29969 66.8426 6.47841 67.4681 6.7465C67.5128 6.79118 67.6022 6.79118 67.6469 6.7465C67.6915 6.70182 67.7362 6.65714 67.7809 6.61245L68.2277 5.31671C68.2724 5.22735 68.2277 5.09331 68.0937 5.04862C67.2447 4.69118 66.3064 4.46777 65.5022 4.46777C62.6426 4.46777 61.0341 6.38905 61.0341 9.82948V13.4486L58.8894 13.5827C58.7554 13.5827 58.666 13.672 58.666 13.8061V15.0125C58.666 15.1465 58.7554 15.2359 58.8894 15.2359H61.0341V30.7848C61.0341 30.9188 61.1235 31.0082 61.2575 31.0082H62.8213C62.9554 31.0082 63.0447 30.9188 63.0447 30.7848V15.2359H66.7979C66.932 15.2359 67.0213 15.1465 67.0213 15.0125V13.6273C67.0213 13.538 66.932 13.4486 66.7979 13.4486Z" fill="#272833" />
	<path d="M74.9297 13.002C71.2212 13.002 67.2446 16.2637 67.2446 22.2509C67.2446 27.6573 70.5957 31.4551 75.3765 31.4551C77.9233 31.4551 79.4872 30.6062 80.917 29.7573C81.0063 29.7126 81.051 29.5785 81.0063 29.4445L80.3361 28.2381C80.2914 28.1934 80.2468 28.1488 80.2021 28.1488C80.1574 28.1488 80.068 28.1488 80.0234 28.1934C78.5936 29.2211 77.1638 29.6679 75.5553 29.6679C71.9361 29.6679 69.4787 26.853 69.3446 22.6977H81.4531C81.5425 22.6977 81.6319 22.6083 81.6765 22.519C81.7659 22.0722 81.7659 21.5807 81.7659 21.1785C81.6765 16.0403 79.1744 13.002 74.9297 13.002ZM69.2999 20.9105C69.7021 17.2913 71.9808 14.7892 74.9297 14.7892C78.0127 14.7892 79.7106 16.9785 79.7553 20.9105H69.2999Z" fill="#272833" />
	<path d="M93.1148 13.4043C92.5787 13.1362 92.0425 13.0469 91.3276 13.0469C89.5404 13.0469 87.8425 14.1639 86.5468 16.2639L86.4127 13.6724C86.4127 13.5384 86.3234 13.449 86.1893 13.449H84.8489C84.7149 13.449 84.6255 13.5384 84.6255 13.6724V30.8299C84.6255 30.9639 84.7149 31.0533 84.8489 31.0533H86.4127C86.5468 31.0533 86.6361 30.9639 86.6361 30.8299V19.2128C87.7085 16.532 89.3617 14.9682 91.1042 14.9682C91.7297 14.9682 91.9978 15.0575 92.5787 15.2362C92.6234 15.2362 92.7127 15.2362 92.7574 15.2362C92.8021 15.1916 92.8468 15.1469 92.8468 15.1022L93.2042 13.6724C93.2489 13.5384 93.2042 13.449 93.1148 13.4043Z" fill="#272833" />
	<path d="M107.234 13.449H105.849C105.715 13.449 105.626 13.5384 105.626 13.6724L105.536 14.9682C104.062 13.8064 102.632 13.0469 100.577 13.0469C96.0193 13.0469 92.7576 16.9341 92.7576 22.2958C92.7576 28.0596 95.4831 31.5001 100.085 31.5001C101.962 31.5001 103.838 30.6511 105.581 29.0426L105.715 30.8745C105.715 31.0086 105.804 31.0979 105.938 31.0979H107.279C107.413 31.0979 107.502 31.0086 107.502 30.8745V13.6724C107.458 13.5384 107.368 13.449 107.234 13.449ZM105.447 16.9341V26.8979C103.615 28.7745 102.007 29.5788 100.309 29.5788C96.9129 29.5788 94.8576 26.8086 94.8576 22.2065C94.8576 18.0511 97.4044 14.7894 100.666 14.7894C102.364 14.8341 103.794 15.4596 105.447 16.9341Z" fill="#272833" />
	<path d="M124.302 13.5383C124.257 13.4937 124.213 13.449 124.123 13.449H122.515C122.426 13.449 122.336 13.4937 122.291 13.583L118.628 24.3511C118.449 24.932 118.226 25.5575 118.047 26.183C117.779 27.0766 117.466 27.9703 117.198 28.7745C116.84 27.8809 116.483 26.8979 116.126 25.9596C115.902 25.3788 115.679 24.8426 115.5 24.3064L111.389 13.5383C111.345 13.449 111.255 13.4043 111.166 13.4043H109.468C109.379 13.4043 109.334 13.449 109.289 13.4937C109.245 13.5383 109.245 13.6277 109.289 13.7171L116.304 31.0979L115.857 32.5277C115.187 34.5383 113.936 36.9064 111.657 36.9064C111.211 36.9064 110.674 36.7724 110.317 36.6383C110.272 36.6383 110.183 36.6383 110.138 36.6383C110.094 36.683 110.049 36.7277 110.004 36.7724L109.647 38.1575C109.602 38.2468 109.691 38.3809 109.781 38.4256C110.272 38.649 110.987 38.783 111.613 38.783C114.249 38.783 116.304 36.7724 117.6 32.9745L124.347 13.6724C124.391 13.6724 124.347 13.583 124.302 13.5383Z" fill="#272833" />
	<path d="M55.5829 9.56122C55.851 9.56122 56.0744 9.33781 56.0744 9.06973V7.46122C56.0744 7.19313 55.851 6.96973 55.5829 6.96973H53.9744C53.7063 6.96973 53.4829 7.19313 53.4829 7.46122V9.06973C53.4829 9.33781 53.7063 9.56122 53.9744 9.56122H55.5829Z" fill="#272833" />
	<path d="M53.9744 13.4485H55.5382C55.6723 13.4485 55.7616 13.5378 55.7616 13.6719V30.8293C55.7616 30.9633 55.6723 31.0527 55.5382 31.0527H53.9744C53.8404 31.0527 53.751 30.9633 53.751 30.8293V13.6719C53.751 13.5378 53.8404 13.4485 53.9744 13.4485Z" fill="#272833" />
	<path d="M151.762 30.312C150.653 30.312 149.639 30.1127 148.72 29.714C147.801 29.298 147.013 28.7087 146.354 27.946C145.695 27.166 145.184 26.23 144.82 25.138C144.456 24.046 144.274 22.8067 144.274 21.42C144.274 20.0507 144.456 18.8287 144.82 17.754C145.184 16.662 145.695 15.7433 146.354 14.998C147.013 14.2527 147.801 13.6807 148.72 13.282C149.639 12.8833 150.653 12.684 151.762 12.684C152.871 12.684 153.885 12.8833 154.804 13.282C155.723 13.6807 156.511 14.2527 157.17 14.998C157.846 15.7433 158.366 16.662 158.73 17.754C159.094 18.8287 159.276 20.0507 159.276 21.42C159.276 22.8067 159.094 24.046 158.73 25.138C158.366 26.23 157.846 27.166 157.17 27.946C156.511 28.7087 155.723 29.298 154.804 29.714C153.885 30.1127 152.871 30.312 151.762 30.312ZM151.762 27.686C152.438 27.686 153.045 27.5387 153.582 27.244C154.119 26.9493 154.579 26.5333 154.96 25.996C155.341 25.4413 155.636 24.7827 155.844 24.02C156.052 23.24 156.156 22.3733 156.156 21.42C156.156 19.5133 155.757 18.0227 154.96 16.948C154.18 15.856 153.114 15.31 151.762 15.31C150.41 15.31 149.335 15.856 148.538 16.948C147.758 18.0227 147.368 19.5133 147.368 21.42C147.368 22.3733 147.472 23.24 147.68 24.02C147.888 24.7827 148.183 25.4413 148.564 25.996C148.945 26.5333 149.405 26.9493 149.942 27.244C150.479 27.5387 151.086 27.686 151.762 27.686ZM162.678 30V17.234H165.148L165.356 18.95H165.46C166.032 18.3953 166.647 17.9187 167.306 17.52C167.982 17.1213 168.762 16.922 169.646 16.922C171.015 16.922 172.012 17.364 172.636 18.248C173.26 19.1147 173.572 20.3627 173.572 21.992V30H170.582V22.382C170.582 21.3247 170.426 20.5793 170.114 20.146C169.802 19.7127 169.29 19.496 168.58 19.496C168.025 19.496 167.531 19.6347 167.098 19.912C166.682 20.172 166.205 20.562 165.668 21.082V30H162.678ZM180.398 30.312C179.324 30.312 178.57 29.9913 178.136 29.35C177.703 28.7087 177.486 27.8333 177.486 26.724V11.644H180.476V26.88C180.476 27.244 180.546 27.504 180.684 27.66C180.823 27.7987 180.97 27.868 181.126 27.868C181.196 27.868 181.256 27.868 181.308 27.868C181.378 27.868 181.473 27.8507 181.594 27.816L181.984 30.052C181.586 30.2253 181.057 30.312 180.398 30.312ZM184.805 30V17.234H187.795V30H184.805ZM186.313 14.998C185.776 14.998 185.334 14.842 184.987 14.53C184.64 14.218 184.467 13.8107 184.467 13.308C184.467 12.8053 184.64 12.398 184.987 12.086C185.334 11.7567 185.776 11.592 186.313 11.592C186.85 11.592 187.292 11.7567 187.639 12.086C187.986 12.398 188.159 12.8053 188.159 13.308C188.159 13.8107 187.986 14.218 187.639 14.53C187.292 14.842 186.85 14.998 186.313 14.998ZM191.87 30V17.234H194.34L194.548 18.95H194.652C195.224 18.3953 195.839 17.9187 196.498 17.52C197.174 17.1213 197.954 16.922 198.838 16.922C200.207 16.922 201.204 17.364 201.828 18.248C202.452 19.1147 202.764 20.3627 202.764 21.992V30H199.774V22.382C199.774 21.3247 199.618 20.5793 199.306 20.146C198.994 19.7127 198.482 19.496 197.772 19.496C197.217 19.496 196.723 19.6347 196.29 19.912C195.874 20.172 195.397 20.562 194.86 21.082V30H191.87ZM212.138 30.312C211.254 30.312 210.431 30.1647 209.668 29.87C208.906 29.558 208.238 29.116 207.666 28.544C207.094 27.972 206.644 27.2787 206.314 26.464C206.002 25.632 205.846 24.6873 205.846 23.63C205.846 22.59 206.011 21.654 206.34 20.822C206.67 19.99 207.103 19.288 207.64 18.716C208.195 18.144 208.828 17.702 209.538 17.39C210.249 17.078 210.977 16.922 211.722 16.922C212.589 16.922 213.352 17.0693 214.01 17.364C214.669 17.6587 215.215 18.0747 215.648 18.612C216.099 19.1493 216.437 19.7907 216.662 20.536C216.888 21.2813 217 22.096 217 22.98C217 23.2747 216.983 23.552 216.948 23.812C216.931 24.072 216.905 24.28 216.87 24.436H208.758C208.897 25.58 209.296 26.464 209.954 27.088C210.63 27.6947 211.488 27.998 212.528 27.998C213.083 27.998 213.594 27.92 214.062 27.764C214.548 27.5907 215.024 27.3567 215.492 27.062L216.506 28.934C215.9 29.3327 215.224 29.662 214.478 29.922C213.733 30.182 212.953 30.312 212.138 30.312ZM208.732 22.408H214.4C214.4 21.42 214.184 20.6487 213.75 20.094C213.334 19.522 212.684 19.236 211.8 19.236C211.038 19.236 210.37 19.5047 209.798 20.042C209.226 20.5793 208.871 21.368 208.732 22.408Z" fill="#272833" />
	<line stroke="#6B6C7E" x1="134.5" x2="134.5" y1="4" y2="38" />
</svg>