<svg fill="none" height="24" viewBox="0 0 24 24" width="24" xmlns="http://www.w3.org/2000/svg">
	<path clip-rule="evenodd" d="M12 6.35168C10.8828 6.35168 9.79053 6.68298 8.86182 7.30365C7.93286 7.92432 7.20874 8.80652 6.78125 9.83868C6.35376 10.8708 6.24194 12.0066 6.45996 13.1023C6.67773 14.198 7.21582 15.2045 8.00586 15.9945C8.79565 16.7845 9.80225 17.3224 10.8979 17.5404C11.9937 17.7583 13.1294 17.6465 14.1616 17.219C15.1938 16.7914 16.0759 16.0674 16.6965 15.1385C17.3174 14.2096 17.6487 13.1175 17.6487 12.0003C17.6487 10.5022 17.0535 9.06546 15.9941 8.00613C14.9348 6.94681 13.498 6.35168 12 6.35168ZM12 15.6669C11.2747 15.6669 10.5659 15.4519 9.96289 15.0489C9.35986 14.6461 8.88989 14.0734 8.61255 13.4034C8.33496 12.7334 8.26245 11.9962 8.40381 11.285C8.54541 10.5737 8.89453 9.92038 9.40723 9.40759C9.92017 8.89481 10.5735 8.54562 11.2847 8.40414C11.9958 8.26266 12.7332 8.33527 13.4031 8.61279C14.0732 8.89032 14.6458 9.36029 15.0486 9.96326C15.4517 10.5662 15.6665 11.2751 15.6665 12.0003C15.6665 12.9727 15.2803 13.9054 14.5925 14.593C13.905 15.2806 12.9724 15.6669 12 15.6669Z" fill="#2E303D" fill-rule="evenodd" />
	<path d="M19.1917 6.12802C19.1917 6.85702 18.6008 7.448 17.8718 7.448C17.1428 7.448 16.5518 6.85702 16.5518 6.12802C16.5518 5.39902 17.1428 4.80804 17.8718 4.80804C18.6008 4.80804 19.1917 5.39902 19.1917 6.12802Z" fill="#2E303D" />
	<path clip-rule="evenodd" d="M12 0.999939C9.0127 0.999939 8.63794 1.0126 7.46484 1.06613C6.29395 1.11957 5.49438 1.30551 4.79468 1.57745C4.06079 1.85364 3.39575 2.28662 2.84644 2.84619C2.28662 3.3956 1.85352 4.06049 1.57739 4.79449C1.30566 5.4942 1.11963 6.29379 1.06641 7.46466C1.0127 8.63773 1 9.01245 1 11.9999C1 14.9873 1.0127 15.362 1.06641 16.5351C1.11987 17.706 1.30566 18.5055 1.57764 19.2052C1.854 19.9392 2.28687 20.6041 2.84644 21.1535C3.396 21.7131 4.06079 22.1461 4.79468 22.4223C5.49438 22.6942 6.29419 22.8801 7.46484 22.9336C8.63818 22.9871 9.0127 22.9998 12 22.9998C14.9875 22.9998 15.3623 22.9871 16.5354 22.9336C17.7063 22.8801 18.5059 22.6942 19.2056 22.4223C19.936 22.1396 20.5999 21.7075 21.1538 21.1535C21.7078 20.5995 22.1399 19.9359 22.4226 19.2052C22.6943 18.5055 22.8804 17.7059 22.9338 16.5351C22.9873 15.3618 23 14.9872 23 11.9999C23 9.01251 22.9873 8.63773 22.9338 7.46466C22.8804 6.29379 22.6943 5.4942 22.4226 4.79452C22.1462 4.06058 21.7134 3.39569 21.1538 2.84622C20.6042 2.28656 19.9395 1.85349 19.2053 1.57721C18.5056 1.30551 17.7061 1.11957 16.5352 1.06635C15.3621 1.0126 14.9873 0.999939 12 0.999939ZM12 2.98193C14.937 2.98193 15.2849 2.99316 16.4451 3.04608C17.5173 3.09503 18.0999 3.2742 18.4875 3.42483C18.9653 3.60117 19.3975 3.88235 19.7522 4.24768C20.1177 4.60251 20.3987 5.0347 20.5752 5.51245C20.7258 5.90005 20.905 6.48251 20.9539 7.55499C21.0068 8.71493 21.0181 9.0628 21.0181 12C21.0181 14.9372 21.0068 15.285 20.9539 16.445C20.9048 17.5175 20.7256 18.0999 20.5752 18.4875C20.3921 18.9619 20.1118 19.3928 19.7522 19.7523C19.3928 20.1119 18.9619 20.3922 18.4875 20.5752C18.0999 20.7258 17.5173 20.905 16.4451 20.9539C15.2852 21.0068 14.9373 21.0181 12 21.0181C9.0625 21.0181 8.71484 21.0068 7.55493 20.9539C6.48242 20.905 5.90015 20.7258 5.51245 20.5752C5.03467 20.3988 4.60254 20.1177 4.24756 19.7523C3.88232 19.3975 3.60107 18.9653 3.4248 18.4875C3.27417 18.0999 3.09497 17.5175 3.0459 16.445C2.99316 15.2851 2.98193 14.9372 2.98193 12C2.98193 9.0628 2.99316 8.71503 3.0459 7.55499C3.09497 6.48251 3.27417 5.90012 3.4248 5.51245C3.60107 5.03467 3.88232 4.60245 4.2478 4.24765C4.60254 3.88229 5.03467 3.60114 5.51245 3.42477C5.90015 3.27414 6.48242 3.09494 7.55493 3.04605C8.71484 2.99313 9.06274 2.9819 12 2.98193Z" fill="#2E303D" fill-rule="evenodd" />
</svg>