<svg fill="none" height="24" viewBox="0 0 24 24" width="24" xmlns="http://www.w3.org/2000/svg">
	<path clip-rule="evenodd" d="M23.76 7.2001C23.76 7.2001 23.52 5.5201 22.8 4.8001C21.84 3.8401 20.88 3.8401 20.4 3.8401C17.04 3.6001 12 3.6001 12 3.6001C12 3.6001 6.96 3.6001 3.6 3.8401C3.12 3.8401 2.16 3.8401 1.2 4.8001C0.48 5.5201 0.24 7.2001 0.24 7.2001C0.24 7.2001 0 9.1201 0 11.0401V12.8401C0 14.8801 0.24 16.8001 0.24 16.8001C0.24 16.8001 0.48 18.4801 1.2 19.2001C2.16 20.1601 3.36 20.1601 3.84 20.2801C5.76 20.4001 12 20.4001 12 20.4001C12 20.4001 17.04 20.4001 20.4 20.1601C20.88 20.1601 21.84 20.0401 22.8 19.2001C23.52 18.4801 23.76 16.8001 23.76 16.8001C23.76 16.8001 24 14.8801 24 12.9601V11.0401C24 9.1201 23.76 7.2001 23.76 7.2001ZM9.48 15.1201V8.4001L15.96 11.7601L9.48 15.1201Z" fill="#2E303D" fill-rule="evenodd" />
</svg>