<svg fill="none" height="12" viewBox="0 0 12 12" width="12" xmlns="http://www.w3.org/2000/svg">
	<path d="M3.30503 5.98986H0.834852C0.52836 5.98986 0.272949 6.23895 0.272949 6.53784V10.8221C0.272949 11.1209 0.52836 11.37 0.834852 11.37H3.4928C3.37635 11.227 3.30503 11.0466 3.30503 10.8454V5.98986Z" fill="#716C7F" />
	<path d="M8.50764 11.37H11.1656C11.4721 11.37 11.7275 11.1303 11.7275 10.8426V3.49093C11.7275 3.20325 11.4721 2.96352 11.1656 2.96352H8.69541V10.8454C8.69541 11.0466 8.6241 11.227 8.50764 11.37Z" fill="#716C7F" />
	<path d="M7.79661 0.273438C8.1031 0.273438 8.35851 0.511903 8.35851 0.798062V10.8454C8.35851 11.1316 8.1031 11.37 7.79661 11.37H4.20384C3.89734 11.37 3.64193 11.1316 3.64193 10.8454V0.798062C3.64193 0.511903 3.89734 0.273438 4.20384 0.273438H7.79661Z" fill="#716C7F" />
</svg>