<svg fill="none" height="41" viewBox="0 0 42 41" width="42" xmlns="http://www.w3.org/2000/svg">
	<path d="M15.2338 20.9602C16.3576 20.9602 17.2941 21.8735 17.2941 22.9695V38.6782C17.2941 39.7742 16.3576 40.6875 15.2338 40.6875H2.06031C0.936505 40.6875 0 39.7742 0 38.6782V22.9695C0 21.8735 0.936505 20.9602 2.06031 20.9602H15.2338V20.9602Z" fill="#1AA0E8" />
	<path d="M39.9396 9.86364C41.0634 9.86364 41.9999 10.7426 41.9999 11.7975V38.7537C41.9999 39.8085 41.0634 40.6875 39.9396 40.6875H26.7661C25.6423 40.6875 24.7058 39.8085 24.7058 38.7537V11.7975C24.7058 10.7426 25.6423 9.86364 26.7661 9.86364H39.9396Z" fill="#1AA0E8" />
	<path d="M27.5868 0C28.7106 0 29.6471 0.874373 29.6471 1.92362V38.7639C29.6471 39.8131 28.7106 40.6875 27.5868 40.6875H14.4133C13.2895 40.6875 12.353 39.8131 12.353 38.7639V1.92362C12.353 0.874373 13.2895 0 14.4133 0H27.5868Z" fill="#0B63CE" />
	<path d="M12.4164 20.9613H15.2037C15.2037 20.9613 17.2942 20.8396 17.2942 23.2122V39.0292C17.2942 39.0292 17.2942 40.6718 14.8236 40.6718C14.8236 40.6718 12.7331 40.976 12.353 38.9076V20.9613H12.4164Z" fill="#134194" />
	<path d="M26.7963 9.86465C26.7963 9.86465 24.7058 9.74751 24.7058 12.0317V23.8628V27.2599V39.091C24.7058 39.091 24.7058 40.6724 27.1764 40.6724C27.1764 40.6724 29.2669 40.9652 29.647 38.9739V27.1427V21.6958V9.86465H26.7963Z" fill="#134194" />
</svg>