<svg fill="none" height="11" viewBox="0 0 16 11" width="16" xmlns="http://www.w3.org/2000/svg">
	<path d="M8.23275 2.95793L6.17813 1.19739C5.72807 0.822462 5.05297 0.859957 4.67792 1.30987L0.51482 6.14649C0.267108 6.44366 0.2591 6.83864 0.311591 7.18115L0.796118 10.177C0.852371 10.5707 1.24617 10.9081 1.63999 10.9081L4.80918 10.9456C4.86255 10.9456 4.91004 10.9418 4.95155 10.9346C5.21614 10.9113 5.47024 10.79 5.65305 10.5707L7.20261 8.77044L6.02186 7.75332C5.40723 7.23884 5.33325 6.31763 5.86743 5.70593L8.23275 2.95793Z" fill="#716C7F" />
	<path d="M9.79739 10.4957L6.27189 7.45875C5.82182 7.08382 5.76556 6.40895 6.15937 5.95903L10.3225 1.12241C10.5649 0.83156 10.886 0.754294 11.2841 0.766914L14.3543 0.784969C14.7481 0.784969 15.1419 1.12241 15.1982 1.51608L15.7045 4.64676C15.7113 4.69448 15.7145 4.73806 15.7144 4.77734C15.7308 5.04645 15.6462 5.32405 15.4607 5.5466L11.2976 10.3832C10.9226 10.8331 10.2475 10.8706 9.79739 10.4957Z" fill="#716C7F" />
</svg>