<svg width="32" height="32" viewBox="0 0 32 32" fill="none" xmlns="http://www.w3.org/2000/svg">
<g clip-path="url(#clip0_6:3533)">
<rect width="32" height="32" fill="white"/>
<path d="M12.2537 5.91758L19.591 12.2067C20.4839 13.022 20.6004 14.4196 19.7851 15.3125L11.1667 25.3286C10.7882 25.7828 10.2621 26.034 9.71438 26.0823C9.62846 26.0972 9.5301 26.1051 9.41966 26.1051L2.85872 26.0274C2.04345 26.0274 1.22819 25.3286 1.11172 24.5134L0.108662 18.3093C-1.53482e-05 17.5999 0.0165599 16.782 0.529389 16.1666L9.1479 6.15051C9.92434 5.21878 11.3219 5.14113 12.2537 5.91758Z" fill="#1AA0E8"/>
<path d="M19.7464 25.1734L12.4478 18.8842C11.5161 18.1077 11.3996 16.7101 12.2149 15.7784L20.8334 5.76233C21.3353 5.16001 22 5 22.8242 5.02614L29.1801 5.06353C29.9954 5.06353 30.8106 5.76232 30.9271 6.57759L31.9753 13.0609C31.9894 13.1597 31.9962 13.2499 31.9959 13.3313C32.0298 13.8886 31.8547 14.4635 31.4706 14.9243L22.8521 24.9404C22.0757 25.8722 20.6781 25.9498 19.7464 25.1734Z" fill="#0B63CE"/>
<path d="M17.1146 10.0841L19.5911 12.2068C20.484 13.022 20.6004 14.4196 19.7852 15.3125L14.8964 20.9941L12.4478 18.8842C11.5161 18.1077 11.3996 16.7101 12.2149 15.7784L17.1146 10.0841Z" fill="#134194"/>
</g>
<defs>
<clipPath id="clip0_6:3533">
<rect width="32" height="32" fill="white"/>
</clipPath>
</defs>
</svg>
