<svg fill="none" height="11" viewBox="0 0 16 11" width="16" xmlns="http://www.w3.org/2000/svg">
	<path d="M6.17825 1.19704L9.7225 4.23399C10.1538 4.62767 10.2101 5.30254 9.81627 5.73372L5.65317 10.5703C5.47036 10.7896 5.21626 10.911 4.95167 10.9343C4.91016 10.9415 4.86266 10.9453 4.8093 10.9453L1.6401 10.9078C1.2463 10.9078 0.852489 10.5703 0.79623 10.1767L0.311712 7.18079C0.259216 6.83828 0.267223 6.4433 0.514941 6.14614L4.67803 1.30952C5.05309 0.859604 5.72818 0.822109 6.17825 1.19704Z" fill="#1AA0E8" />
	<path d="M9.79737 10.4957L6.27186 7.45875C5.8218 7.08382 5.76554 6.40895 6.15934 5.95903L10.3224 1.12241C10.5649 0.83156 10.886 0.754294 11.2841 0.766914L14.3543 0.784969C14.7481 0.784969 15.1419 1.12241 15.1981 1.51608L15.7045 4.64676C15.7113 4.69448 15.7145 4.73806 15.7144 4.77734C15.7308 5.04645 15.6462 5.32405 15.4607 5.5466L11.2976 10.3832C10.9225 10.8331 10.2474 10.8706 9.79737 10.4957Z" fill="#0B63CE" />
	<path d="M8.52613 3.21094L9.72236 4.23594C10.1537 4.62962 10.2099 5.3045 9.81612 5.73567L7.45463 8.47921L6.27186 7.46035C5.8218 7.08542 5.76554 6.41054 6.15935 5.96063L8.52613 3.21094Z" fill="#134194" />
</svg>