<svg fill="none" height="13" viewBox="0 0 14 13" width="14" xmlns="http://www.w3.org/2000/svg">
	<path d="M4.61235 1.75379C6.41698 0.345145 9.9353 0.774718 11.9344 2.57882C16.053 6.2891 10.9713 15.2814 5.95396 12.3186C7.43393 11.8527 8.88704 10.904 9.85115 9.83274L9.85231 9.83143C10.9537 8.59651 11.4557 7.35756 11.4747 6.20714C11.4937 5.05563 11.0278 4.03965 10.2814 3.25847C8.95547 1.87064 6.7247 1.1988 4.61235 1.75379Z" fill="#716C7F" />
	<path d="M5.52626 12.0362L5.52602 12.0363C5.47807 12.0021 5.43014 11.9678 5.38221 11.9326C5.30232 11.874 5.22245 11.8126 5.14244 11.744C3.61914 10.4261 2.36866 8.59458 3.36159 4.18875C3.42775 3.89509 3.5039 3.58999 3.59061 3.27285L3.59068 3.27262C3.67055 2.96908 3.80633 2.70748 3.96137 2.46335C3.98351 2.42848 4.00606 2.39396 4.02889 2.35973C4.56976 2.13836 5.12773 2.01112 5.68187 1.96719C9.56087 1.65966 13.2512 5.43387 9.5609 9.57151C8.57505 10.6669 7.04148 11.6345 5.52626 12.0362Z" fill="#716C7F" />
	<path d="M1.49107 4.38632C2.05472 3.6254 2.70539 3.06023 3.40106 2.66565C3.32662 2.82123 3.26165 2.98892 3.21351 3.17137C2.50962 5.74695 2.47704 7.58896 2.86031 8.98775C3.2464 10.3969 4.04136 11.3078 4.88706 12.0395L4.88842 12.0406C4.9327 12.0786 4.97684 12.1145 5.02046 12.1486C4.09858 12.3115 3.20285 12.2342 2.47699 11.8172C0.413875 10.667 -0.0973399 6.57724 1.49107 4.38632Z" fill="#716C7F" />
</svg>