<svg fill="none" height="13" viewBox="0 0 14 13" width="14" xmlns="http://www.w3.org/2000/svg">
	<path clip-rule="evenodd" d="M4.02851 2.35972C5.52564 0.260094 9.68836 0.552217 11.934 2.57882C16.1698 6.39467 10.6743 15.7974 5.52564 12.0363C5.3978 11.945 5.27 11.8537 5.1422 11.7442C3.51728 10.3383 2.20271 8.34823 3.5903 3.27261C3.68159 2.92571 3.8459 2.63359 4.02851 2.35972Z" fill="#1AA0E8" fill-rule="evenodd" />
	<path clip-rule="evenodd" d="M4.02826 2.35934C8.35529 0.588348 13.7778 4.84238 9.56029 9.57111C8.57439 10.6666 7.04075 11.6342 5.52536 12.0359C4.42993 12.328 3.33447 12.3098 2.47638 11.8168C0.413264 10.6666 -0.0979503 6.57686 1.49046 4.38594C2.22076 3.40002 3.09714 2.74275 4.02826 2.35934Z" fill="#0B63CE" fill-rule="evenodd" />
	<path d="M9.56053 9.57111C13.778 4.84238 8.35553 0.588348 4.02848 2.35934C3.84591 2.6332 3.68159 2.92533 3.5903 3.27222C2.20272 8.34785 3.51727 10.3379 5.14219 11.7438C5.27 11.8533 5.3978 11.9446 5.5256 12.0359C7.04098 11.6342 8.57462 10.6666 9.56053 9.57111Z" fill="#134194" />
</svg>