<svg fill="none" height="18" viewBox="0 0 18 18" width="18" xmlns="http://www.w3.org/2000/svg">
	<path clip-rule="evenodd" d="M12.1877 11.4713H12.9777L17.2177 15.7313C17.6277 16.1413 17.6277 16.8113 17.2177 17.2213C16.8077 17.6313 16.1377 17.6313 15.7277 17.2213L11.4777 12.9713V12.1813L11.2077 11.9013C9.80768 13.1013 7.89768 13.7213 5.86768 13.3813C3.08768 12.9113 0.867676 10.5913 0.527676 7.79133C0.00767639 3.56133 3.56768 0.00132874 7.79768 0.521329C10.5977 0.861329 12.9177 3.08133 13.3877 5.86133C13.7277 7.89133 13.1077 9.80133 11.9077 11.2013L12.1877 11.4713ZM2.47768 6.97133C2.47768 9.46133 4.48768 11.4713 6.97768 11.4713C9.46768 11.4713 11.4777 9.46133 11.4777 6.97133C11.4777 4.48133 9.46768 2.47133 6.97768 2.47133C4.48768 2.47133 2.47768 4.48133 2.47768 6.97133Z" fill="#004AD7" fill-rule="evenodd" />
</svg>