<svg fill="none" height="18" viewBox="0 0 18 18" width="18" xmlns="http://www.w3.org/2000/svg">
	<path clip-rule="evenodd" d="M12.1876 11.4713H12.9776L17.2176 15.7313C17.6276 16.1413 17.6276 16.8113 17.2176 17.2213C16.8076 17.6313 16.1376 17.6313 15.7276 17.2213L11.4776 12.9713V12.1813L11.2076 11.9013C9.80755 13.1013 7.89755 13.7213 5.86755 13.3813C3.08755 12.9113 0.867554 10.5913 0.527554 7.79133C0.00755432 3.56133 3.56755 0.00132874 7.79755 0.521329C10.5976 0.861329 12.9176 3.08133 13.3876 5.86133C13.7276 7.89133 13.1076 9.80133 11.9076 11.2013L12.1876 11.4713ZM2.47755 6.97133C2.47755 9.46133 4.48755 11.4713 6.97755 11.4713C9.46755 11.4713 11.4776 9.46133 11.4776 6.97133C11.4776 4.48133 9.46755 2.47133 6.97755 2.47133C4.48755 2.47133 2.47755 4.48133 2.47755 6.97133Z" fill="#716C7F" fill-rule="evenodd" />
</svg>