<svg fill="none" height="20" viewBox="0 0 20 20" width="20" xmlns="http://www.w3.org/2000/svg">
	<mask height="18" id="mask0" mask-type="alpha" maskUnits="userSpaceOnUse" width="18" x="1" y="1">
		<path clip-rule="evenodd" d="M9.99984 1.66666C5.39984 1.66666 1.6665 5.4 1.6665 10C1.6665 14.6 5.39984 18.3333 9.99984 18.3333C14.5998 18.3333 18.3332 14.6 18.3332 10C18.3332 5.4 14.5998 1.66666 9.99984 1.66666ZM9.1665 15.8333V14.1667H10.8332V15.8333H9.1665ZM11.8082 10.1417L12.5582 9.375C13.4082 8.525 13.6998 7.06666 12.7165 5.70833C11.9665 4.66666 10.7582 4.00833 9.4915 4.20833C8.19984 4.40833 7.15817 5.34166 6.79984 6.56666C6.6665 7.03333 6.99984 7.5 7.48317 7.5H7.73317C8.05817 7.5 8.3165 7.26666 8.4165 6.95833C8.6915 6.16666 9.54984 5.64166 10.4748 5.9C11.0582 6.06666 11.5248 6.575 11.6332 7.175C11.7415 7.75833 11.5582 8.30833 11.1748 8.675L10.1415 9.725C9.7915 10.075 9.5165 10.5083 9.34984 10.9917C9.23317 11.3333 9.1665 11.7 9.1665 12.0833V12.5H10.8332C10.8332 12.1167 10.8748 11.8167 10.9415 11.55C11.0915 10.95 11.3915 10.5667 11.8082 10.1417Z" fill="black" fill-rule="evenodd" />
	</mask>
	<g mask="url(#mask0)">
		<rect fill="#4C85FF" height="20" width="20" />
	</g>
</svg>