<svg
	id="Layer_1"
	style="enable-background:new 0 0 280 60.1;"
	version="1.1"
	viewBox="0 0 280 60.1"
	x="0px"
	xml:space="preserve"
	xmlns="http://www.w3.org/2000/svg"
	xmlns:xlink="http://www.w3.org/1999/xlink"
	y="0px"
>
	<style type="text/css">
	.st0{fill:#5F65D6;}
	.st1{fill:#373ECC;}
	.st2{fill:#1C1F66;}
	.st3{fill:#292F99;}
	</style>
	<g>
		<g>
			<circle class="st0" cx="22.5" cy="55.7" r="4.4" />
			<polygon class="st1" points="45,9 33.3,9 33.3,41.3 45,34.6 		" />
			<polygon class="st2" points="0,34.6 11.7,41.3 11.7,18 0,18 		" />
			<polygon class="st3" points="28.4,44.2 28.4,0 16.7,0 16.7,44.2 22.5,47.6 		" />
		</g>
		<g>
			<path class="st2" d="M86,14.4c0.2,0.2,0.3,0.5,0.3,0.8c0,0.3-0.1,0.6-0.3,0.8c-0.2,0.2-0.5,0.3-0.8,0.3h-7.7v22.7
			c0,0.3-0.1,0.6-0.3,0.8c-0.2,0.2-0.5,0.3-0.8,0.3c-0.3,0-0.6-0.1-0.8-0.3c-0.2-0.2-0.3-0.5-0.3-0.8V16.2h-7.7
			c-0.3,0-0.6-0.1-0.8-0.3c-0.2-0.2-0.3-0.5-0.3-0.8c0-0.3,0.1-0.5,0.3-0.7c0.2-0.2,0.5-0.3,0.8-0.3h17.6
			C85.6,14.1,85.8,14.2,86,14.4z" />
		<path class="st2" d="M116.9,38.1c0.2,0.2,0.3,0.5,0.3,0.8c0,0.3-0.1,0.6-0.3,0.8c-0.2,0.2-0.5,0.3-0.8,0.3h-13.6
			c-0.3,0-0.6-0.1-0.8-0.3c-0.2-0.2-0.3-0.5-0.3-0.8V15.2c0-0.3,0.1-0.6,0.3-0.8c0.2-0.2,0.5-0.3,0.8-0.3h13.6
			c0.3,0,0.6,0.1,0.8,0.3c0.2,0.2,0.3,0.5,0.3,0.8c0,0.3-0.1,0.6-0.3,0.8c-0.2,0.2-0.5,0.3-0.8,0.3h-12.3v9.3h10.7
			c0.3,0,0.6,0.1,0.8,0.3c0.2,0.2,0.3,0.5,0.3,0.8c0,0.3-0.1,0.6-0.3,0.8c-0.2,0.2-0.5,0.3-0.8,0.3h-10.7v10.1h12.3
			C116.4,37.8,116.7,37.9,116.9,38.1z" />
		<path class="st2" d="M135.2,39.4c-1.4-0.6-2.7-1.5-4-2.8c-0.3-0.2-0.4-0.5-0.4-0.9c0-0.3,0.1-0.6,0.4-0.8c0.2-0.2,0.5-0.4,0.8-0.4
			c0.3,0,0.6,0.1,0.8,0.4c1.9,2.1,4.3,3.2,7.2,3.2c1.8,0,3.2-0.4,4.4-1.3c1.2-0.8,1.8-1.9,1.8-3.3c0-1.1-0.3-1.9-0.9-2.6
			c-0.6-0.7-1.3-1.3-2.3-1.7c-0.9-0.4-2.1-0.9-3.6-1.4c-1.6-0.5-2.9-1-4-1.6c-1.1-0.6-1.9-1.3-2.6-2.3c-0.7-0.9-1-2.1-1-3.6
			c0-1.3,0.4-2.5,1.1-3.5c0.7-1,1.7-1.8,3-2.4c1.3-0.6,2.7-0.9,4.4-0.9c1.5,0,2.9,0.3,4.2,0.8c1.3,0.5,2.4,1.2,3.2,2.2
			c0.4,0.4,0.6,0.8,0.6,1.1c0,0.3-0.1,0.5-0.4,0.8c-0.2,0.2-0.5,0.4-0.8,0.4c-0.2,0-0.5-0.1-0.6-0.3c-0.7-0.8-1.6-1.4-2.7-1.9
			s-2.3-0.7-3.5-0.7c-1.8,0-3.3,0.4-4.4,1.2c-1.1,0.8-1.7,1.9-1.7,3.3c0,1.4,0.5,2.5,1.6,3.3c1.1,0.8,2.6,1.5,4.7,2.1
			c1.7,0.5,3.2,1,4.3,1.6c1.1,0.5,2,1.3,2.7,2.3c0.7,1,1.1,2.3,1.1,3.9c0,1.3-0.4,2.4-1.1,3.4c-0.7,1-1.7,1.8-3,2.4
			c-1.3,0.6-2.8,0.9-4.4,0.9C138.1,40.3,136.5,40,135.2,39.4z" />
		<path class="st2" d="M180.2,14.4c0.2,0.2,0.3,0.5,0.3,0.8c0,0.3-0.1,0.6-0.3,0.8c-0.2,0.2-0.5,0.3-0.8,0.3h-7.7v22.7
			c0,0.3-0.1,0.6-0.3,0.8c-0.2,0.2-0.5,0.3-0.8,0.3c-0.3,0-0.6-0.1-0.8-0.3c-0.2-0.2-0.3-0.5-0.3-0.8V16.2h-7.7
			c-0.3,0-0.6-0.1-0.8-0.3c-0.2-0.2-0.3-0.5-0.3-0.8c0-0.3,0.1-0.5,0.3-0.7c0.2-0.2,0.5-0.3,0.8-0.3h17.6
			C179.7,14.1,180,14.2,180.2,14.4z" />
		<path class="st2" d="M215,38.9c0,0.1-0.1,0.3-0.1,0.5c-0.1,0.2-0.2,0.3-0.4,0.4c-0.2,0.1-0.4,0.1-0.6,0.1c-0.2,0-0.5,0-0.6-0.1
			c-0.7-0.4-1.2-1-1.7-1.9c-0.4-0.9-0.6-2.3-0.6-4.3c0-1.7-0.5-2.9-1.4-3.6c-1-0.7-2.1-1.1-3.4-1.1h-8.2v9.9c0,0.3-0.1,0.6-0.3,0.8
			c-0.2,0.2-0.5,0.3-0.8,0.3c-0.3,0-0.6-0.1-0.9-0.3c-0.2-0.2-0.4-0.5-0.4-0.8V15.2c0-0.3,0.1-0.6,0.3-0.8c0.2-0.2,0.5-0.3,0.8-0.3
			h10c1.4,0,2.7,0.3,3.8,0.9c1.1,0.6,2,1.4,2.6,2.5c0.6,1.1,0.9,2.3,0.9,3.6c0,1.6-0.4,3-1.2,4.2c-0.8,1.2-1.9,2-3.2,2.5
			c1.1,0.4,2,1.1,2.7,2.1c0.7,1,1,2.2,1.1,3.6c0,1.5,0.1,2.6,0.3,3.2c0.2,0.6,0.5,1,0.9,1.3C214.8,38.2,215,38.5,215,38.9z
			 M206.8,26.9c0.9-0.1,1.7-0.4,2.4-0.9c0.7-0.5,1.3-1.2,1.8-2c0.4-0.8,0.7-1.8,0.7-2.9c0-1.4-0.5-2.6-1.4-3.5
			c-0.9-0.9-2.2-1.4-3.7-1.4h-8.6v10.6H206.8z" />
		<path class="st2" d="M250.9,38.9c0,0.3-0.1,0.6-0.3,0.8c-0.2,0.2-0.5,0.3-0.8,0.3c-0.2,0-0.5-0.1-0.6-0.2s-0.3-0.3-0.4-0.5
			l-2.8-6.8h-12l-2.7,6.8c-0.2,0.5-0.5,0.7-1,0.7c-0.3,0-0.6-0.1-0.8-0.3c-0.2-0.2-0.3-0.4-0.3-0.7v-0.1c0-0.1,0-0.3,0-0.3l9.8-23.9
			c0.2-0.5,0.6-0.7,1.1-0.7c0.2,0,0.5,0.1,0.6,0.2c0.2,0.1,0.3,0.3,0.4,0.5l9.7,23.8C250.9,38.7,250.9,38.8,250.9,38.9z M234.8,30.3
			h10.3l-5.2-12.6L234.8,30.3z" />
		<path class="st2" d="M279.8,15.7l-8.2,11.4v11.8c0,0.3-0.1,0.6-0.3,0.8c-0.2,0.2-0.5,0.3-0.8,0.3c-0.3,0-0.6-0.1-0.8-0.3
			c-0.2-0.2-0.3-0.5-0.3-0.8V27.1L261,15.8c-0.2-0.2-0.3-0.5-0.3-0.8c0-0.3,0.1-0.6,0.4-0.8c0.2-0.2,0.5-0.3,0.8-0.3
			c0.4,0,0.7,0.2,0.9,0.5l7.7,10.4l7.5-10.4c0.3-0.3,0.6-0.5,1-0.5c0.3,0,0.6,0.1,0.8,0.4c0.2,0.2,0.3,0.5,0.3,0.8
			C280,15.2,279.9,15.4,279.8,15.7z" />
	</g>
			</g>
</svg>