<svg width="136" height="21" viewBox="0 0 136 21" fill="none" xmlns="http://www.w3.org/2000/svg">
<path d="M45.2417 8.64598C45.9795 8.88776 46.5647 9.29497 46.9972 9.86761C47.4297 10.4275 47.646 11.1274 47.646 11.9673C47.646 13.1253 47.2007 14.0224 46.3103 14.6587C45.4198 15.2822 44.1222 15.594 42.4176 15.594H35.7771V2.23242H42.0359C43.6134 2.23242 44.8282 2.54419 45.6806 3.16773C46.5329 3.77855 46.959 4.62478 46.959 5.70643C46.959 6.36815 46.8064 6.95351 46.5011 7.46252C46.1958 7.97154 45.776 8.36602 45.2417 8.64598ZM38.2577 4.17939V7.86337H41.7688C42.6338 7.86337 43.2953 7.71067 43.7533 7.40526C44.224 7.08713 44.4593 6.62902 44.4593 6.03093C44.4593 5.42011 44.224 4.962 43.7533 4.65659C43.2953 4.33846 42.6338 4.17939 41.7688 4.17939H38.2577ZM42.2649 13.647C44.1858 13.647 45.1463 13.0044 45.1463 11.7191C45.1463 10.4339 44.1858 9.79126 42.2649 9.79126H38.2577V13.647H42.2649Z" fill="#2E303D"/>
<path d="M54.6441 15.7276C53.6137 15.7276 52.685 15.5049 51.8581 15.0595C51.0313 14.6141 50.3825 13.997 49.9118 13.208C49.4538 12.4063 49.2249 11.5028 49.2249 10.4975C49.2249 9.49221 49.4538 8.59508 49.9118 7.80611C50.3825 7.01714 51.0313 6.39996 51.8581 5.95458C52.685 5.50919 53.6137 5.2865 54.6441 5.2865C55.6872 5.2865 56.6222 5.50919 57.4491 5.95458C58.276 6.39996 58.9184 7.01714 59.3764 7.80611C59.8471 8.59508 60.0824 9.49221 60.0824 10.4975C60.0824 11.5028 59.8471 12.4063 59.3764 13.208C58.9184 13.997 58.276 14.6141 57.4491 15.0595C56.6222 15.5049 55.6872 15.7276 54.6441 15.7276ZM54.6441 13.6852C55.5219 13.6852 56.247 13.3925 56.8194 12.8072C57.3919 12.2218 57.6781 11.4519 57.6781 10.4975C57.6781 9.54311 57.3919 8.77323 56.8194 8.18787C56.247 7.6025 55.5219 7.30982 54.6441 7.30982C53.7663 7.30982 53.0412 7.6025 52.4688 8.18787C51.909 8.77323 51.6292 9.54311 51.6292 10.4975C51.6292 11.4519 51.909 12.2218 52.4688 12.8072C53.0412 13.3925 53.7663 13.6852 54.6441 13.6852Z" fill="#2E303D"/>
<path d="M66.9429 15.7276C65.9125 15.7276 64.9838 15.5049 64.157 15.0595C63.3301 14.6141 62.6813 13.997 62.2106 13.208C61.7527 12.4063 61.5237 11.5028 61.5237 10.4975C61.5237 9.49221 61.7527 8.59508 62.2106 7.80611C62.6813 7.01714 63.3301 6.39996 64.157 5.95458C64.9838 5.50919 65.9125 5.2865 66.9429 5.2865C67.986 5.2865 68.9211 5.50919 69.7479 5.95458C70.5748 6.39996 71.2172 7.01714 71.6752 7.80611C72.1459 8.59508 72.3812 9.49221 72.3812 10.4975C72.3812 11.5028 72.1459 12.4063 71.6752 13.208C71.2172 13.997 70.5748 14.6141 69.7479 15.0595C68.9211 15.5049 67.986 15.7276 66.9429 15.7276ZM66.9429 13.6852C67.8207 13.6852 68.5458 13.3925 69.1182 12.8072C69.6907 12.2218 69.9769 11.4519 69.9769 10.4975C69.9769 9.54311 69.6907 8.77323 69.1182 8.18787C68.5458 7.6025 67.8207 7.30982 66.9429 7.30982C66.0651 7.30982 65.34 7.6025 64.7676 8.18787C64.2078 8.77323 63.928 9.54311 63.928 10.4975C63.928 11.4519 64.2078 12.2218 64.7676 12.8072C65.34 13.3925 66.0651 13.6852 66.9429 13.6852Z" fill="#2E303D"/>
<path d="M80.7874 15.0404C80.5075 15.2695 80.164 15.4413 79.7569 15.5558C79.3626 15.6704 78.9428 15.7276 78.4975 15.7276C77.3781 15.7276 76.513 15.4349 75.9024 14.8496C75.2918 14.2642 74.9865 13.4116 74.9865 12.2918V7.38617H73.3073V5.47738H74.9865V3.14864H77.3717V5.47738H80.1004V7.38617H77.3717V12.2345C77.3717 12.7308 77.4926 13.1126 77.7343 13.3798C77.976 13.6343 78.3258 13.7616 78.7838 13.7616C79.3181 13.7616 79.7633 13.6216 80.1195 13.3416L80.7874 15.0404Z" fill="#2E303D"/>
<path d="M87.0891 15.7276C86.0333 15.7276 85.0855 15.5049 84.2459 15.0595C83.4063 14.6141 82.7512 13.997 82.2805 13.208C81.8098 12.4063 81.5745 11.5028 81.5745 10.4975C81.5745 9.49221 81.8098 8.59508 82.2805 7.80611C82.7512 7.01714 83.4 6.39996 84.2269 5.95458C85.0665 5.50919 86.0205 5.2865 87.0891 5.2865C88.0941 5.2865 88.9719 5.4901 89.7224 5.89731C90.4857 6.30452 91.0581 6.88989 91.4398 7.6534L89.6079 8.72233C89.3153 8.25149 88.9464 7.90155 88.5012 7.67249C88.0687 7.43071 87.5916 7.30982 87.07 7.30982C86.1796 7.30982 85.4417 7.6025 84.8566 8.18787C84.2714 8.76051 83.9788 9.53039 83.9788 10.4975C83.9788 11.4646 84.265 12.2409 84.8375 12.8262C85.4226 13.3989 86.1668 13.6852 87.07 13.6852C87.5916 13.6852 88.0687 13.5707 88.5012 13.3416C88.9464 13.0998 89.3153 12.7435 89.6079 12.2727L91.4398 13.3416C91.0454 14.1051 90.4666 14.6969 89.7033 15.1168C88.9528 15.524 88.0814 15.7276 87.0891 15.7276Z" fill="#2E303D"/>
<path d="M97.3943 5.2865C98.8954 5.2865 100.04 5.64917 100.829 6.37451C101.631 7.08713 102.031 8.16878 102.031 9.61946V15.594H99.7796V14.3533C99.487 14.7987 99.0672 15.1422 98.5202 15.384C97.9859 15.6131 97.3371 15.7276 96.5738 15.7276C95.8106 15.7276 95.1427 15.6004 94.5702 15.3459C93.9978 15.0786 93.5525 14.716 93.2345 14.2578C92.9292 13.787 92.7765 13.2589 92.7765 12.6735C92.7765 11.7573 93.1137 11.0256 93.7879 10.4784C94.4748 9.91851 95.5498 9.63855 97.0127 9.63855H99.646V9.48585C99.646 8.77323 99.4297 8.22604 98.9972 7.84428C98.5774 7.46252 97.9477 7.27164 97.1081 7.27164C96.5357 7.27164 95.9696 7.36072 95.4098 7.53888C94.8628 7.71703 94.3985 7.96517 94.0169 8.28331L93.0819 6.5463C93.6161 6.13909 94.2586 5.82732 95.0091 5.61099C95.7597 5.39466 96.5547 5.2865 97.3943 5.2865ZM97.07 13.9906C97.6678 13.9906 98.1958 13.857 98.6537 13.5898C99.1244 13.3098 99.4552 12.9153 99.646 12.4063V11.2229H97.1844C95.8106 11.2229 95.1236 11.6746 95.1236 12.5781C95.1236 13.0108 95.2953 13.3543 95.6388 13.6088C95.9823 13.8634 96.4593 13.9906 97.07 13.9906Z" fill="#2E303D"/>
<path d="M117.953 5.2865C119.238 5.2865 120.256 5.66189 121.007 6.41269C121.757 7.15075 122.132 8.26422 122.132 9.75308V15.594H119.747V10.0585C119.747 9.16772 119.55 8.49964 119.156 8.05425C118.761 7.59614 118.195 7.36708 117.457 7.36708C116.656 7.36708 116.014 7.63432 115.53 8.16878C115.047 8.69052 114.805 9.44131 114.805 10.4212V15.594H112.42V10.0585C112.42 9.16772 112.223 8.49964 111.828 8.05425C111.434 7.59614 110.868 7.36708 110.13 7.36708C109.316 7.36708 108.667 7.62795 108.184 8.14969C107.713 8.67143 107.478 9.42859 107.478 10.4212V15.594H105.092V5.40102H107.363V6.69901C107.745 6.24089 108.222 5.89095 108.794 5.64917C109.367 5.40739 110.003 5.2865 110.702 5.2865C111.466 5.2865 112.14 5.43284 112.725 5.72552C113.323 6.00548 113.794 6.42541 114.137 6.98532C114.557 6.45086 115.098 6.03729 115.759 5.74461C116.421 5.4392 117.152 5.2865 117.953 5.2865Z" fill="#2E303D"/>
<path d="M130.829 5.2865C131.821 5.2865 132.705 5.50283 133.481 5.93549C134.27 6.36815 134.887 6.97896 135.332 7.76793C135.777 8.5569 136 9.46676 136 10.4975C136 11.5283 135.777 12.4445 135.332 13.2462C134.887 14.0351 134.27 14.646 133.481 15.0786C132.705 15.5113 131.821 15.7276 130.829 15.7276C129.455 15.7276 128.367 15.2695 127.566 14.3533V19.2971H125.18V5.40102H127.451V6.73718C127.846 6.25362 128.329 5.89095 128.901 5.64917C129.487 5.40739 130.129 5.2865 130.829 5.2865ZM130.562 13.6852C131.439 13.6852 132.158 13.3925 132.718 12.8072C133.29 12.2218 133.576 11.4519 133.576 10.4975C133.576 9.54311 133.29 8.77323 132.718 8.18787C132.158 7.6025 131.439 7.30982 130.562 7.30982C129.989 7.30982 129.474 7.44344 129.016 7.71067C128.558 7.96517 128.195 8.33421 127.928 8.81777C127.661 9.30133 127.528 9.86125 127.528 10.4975C127.528 11.1338 127.661 11.6937 127.928 12.1773C128.195 12.6608 128.558 13.0362 129.016 13.3034C129.474 13.5579 129.989 13.6852 130.562 13.6852Z" fill="#2E303D"/>
<path fill-rule="evenodd" clip-rule="evenodd" d="M0 0H7.08227C8.59116 0 10.0383 0.595361 11.1052 1.65511C12.1721 2.71486 12.7716 4.15219 12.7716 5.65091V20.5792H10.4841C10.4841 19.9824 10.2454 19.4101 9.82057 18.9881C9.39572 18.5661 8.8195 18.329 8.21866 18.329H0V0ZM10.4841 16.6566V5.65091C10.4841 4.75477 10.1257 3.89533 9.48773 3.26167C8.84977 2.628 7.9845 2.27201 7.08227 2.27201H2.28744V16.057H8.21866C9.02048 16.057 9.8005 16.2671 10.4841 16.6566Z" fill="#2E303D"/>
<path fill-rule="evenodd" clip-rule="evenodd" d="M12.1512 1.65511C13.2182 0.595361 14.6653 0 16.1741 0H23.2564V18.329H15.0378C14.4369 18.329 13.8607 18.5661 13.4358 18.9881C13.011 19.4101 12.7723 19.9824 12.7723 20.5792H10.4849V5.65091C10.4849 4.15219 11.0843 2.71486 12.1512 1.65511ZM12.7723 16.6566C13.4559 16.2671 14.2359 16.057 15.0378 16.057H20.969V2.27201H16.1741C15.2719 2.27201 14.4066 2.628 13.7687 3.26167C13.1307 3.89533 12.7723 4.75477 12.7723 5.65091V16.6566Z" fill="#2E303D"/>
</svg>
