<svg width="166" height="26" viewBox="0 0 166 26" fill="none" xmlns="http://www.w3.org/2000/svg">
<path d="M55.2213 10.5533C56.1219 10.8484 56.8361 11.3454 57.364 12.0444C57.892 12.7278 58.1559 13.5821 58.1559 14.6072C58.1559 16.0207 57.6125 17.1157 56.5256 17.8923C55.4387 18.6534 53.8549 19.0339 51.7742 19.0339H43.6689V2.72498H51.3084C53.2338 2.72498 54.7166 3.10552 55.757 3.8666C56.7973 4.61215 57.3175 5.64505 57.3175 6.9653C57.3175 7.77298 57.1311 8.48747 56.7585 9.10876C56.3858 9.73006 55.8734 10.2116 55.2213 10.5533ZM46.6968 5.10142V9.59803H50.9823C52.0382 9.59803 52.8456 9.41165 53.4046 9.03887C53.9791 8.65056 54.2663 8.0914 54.2663 7.36138C54.2663 6.61583 53.9791 6.05666 53.4046 5.68389C52.8456 5.29558 52.0382 5.10142 50.9823 5.10142H46.6968ZM51.5879 16.6575C53.9325 16.6575 55.1048 15.8731 55.1048 14.3043C55.1048 12.7356 53.9325 11.9512 51.5879 11.9512H46.6968V16.6575H51.5879Z" fill="white"/>
<path d="M66.6977 19.197C65.44 19.197 64.3065 18.9252 63.2972 18.3816C62.288 17.8379 61.4961 17.0846 60.9216 16.1216C60.3626 15.1431 60.0831 14.0403 60.0831 12.8132C60.0831 11.5862 60.3626 10.4911 60.9216 9.52814C61.4961 8.56513 62.288 7.81181 63.2972 7.26818C64.3065 6.72455 65.44 6.45274 66.6977 6.45274C67.971 6.45274 69.1122 6.72455 70.1215 7.26818C71.1308 7.81181 71.9149 8.56513 72.4739 9.52814C73.0484 10.4911 73.3357 11.5862 73.3357 12.8132C73.3357 14.0403 73.0484 15.1431 72.4739 16.1216C71.9149 17.0846 71.1308 17.8379 70.1215 18.3816C69.1122 18.9252 67.971 19.197 66.6977 19.197ZM66.6977 16.7041C67.7691 16.7041 68.6542 16.3468 69.3529 15.6323C70.0516 14.9179 70.401 13.9782 70.401 12.8132C70.401 11.6483 70.0516 10.7086 69.3529 9.99411C68.6542 9.27962 67.7691 8.92238 66.6977 8.92238C65.6263 8.92238 64.7413 9.27962 64.0426 9.99411C63.3593 10.7086 63.0177 11.6483 63.0177 12.8132C63.0177 13.9782 63.3593 14.9179 64.0426 15.6323C64.7413 16.3468 65.6263 16.7041 66.6977 16.7041Z" fill="white"/>
<path d="M81.7095 19.197C80.4518 19.197 79.3183 18.9252 78.309 18.3816C77.2997 17.8379 76.5078 17.0846 75.9333 16.1216C75.3743 15.1431 75.0949 14.0403 75.0949 12.8132C75.0949 11.5862 75.3743 10.4911 75.9333 9.52814C76.5078 8.56513 77.2997 7.81181 78.309 7.26818C79.3183 6.72455 80.4518 6.45274 81.7095 6.45274C82.9827 6.45274 84.124 6.72455 85.1333 7.26818C86.1425 7.81181 86.9267 8.56513 87.4857 9.52814C88.0602 10.4911 88.3474 11.5862 88.3474 12.8132C88.3474 14.0403 88.0602 15.1431 87.4857 16.1216C86.9267 17.0846 86.1425 17.8379 85.1333 18.3816C84.124 18.9252 82.9827 19.197 81.7095 19.197ZM81.7095 16.7041C82.7809 16.7041 83.6659 16.3468 84.3647 15.6323C85.0634 14.9179 85.4128 13.9782 85.4128 12.8132C85.4128 11.6483 85.0634 10.7086 84.3647 9.99411C83.6659 9.27962 82.7809 8.92238 81.7095 8.92238C80.6381 8.92238 79.7531 9.27962 79.0543 9.99411C78.3711 10.7086 78.0295 11.6483 78.0295 12.8132C78.0295 13.9782 78.3711 14.9179 79.0543 15.6323C79.7531 16.3468 80.6381 16.7041 81.7095 16.7041Z" fill="white"/>
<path d="M98.6078 18.3583C98.2662 18.6379 97.847 18.8475 97.3501 18.9873C96.8688 19.1271 96.3564 19.197 95.8129 19.197C94.4465 19.197 93.3906 18.8398 92.6453 18.1253C91.9 17.4108 91.5274 16.3701 91.5274 15.0033V9.01557H89.4778V6.68572H91.5274V3.8433H94.4387V6.68572H97.7694V9.01557H94.4387V14.9334C94.4387 15.5392 94.5863 16.0051 94.8813 16.3313C95.1763 16.6419 95.6033 16.7973 96.1623 16.7973C96.8144 16.7973 97.3579 16.6264 97.7926 16.2847L98.6078 18.3583Z" fill="white"/>
<path d="M106.3 19.197C105.011 19.197 103.854 18.9252 102.829 18.3816C101.805 17.8379 101.005 17.0846 100.43 16.1216C99.8558 15.1431 99.5686 14.0403 99.5686 12.8132C99.5686 11.5862 99.8558 10.4911 100.43 9.52814C101.005 8.56513 101.797 7.81181 102.806 7.26818C103.831 6.72455 104.995 6.45274 106.3 6.45274C107.526 6.45274 108.598 6.70125 109.514 7.19829C110.445 7.69532 111.144 8.40981 111.61 9.34175L109.374 10.6465C109.017 10.0718 108.567 9.64463 108.023 9.36505C107.495 9.06993 106.913 8.92238 106.276 8.92238C105.189 8.92238 104.289 9.27962 103.575 9.99411C102.86 10.6931 102.503 11.6328 102.503 12.8132C102.503 13.9937 102.853 14.9412 103.551 15.6556C104.266 16.3546 105.174 16.7041 106.276 16.7041C106.913 16.7041 107.495 16.5643 108.023 16.2847C108.567 15.9896 109.017 15.5547 109.374 14.98L111.61 16.2847C111.129 17.2166 110.422 17.9389 109.491 18.4515C108.574 18.9485 107.511 19.197 106.3 19.197Z" fill="white"/>
<path d="M118.878 6.45274C120.71 6.45274 122.108 6.89541 123.07 7.78075C124.049 8.65056 124.538 9.97081 124.538 11.7415V19.0339H121.789V17.5195C121.432 18.0632 120.92 18.4825 120.252 18.7776C119.6 19.0572 118.808 19.197 117.877 19.197C116.945 19.197 116.13 19.0417 115.431 18.731C114.732 18.4049 114.189 17.9622 113.801 17.403C113.428 16.8283 113.242 16.1837 113.242 15.4693C113.242 14.3509 113.653 13.4578 114.476 12.7899C115.315 12.1065 116.627 11.7648 118.412 11.7648H121.626V11.5784C121.626 10.7086 121.362 10.0407 120.835 9.57473C120.322 9.10876 119.554 8.87578 118.529 8.87578C117.83 8.87578 117.139 8.98451 116.456 9.20196C115.788 9.41941 115.221 9.72229 114.756 10.1106L113.614 7.99044C114.266 7.4934 115.051 7.11286 115.967 6.84881C116.883 6.58476 117.853 6.45274 118.878 6.45274ZM118.482 17.0769C119.212 17.0769 119.856 16.9138 120.415 16.5876C120.99 16.2459 121.394 15.7644 121.626 15.1431V13.6986H118.622C116.945 13.6986 116.106 14.25 116.106 15.3528C116.106 15.8809 116.316 16.3002 116.735 16.6109C117.155 16.9215 117.737 17.0769 118.482 17.0769Z" fill="white"/>
<path d="M143.972 6.45274C145.541 6.45274 146.783 6.91094 147.699 7.82735C148.615 8.72822 149.073 10.0873 149.073 11.9046V19.0339H146.162V12.2774C146.162 11.1901 145.921 10.3746 145.44 9.83102C144.958 9.27185 144.267 8.99227 143.367 8.99227C142.389 8.99227 141.604 9.31845 141.014 9.97081C140.424 10.6076 140.129 11.524 140.129 12.72V19.0339H137.218V12.2774C137.218 11.1901 136.977 10.3746 136.496 9.83102C136.015 9.27185 135.324 8.99227 134.423 8.99227C133.429 8.99227 132.637 9.31068 132.047 9.94751C131.473 10.5843 131.186 11.5085 131.186 12.72V19.0339H128.274V6.59253H131.046V8.17682C131.512 7.61766 132.094 7.19052 132.793 6.89541C133.491 6.60029 134.268 6.45274 135.122 6.45274C136.053 6.45274 136.876 6.63136 137.591 6.9886C138.32 7.33031 138.895 7.84288 139.314 8.5263C139.827 7.87394 140.486 7.36914 141.294 7.0119C142.101 6.63912 142.994 6.45274 143.972 6.45274Z" fill="white"/>
<path d="M159.688 6.45274C160.899 6.45274 161.978 6.71679 162.925 7.24488C163.888 7.77298 164.641 8.51854 165.184 9.48154C165.728 10.4445 165.999 11.5551 165.999 12.8132C165.999 14.0713 165.728 15.1897 165.184 16.1682C164.641 17.1312 163.888 17.8768 162.925 18.4049C161.978 18.933 160.899 19.197 159.688 19.197C158.011 19.197 156.683 18.6379 155.705 17.5195V23.5538H152.793V6.59253H155.565V8.22342C156.046 7.63319 156.636 7.19052 157.335 6.89541C158.049 6.60029 158.834 6.45274 159.688 6.45274ZM159.361 16.7041C160.433 16.7041 161.31 16.3468 161.993 15.6323C162.692 14.9179 163.041 13.9782 163.041 12.8132C163.041 11.6483 162.692 10.7086 161.993 9.99411C161.31 9.27962 160.433 8.92238 159.361 8.92238C158.663 8.92238 158.034 9.08547 157.475 9.41165C156.916 9.72229 156.473 10.1727 156.147 10.763C155.821 11.3532 155.658 12.0366 155.658 12.8132C155.658 13.5898 155.821 14.2733 156.147 14.8635C156.473 15.4537 156.916 15.9119 157.475 16.2381C158.034 16.5488 158.663 16.7041 159.361 16.7041Z" fill="white"/>
<path fill-rule="evenodd" clip-rule="evenodd" d="M0 0H8.64452C10.4863 0 12.2526 0.72669 13.5549 2.02021C14.8572 3.31372 15.5888 5.06811 15.5888 6.89742V25.1187H12.7968C12.7968 24.3903 12.5054 23.6917 11.9869 23.1766C11.4683 22.6615 10.765 22.3722 10.0316 22.3722H0V0ZM12.7968 20.3308V6.89742C12.7968 5.8036 12.3593 4.75459 11.5806 3.98115C10.8019 3.2077 9.74576 2.77319 8.64452 2.77319H2.79202V19.599H10.0316C11.0103 19.599 11.9623 19.8554 12.7968 20.3308Z" fill="white"/>
<path fill-rule="evenodd" clip-rule="evenodd" d="M14.8318 2.02021C16.1341 0.72669 17.9004 0 19.7421 0H28.3866V22.3722H18.355C17.6217 22.3722 16.9183 22.6615 16.3998 23.1766C15.8812 23.6917 15.5899 24.3903 15.5899 25.1187H12.7979V6.89742C12.7979 5.06811 13.5295 3.31372 14.8318 2.02021ZM15.5899 20.3308C16.4243 19.8554 17.3764 19.599 18.355 19.599H25.5946V2.77319H19.7421C18.6409 2.77319 17.5847 3.2077 16.806 3.98115C16.0273 4.75459 15.5899 5.8036 15.5899 6.89742V20.3308Z" fill="white"/>
</svg>
