<svg width="29" height="26" viewBox="0 0 29 26" fill="none" xmlns="http://www.w3.org/2000/svg">
<path fill-rule="evenodd" clip-rule="evenodd" d="M0 0H8.64452C10.4863 0 12.2526 0.72669 13.5549 2.02021C14.8572 3.31372 15.5888 5.06811 15.5888 6.89742V25.1187H12.7968C12.7968 24.3903 12.5054 23.6917 11.9869 23.1766C11.4683 22.6615 10.765 22.3722 10.0316 22.3722H0V0ZM12.7968 20.3308V6.89742C12.7968 5.8036 12.3593 4.75459 11.5806 3.98115C10.8019 3.2077 9.74576 2.77319 8.64452 2.77319H2.79202V19.599H10.0316C11.0103 19.599 11.9623 19.8554 12.7968 20.3308Z" fill="#2E303D"/>
<path fill-rule="evenodd" clip-rule="evenodd" d="M14.8318 2.02021C16.1341 0.72669 17.9004 0 19.7421 0H28.3866V22.3722H18.355C17.6217 22.3722 16.9183 22.6615 16.3998 23.1766C15.8812 23.6917 15.5899 24.3903 15.5899 25.1187H12.7979V6.89742C12.7979 5.06811 13.5295 3.31372 14.8318 2.02021ZM15.5899 20.3308C16.4243 19.8554 17.3764 19.599 18.355 19.599H25.5946V2.77319H19.7421C18.6409 2.77319 17.5847 3.2077 16.806 3.98115C16.0273 4.75459 15.5899 5.8036 15.5899 6.89742V20.3308Z" fill="#2E303D"/>
</svg>
