<svg fill="none" height="24" viewBox="0 0 24 24" width="24" xmlns="http://www.w3.org/2000/svg">
	<path clip-rule="evenodd" d="M20.5 2.00006H3.5C2.7 2.00006 2 2.60006 2 3.40006V20.5001C2 21.4001 2.7 22.0001 3.5 22.0001H20.5C21.3 22.0001 22 21.4001 22 20.6001V3.40006C22 2.60006 21.3 2.00006 20.5 2.00006ZM7.9 19.0001H5V9.50006H8V19.0001H7.9ZM6.4 8.20006C5.4 8.20006 4.7 7.40006 4.7 6.50006C4.7 5.60006 5.5 4.80006 6.4 4.80006C7.3 4.80006 8.1 5.60006 8.1 6.50006C8.1 7.40006 7.4 8.20006 6.4 8.20006ZM19 19.0001H16V14.4001C16 13.3001 16 11.9001 14.5 11.9001C13 11.9001 12.7 13.1001 12.7 14.4001V19.0001H9.7V9.50006H12.5V10.8001C12.9 10.0001 13.9 9.30006 15.3 9.30006C18.3 9.30006 18.9 11.3001 18.9 13.8001V19.0001H19Z" fill="#2E303D" fill-rule="evenodd" />
</svg>