<svg fill="none" height="20" viewBox="0 0 20 20" width="20" xmlns="http://www.w3.org/2000/svg">
	<path clip-rule="evenodd" d="M4.73545 3.97619C5.50259 3.30519 6.39904 2.77837 7.38254 2.43801C7.09421 3.06229 6.84196 3.78792 6.63463 4.59272C5.98236 4.43174 5.3481 4.22503 4.73545 3.97619ZM0 10C0 4.47715 4.47715 0 10 0C15.5228 0 20 4.47715 20 10C20 15.5228 15.5228 20 10 20C4.47715 20 0 15.5228 0 10ZM13.3654 4.59301C13.1581 3.78809 12.9058 3.06237 12.6175 2.43801C13.6011 2.77843 14.4977 3.30537 15.2649 3.97653C14.6522 4.22536 14.0178 4.43205 13.3654 4.59301ZM10.9715 3.67171C11.1226 4.04954 11.2622 4.47167 11.3866 4.93226C10.9306 4.97707 10.4683 5 10.0006 5C9.53251 5 9.06978 4.97703 8.61347 4.93215C8.73786 4.4716 8.87741 4.0495 9.02853 3.67171C9.33467 2.90634 9.6492 2.42118 9.89613 2.16007C9.93647 2.11741 9.9711 2.08451 10 2.05929C10.0289 2.08451 10.0635 2.11741 10.1039 2.16007C10.3508 2.42118 10.6653 2.90634 10.9715 3.67171ZM10.0006 7C9.3968 7 8.80079 6.96655 8.21435 6.90141C8.11963 7.56007 8.05328 8.26295 8.02145 9H11.9786C11.9467 8.263 11.8804 7.56016 11.7857 6.90154C11.1996 6.9666 10.604 7 10.0006 7ZM11.9786 11H8.02145C8.05328 11.737 8.11963 12.4399 8.21434 13.0985C8.80055 13.0334 9.39631 13 9.99988 13C10.6035 13 11.1994 13.0334 11.7857 13.0985C11.8804 12.4399 11.9467 11.737 11.9786 11ZM6.01975 9C6.05352 8.14962 6.12991 7.33058 6.24349 6.55641C5.23775 6.31438 4.26901 5.97735 3.3473 5.55534C2.67153 6.56482 2.21943 7.73667 2.06189 9H6.01975ZM2.06189 11H6.01975C6.05352 11.8503 6.1299 12.6693 6.24347 13.4434C5.23767 13.6854 4.26888 14.0224 3.34713 14.4444C2.67145 13.435 2.21942 12.2632 2.06189 11ZM13.9802 11H17.9381C17.7806 12.2633 17.3285 13.4351 16.6528 14.4445C15.7311 14.0225 14.7623 13.6855 13.7565 13.4435C13.8701 12.6693 13.9465 11.8503 13.9802 11ZM17.9381 9H13.9802C13.9465 8.14972 13.8701 7.33077 13.7566 6.55669C14.7624 6.31472 15.7312 5.97773 16.653 5.55576C17.3286 6.56514 17.7806 7.73684 17.9381 9ZM4.73521 16.0236C5.34793 15.7748 5.98225 15.5681 6.63459 15.4071C6.84192 16.212 7.09419 16.9377 7.38254 17.562C6.39894 17.2216 5.50241 16.6947 4.73521 16.0236ZM15.2647 16.0237C14.4975 16.6947 13.601 17.2216 12.6175 17.562C12.9058 16.9377 13.1581 16.212 13.3654 15.4072C14.0177 15.5681 14.652 15.7748 15.2647 16.0237ZM9.99988 15C10.4678 15 10.9304 15.023 11.3865 15.0678C11.2621 15.5284 11.1226 15.9505 10.9715 16.3283C10.6653 17.0937 10.3508 17.5788 10.1039 17.8399C10.0635 17.8826 10.0289 17.9155 10 17.9407C9.9711 17.9155 9.93647 17.8826 9.89613 17.8399C9.6492 17.5788 9.33467 17.0937 9.02853 16.3283C8.8774 15.9505 8.73785 15.5284 8.61345 15.0678C9.06953 15.023 9.53202 15 9.99988 15Z" fill="#1D2234" fill-rule="evenodd" />
</svg>