<svg fill="none" height="26" viewBox="0 0 203 26" width="203" xmlns="http://www.w3.org/2000/svg">
	<mask fill="black" height="17" id="path-1-outside-1_342_6780" maskUnits="userSpaceOnUse" width="160" x="43" y="4.40039">
		<rect fill="white" height="17" width="160" x="43" y="4.40039" />
		<path d="M49.0992 7.24883H44V5.40039H56.3017V7.24883H51.2025V20.2729H49.0992V7.24883Z" />
		<path d="M67.5459 14.7063C67.5459 14.8621 67.5317 15.0675 67.5034 15.3225H58.3674C58.4949 16.314 58.9269 17.1143 59.6635 17.7233C60.4142 18.3182 61.3419 18.6157 62.4467 18.6157C63.7923 18.6157 64.8759 18.1624 65.6974 17.2559L66.8235 18.5732C66.3136 19.1681 65.6762 19.6214 64.9113 19.933C64.1606 20.2446 63.3178 20.4004 62.383 20.4004C61.1932 20.4004 60.138 20.1596 59.2173 19.678C58.2966 19.1823 57.5813 18.4953 57.0714 17.6171C56.5756 16.7389 56.3278 15.7474 56.3278 14.6426C56.3278 13.5519 56.5686 12.5675 57.0501 11.6893C57.5459 10.8112 58.2187 10.1313 59.0686 9.64968C59.9326 9.15393 60.9028 8.90606 61.9793 8.90606C63.0558 8.90606 64.0119 9.15393 64.8476 9.64968C65.6974 10.1313 66.3561 10.8112 66.8235 11.6893C67.3051 12.5675 67.5459 13.5732 67.5459 14.7063ZM61.9793 10.627C61.002 10.627 60.1805 10.9245 59.5147 11.5194C58.8632 12.1143 58.4807 12.8933 58.3674 13.8565H65.5912C65.4779 12.9075 65.0884 12.1355 64.4227 11.5406C63.7711 10.9316 62.9567 10.627 61.9793 10.627Z" />
		<path d="M74.3799 8.90606C75.938 8.90606 77.1278 9.28849 77.9493 10.0534C78.785 10.8182 79.2029 11.9585 79.2029 13.474V20.2729H77.2695V18.7857C76.9295 19.3097 76.4409 19.7134 75.8035 19.9967C75.1802 20.2658 74.4366 20.4004 73.5726 20.4004C72.312 20.4004 71.2992 20.0959 70.5343 19.4868C69.7836 18.8777 69.4083 18.0774 69.4083 17.0859C69.4083 16.0944 69.7695 15.3012 70.4918 14.7063C71.2142 14.0973 72.3615 13.7927 73.9338 13.7927H77.1632V13.3891C77.1632 12.5109 76.9083 11.8381 76.3984 11.3706C75.8884 10.9032 75.1377 10.6695 74.1462 10.6695C73.4805 10.6695 72.829 10.7828 72.1916 11.0095C71.5542 11.2219 71.0159 11.5123 70.5768 11.8806L69.727 10.3508C70.3077 9.88339 71.0018 9.52929 71.8091 9.28849C72.6165 9.03353 73.4734 8.90606 74.3799 8.90606ZM73.9125 18.8282C74.6916 18.8282 75.3644 18.6582 75.9309 18.3182C76.4975 17.9641 76.9083 17.4684 77.1632 16.831V15.2587H74.0188C72.2907 15.2587 71.4267 15.8395 71.4267 17.001C71.4267 17.5675 71.6462 18.0137 72.0853 18.3395C72.5244 18.6653 73.1335 18.8282 73.9125 18.8282Z" />
		<path d="M97.2763 8.90606C98.6928 8.90606 99.8117 9.31682 100.633 10.1384C101.469 10.9599 101.887 12.178 101.887 13.7927V20.2729H99.8471V14.0265C99.8471 12.9358 99.5922 12.1143 99.0823 11.5619C98.5865 11.0095 97.8712 10.7333 96.9364 10.7333C95.9024 10.7333 95.0809 11.059 94.4718 11.7106C93.8627 12.348 93.5582 13.2687 93.5582 14.4726V20.2729H91.5185V14.0265C91.5185 12.9358 91.2636 12.1143 90.7537 11.5619C90.2579 11.0095 89.5426 10.7333 88.6078 10.7333C87.5738 10.7333 86.7522 11.059 86.1432 11.7106C85.5341 12.348 85.2296 13.2687 85.2296 14.4726V20.2729H83.1899V9.01229H85.1446V10.6908C85.5554 10.11 86.0936 9.67093 86.7593 9.37348C87.425 9.06186 88.1828 8.90606 89.0327 8.90606C89.9109 8.90606 90.6899 9.08311 91.3698 9.43722C92.0497 9.79133 92.5738 10.3083 92.942 10.9882C93.367 10.3367 93.9548 9.82674 94.7055 9.45847C95.4704 9.09019 96.3273 8.90606 97.2763 8.90606Z" />
		<path d="M122.224 18.4245V20.2729H111.431V5.40039H121.926V7.24883H113.555V11.8168H121.013V13.6228H113.555V18.4245H122.224Z" />
		<path d="M132.511 20.2729L129.261 15.9599L125.968 20.2729H123.694L128.135 14.5151L123.907 9.01229H126.18L129.282 13.0704L132.363 9.01229H134.594L130.344 14.5151L134.827 20.2729H132.511Z" />
		<path d="M143.597 19.6143C143.299 19.8692 142.931 20.0675 142.492 20.2092C142.053 20.3367 141.6 20.4004 141.132 20.4004C139.999 20.4004 139.121 20.0959 138.498 19.4868C137.875 18.8777 137.563 18.0066 137.563 16.8735V10.6908H135.651V9.01229H137.563V6.5477H139.603V9.01229H142.832V10.6908H139.603V16.7885C139.603 17.3976 139.751 17.865 140.049 18.1908C140.36 18.5165 140.799 18.6794 141.366 18.6794C141.989 18.6794 142.52 18.5024 142.96 18.1483L143.597 19.6143Z" />
		<path d="M148.23 10.9032C148.584 10.2517 149.108 9.75591 149.802 9.41597C150.496 9.07603 151.339 8.90606 152.331 8.90606V10.882C152.217 10.8678 152.061 10.8607 151.863 10.8607C150.758 10.8607 149.887 11.1936 149.25 11.8593C148.627 12.5109 148.315 13.4457 148.315 14.6638V20.2729H146.275V9.01229H148.23V10.9032Z" />
		<path d="M159.137 8.90606C160.695 8.90606 161.885 9.28849 162.706 10.0534C163.542 10.8182 163.96 11.9585 163.96 13.474V20.2729H162.026V18.7857C161.686 19.3097 161.198 19.7134 160.56 19.9967C159.937 20.2658 159.193 20.4004 158.329 20.4004C157.069 20.4004 156.056 20.0959 155.291 19.4868C154.54 18.8777 154.165 18.0774 154.165 17.0859C154.165 16.0944 154.526 15.3012 155.249 14.7063C155.971 14.0973 157.118 13.7927 158.691 13.7927H161.92V13.3891C161.92 12.5109 161.665 11.8381 161.155 11.3706C160.645 10.9032 159.894 10.6695 158.903 10.6695C158.237 10.6695 157.586 10.7828 156.948 11.0095C156.311 11.2219 155.773 11.5123 155.334 11.8806L154.484 10.3508C155.064 9.88339 155.759 9.52929 156.566 9.28849C157.373 9.03353 158.23 8.90606 159.137 8.90606ZM158.669 18.8282C159.448 18.8282 160.121 18.6582 160.688 18.3182C161.254 17.9641 161.665 17.4684 161.92 16.831V15.2587H158.776C157.047 15.2587 156.183 15.8395 156.183 17.001C156.183 17.5675 156.403 18.0137 156.842 18.3395C157.281 18.6653 157.89 18.8282 158.669 18.8282Z" />
		<path d="M173.959 8.90606C175.39 8.90606 176.523 9.3239 177.359 10.1596C178.209 10.9811 178.634 12.1922 178.634 13.7927V20.2729H176.594V14.0265C176.594 12.9358 176.332 12.1143 175.808 11.5619C175.284 11.0095 174.533 10.7333 173.556 10.7333C172.451 10.7333 171.58 11.059 170.942 11.7106C170.305 12.348 169.986 13.2687 169.986 14.4726V20.2729H167.947V9.01229H169.901V10.712C170.312 10.1313 170.865 9.68509 171.559 9.37348C172.267 9.06186 173.067 8.90606 173.959 8.90606Z" />
		<path d="M192.86 14.7063C192.86 14.8621 192.846 15.0675 192.818 15.3225H183.682C183.809 16.314 184.241 17.1143 184.978 17.7233C185.728 18.3182 186.656 18.6157 187.761 18.6157C189.107 18.6157 190.19 18.1624 191.012 17.2559L192.138 18.5732C191.628 19.1681 190.99 19.6214 190.226 19.933C189.475 20.2446 188.632 20.4004 187.697 20.4004C186.507 20.4004 185.452 20.1596 184.532 19.678C183.611 19.1823 182.896 18.4953 182.386 17.6171C181.89 16.7389 181.642 15.7474 181.642 14.6426C181.642 13.5519 181.883 12.5675 182.364 11.6893C182.86 10.8112 183.533 10.1313 184.383 9.64968C185.247 9.15393 186.217 8.90606 187.294 8.90606C188.37 8.90606 189.326 9.15393 190.162 9.64968C191.012 10.1313 191.67 10.8112 192.138 11.6893C192.619 12.5675 192.86 13.5732 192.86 14.7063ZM187.294 10.627C186.316 10.627 185.495 10.9245 184.829 11.5194C184.177 12.1143 183.795 12.8933 183.682 13.8565H190.905C190.792 12.9075 190.403 12.1355 189.737 11.5406C189.085 10.9316 188.271 10.627 187.294 10.627Z" />
		<path d="M202.236 19.6143C201.939 19.8692 201.571 20.0675 201.132 20.2092C200.692 20.3367 200.239 20.4004 199.772 20.4004C198.639 20.4004 197.76 20.0959 197.137 19.4868C196.514 18.8777 196.202 18.0066 196.202 16.8735V10.6908H194.29V9.01229H196.202V6.5477H198.242V9.01229H201.471V10.6908H198.242V16.7885C198.242 17.3976 198.391 17.865 198.688 18.1908C199 18.5165 199.439 18.6794 200.005 18.6794C200.629 18.6794 201.16 18.5024 201.599 18.1483L202.236 19.6143Z" />
	</mask>
	<path d="M49.0992 7.24883H44V5.40039H56.3017V7.24883H51.2025V20.2729H49.0992V7.24883Z" fill="white" />
	<path d="M67.5459 14.7063C67.5459 14.8621 67.5317 15.0675 67.5034 15.3225H58.3674C58.4949 16.314 58.9269 17.1143 59.6635 17.7233C60.4142 18.3182 61.3419 18.6157 62.4467 18.6157C63.7923 18.6157 64.8759 18.1624 65.6974 17.2559L66.8235 18.5732C66.3136 19.1681 65.6762 19.6214 64.9113 19.933C64.1606 20.2446 63.3178 20.4004 62.383 20.4004C61.1932 20.4004 60.138 20.1596 59.2173 19.678C58.2966 19.1823 57.5813 18.4953 57.0714 17.6171C56.5756 16.7389 56.3278 15.7474 56.3278 14.6426C56.3278 13.5519 56.5686 12.5675 57.0501 11.6893C57.5459 10.8112 58.2187 10.1313 59.0686 9.64968C59.9326 9.15393 60.9028 8.90606 61.9793 8.90606C63.0558 8.90606 64.0119 9.15393 64.8476 9.64968C65.6974 10.1313 66.3561 10.8112 66.8235 11.6893C67.3051 12.5675 67.5459 13.5732 67.5459 14.7063ZM61.9793 10.627C61.002 10.627 60.1805 10.9245 59.5147 11.5194C58.8632 12.1143 58.4807 12.8933 58.3674 13.8565H65.5912C65.4779 12.9075 65.0884 12.1355 64.4227 11.5406C63.7711 10.9316 62.9567 10.627 61.9793 10.627Z" fill="white" />
	<path d="M74.3799 8.90606C75.938 8.90606 77.1278 9.28849 77.9493 10.0534C78.785 10.8182 79.2029 11.9585 79.2029 13.474V20.2729H77.2695V18.7857C76.9295 19.3097 76.4409 19.7134 75.8035 19.9967C75.1802 20.2658 74.4366 20.4004 73.5726 20.4004C72.312 20.4004 71.2992 20.0959 70.5343 19.4868C69.7836 18.8777 69.4083 18.0774 69.4083 17.0859C69.4083 16.0944 69.7695 15.3012 70.4918 14.7063C71.2142 14.0973 72.3615 13.7927 73.9338 13.7927H77.1632V13.3891C77.1632 12.5109 76.9083 11.8381 76.3984 11.3706C75.8884 10.9032 75.1377 10.6695 74.1462 10.6695C73.4805 10.6695 72.829 10.7828 72.1916 11.0095C71.5542 11.2219 71.0159 11.5123 70.5768 11.8806L69.727 10.3508C70.3077 9.88339 71.0018 9.52929 71.8091 9.28849C72.6165 9.03353 73.4734 8.90606 74.3799 8.90606ZM73.9125 18.8282C74.6916 18.8282 75.3644 18.6582 75.9309 18.3182C76.4975 17.9641 76.9083 17.4684 77.1632 16.831V15.2587H74.0188C72.2907 15.2587 71.4267 15.8395 71.4267 17.001C71.4267 17.5675 71.6462 18.0137 72.0853 18.3395C72.5244 18.6653 73.1335 18.8282 73.9125 18.8282Z" fill="white" />
	<path d="M97.2763 8.90606C98.6928 8.90606 99.8117 9.31682 100.633 10.1384C101.469 10.9599 101.887 12.178 101.887 13.7927V20.2729H99.8471V14.0265C99.8471 12.9358 99.5922 12.1143 99.0823 11.5619C98.5865 11.0095 97.8712 10.7333 96.9364 10.7333C95.9024 10.7333 95.0809 11.059 94.4718 11.7106C93.8627 12.348 93.5582 13.2687 93.5582 14.4726V20.2729H91.5185V14.0265C91.5185 12.9358 91.2636 12.1143 90.7537 11.5619C90.2579 11.0095 89.5426 10.7333 88.6078 10.7333C87.5738 10.7333 86.7522 11.059 86.1432 11.7106C85.5341 12.348 85.2296 13.2687 85.2296 14.4726V20.2729H83.1899V9.01229H85.1446V10.6908C85.5554 10.11 86.0936 9.67093 86.7593 9.37348C87.425 9.06186 88.1828 8.90606 89.0327 8.90606C89.9109 8.90606 90.6899 9.08311 91.3698 9.43722C92.0497 9.79133 92.5738 10.3083 92.942 10.9882C93.367 10.3367 93.9548 9.82674 94.7055 9.45847C95.4704 9.09019 96.3273 8.90606 97.2763 8.90606Z" fill="white" />
	<path d="M122.224 18.4245V20.2729H111.431V5.40039H121.926V7.24883H113.555V11.8168H121.013V13.6228H113.555V18.4245H122.224Z" fill="white" />
	<path d="M132.511 20.2729L129.261 15.9599L125.968 20.2729H123.694L128.135 14.5151L123.907 9.01229H126.18L129.282 13.0704L132.363 9.01229H134.594L130.344 14.5151L134.827 20.2729H132.511Z" fill="white" />
	<path d="M143.597 19.6143C143.299 19.8692 142.931 20.0675 142.492 20.2092C142.053 20.3367 141.6 20.4004 141.132 20.4004C139.999 20.4004 139.121 20.0959 138.498 19.4868C137.875 18.8777 137.563 18.0066 137.563 16.8735V10.6908H135.651V9.01229H137.563V6.5477H139.603V9.01229H142.832V10.6908H139.603V16.7885C139.603 17.3976 139.751 17.865 140.049 18.1908C140.36 18.5165 140.799 18.6794 141.366 18.6794C141.989 18.6794 142.52 18.5024 142.96 18.1483L143.597 19.6143Z" fill="white" />
	<path d="M148.23 10.9032C148.584 10.2517 149.108 9.75591 149.802 9.41597C150.496 9.07603 151.339 8.90606 152.331 8.90606V10.882C152.217 10.8678 152.061 10.8607 151.863 10.8607C150.758 10.8607 149.887 11.1936 149.25 11.8593C148.627 12.5109 148.315 13.4457 148.315 14.6638V20.2729H146.275V9.01229H148.23V10.9032Z" fill="white" />
	<path d="M159.137 8.90606C160.695 8.90606 161.885 9.28849 162.706 10.0534C163.542 10.8182 163.96 11.9585 163.96 13.474V20.2729H162.026V18.7857C161.686 19.3097 161.198 19.7134 160.56 19.9967C159.937 20.2658 159.193 20.4004 158.329 20.4004C157.069 20.4004 156.056 20.0959 155.291 19.4868C154.54 18.8777 154.165 18.0774 154.165 17.0859C154.165 16.0944 154.526 15.3012 155.249 14.7063C155.971 14.0973 157.118 13.7927 158.691 13.7927H161.92V13.3891C161.92 12.5109 161.665 11.8381 161.155 11.3706C160.645 10.9032 159.894 10.6695 158.903 10.6695C158.237 10.6695 157.586 10.7828 156.948 11.0095C156.311 11.2219 155.773 11.5123 155.334 11.8806L154.484 10.3508C155.064 9.88339 155.759 9.52929 156.566 9.28849C157.373 9.03353 158.23 8.90606 159.137 8.90606ZM158.669 18.8282C159.448 18.8282 160.121 18.6582 160.688 18.3182C161.254 17.9641 161.665 17.4684 161.92 16.831V15.2587H158.776C157.047 15.2587 156.183 15.8395 156.183 17.001C156.183 17.5675 156.403 18.0137 156.842 18.3395C157.281 18.6653 157.89 18.8282 158.669 18.8282Z" fill="white" />
	<path d="M173.959 8.90606C175.39 8.90606 176.523 9.3239 177.359 10.1596C178.209 10.9811 178.634 12.1922 178.634 13.7927V20.2729H176.594V14.0265C176.594 12.9358 176.332 12.1143 175.808 11.5619C175.284 11.0095 174.533 10.7333 173.556 10.7333C172.451 10.7333 171.58 11.059 170.942 11.7106C170.305 12.348 169.986 13.2687 169.986 14.4726V20.2729H167.947V9.01229H169.901V10.712C170.312 10.1313 170.865 9.68509 171.559 9.37348C172.267 9.06186 173.067 8.90606 173.959 8.90606Z" fill="white" />
	<path d="M192.86 14.7063C192.86 14.8621 192.846 15.0675 192.818 15.3225H183.682C183.809 16.314 184.241 17.1143 184.978 17.7233C185.728 18.3182 186.656 18.6157 187.761 18.6157C189.107 18.6157 190.19 18.1624 191.012 17.2559L192.138 18.5732C191.628 19.1681 190.99 19.6214 190.226 19.933C189.475 20.2446 188.632 20.4004 187.697 20.4004C186.507 20.4004 185.452 20.1596 184.532 19.678C183.611 19.1823 182.896 18.4953 182.386 17.6171C181.89 16.7389 181.642 15.7474 181.642 14.6426C181.642 13.5519 181.883 12.5675 182.364 11.6893C182.86 10.8112 183.533 10.1313 184.383 9.64968C185.247 9.15393 186.217 8.90606 187.294 8.90606C188.37 8.90606 189.326 9.15393 190.162 9.64968C191.012 10.1313 191.67 10.8112 192.138 11.6893C192.619 12.5675 192.86 13.5732 192.86 14.7063ZM187.294 10.627C186.316 10.627 185.495 10.9245 184.829 11.5194C184.177 12.1143 183.795 12.8933 183.682 13.8565H190.905C190.792 12.9075 190.403 12.1355 189.737 11.5406C189.085 10.9316 188.271 10.627 187.294 10.627Z" fill="white" />
	<path d="M202.236 19.6143C201.939 19.8692 201.571 20.0675 201.132 20.2092C200.692 20.3367 200.239 20.4004 199.772 20.4004C198.639 20.4004 197.76 20.0959 197.137 19.4868C196.514 18.8777 196.202 18.0066 196.202 16.8735V10.6908H194.29V9.01229H196.202V6.5477H198.242V9.01229H201.471V10.6908H198.242V16.7885C198.242 17.3976 198.391 17.865 198.688 18.1908C199 18.5165 199.439 18.6794 200.005 18.6794C200.629 18.6794 201.16 18.5024 201.599 18.1483L202.236 19.6143Z" fill="white" />
	<path d="M49.0992 7.24883H44V5.40039H56.3017V7.24883H51.2025V20.2729H49.0992V7.24883Z" mask="url(#path-1-outside-1_342_6780)" stroke="white" stroke-width="0.5" />
	<path d="M67.5459 14.7063C67.5459 14.8621 67.5317 15.0675 67.5034 15.3225H58.3674C58.4949 16.314 58.9269 17.1143 59.6635 17.7233C60.4142 18.3182 61.3419 18.6157 62.4467 18.6157C63.7923 18.6157 64.8759 18.1624 65.6974 17.2559L66.8235 18.5732C66.3136 19.1681 65.6762 19.6214 64.9113 19.933C64.1606 20.2446 63.3178 20.4004 62.383 20.4004C61.1932 20.4004 60.138 20.1596 59.2173 19.678C58.2966 19.1823 57.5813 18.4953 57.0714 17.6171C56.5756 16.7389 56.3278 15.7474 56.3278 14.6426C56.3278 13.5519 56.5686 12.5675 57.0501 11.6893C57.5459 10.8112 58.2187 10.1313 59.0686 9.64968C59.9326 9.15393 60.9028 8.90606 61.9793 8.90606C63.0558 8.90606 64.0119 9.15393 64.8476 9.64968C65.6974 10.1313 66.3561 10.8112 66.8235 11.6893C67.3051 12.5675 67.5459 13.5732 67.5459 14.7063ZM61.9793 10.627C61.002 10.627 60.1805 10.9245 59.5147 11.5194C58.8632 12.1143 58.4807 12.8933 58.3674 13.8565H65.5912C65.4779 12.9075 65.0884 12.1355 64.4227 11.5406C63.7711 10.9316 62.9567 10.627 61.9793 10.627Z" mask="url(#path-1-outside-1_342_6780)" stroke="white" stroke-width="0.5" />
	<path d="M74.3799 8.90606C75.938 8.90606 77.1278 9.28849 77.9493 10.0534C78.785 10.8182 79.2029 11.9585 79.2029 13.474V20.2729H77.2695V18.7857C76.9295 19.3097 76.4409 19.7134 75.8035 19.9967C75.1802 20.2658 74.4366 20.4004 73.5726 20.4004C72.312 20.4004 71.2992 20.0959 70.5343 19.4868C69.7836 18.8777 69.4083 18.0774 69.4083 17.0859C69.4083 16.0944 69.7695 15.3012 70.4918 14.7063C71.2142 14.0973 72.3615 13.7927 73.9338 13.7927H77.1632V13.3891C77.1632 12.5109 76.9083 11.8381 76.3984 11.3706C75.8884 10.9032 75.1377 10.6695 74.1462 10.6695C73.4805 10.6695 72.829 10.7828 72.1916 11.0095C71.5542 11.2219 71.0159 11.5123 70.5768 11.8806L69.727 10.3508C70.3077 9.88339 71.0018 9.52929 71.8091 9.28849C72.6165 9.03353 73.4734 8.90606 74.3799 8.90606ZM73.9125 18.8282C74.6916 18.8282 75.3644 18.6582 75.9309 18.3182C76.4975 17.9641 76.9083 17.4684 77.1632 16.831V15.2587H74.0188C72.2907 15.2587 71.4267 15.8395 71.4267 17.001C71.4267 17.5675 71.6462 18.0137 72.0853 18.3395C72.5244 18.6653 73.1335 18.8282 73.9125 18.8282Z" mask="url(#path-1-outside-1_342_6780)" stroke="white" stroke-width="0.5" />
	<path d="M97.2763 8.90606C98.6928 8.90606 99.8117 9.31682 100.633 10.1384C101.469 10.9599 101.887 12.178 101.887 13.7927V20.2729H99.8471V14.0265C99.8471 12.9358 99.5922 12.1143 99.0823 11.5619C98.5865 11.0095 97.8712 10.7333 96.9364 10.7333C95.9024 10.7333 95.0809 11.059 94.4718 11.7106C93.8627 12.348 93.5582 13.2687 93.5582 14.4726V20.2729H91.5185V14.0265C91.5185 12.9358 91.2636 12.1143 90.7537 11.5619C90.2579 11.0095 89.5426 10.7333 88.6078 10.7333C87.5738 10.7333 86.7522 11.059 86.1432 11.7106C85.5341 12.348 85.2296 13.2687 85.2296 14.4726V20.2729H83.1899V9.01229H85.1446V10.6908C85.5554 10.11 86.0936 9.67093 86.7593 9.37348C87.425 9.06186 88.1828 8.90606 89.0327 8.90606C89.9109 8.90606 90.6899 9.08311 91.3698 9.43722C92.0497 9.79133 92.5738 10.3083 92.942 10.9882C93.367 10.3367 93.9548 9.82674 94.7055 9.45847C95.4704 9.09019 96.3273 8.90606 97.2763 8.90606Z" mask="url(#path-1-outside-1_342_6780)" stroke="white" stroke-width="0.5" />
	<path d="M122.224 18.4245V20.2729H111.431V5.40039H121.926V7.24883H113.555V11.8168H121.013V13.6228H113.555V18.4245H122.224Z" mask="url(#path-1-outside-1_342_6780)" stroke="white" stroke-width="0.5" />
	<path d="M132.511 20.2729L129.261 15.9599L125.968 20.2729H123.694L128.135 14.5151L123.907 9.01229H126.18L129.282 13.0704L132.363 9.01229H134.594L130.344 14.5151L134.827 20.2729H132.511Z" mask="url(#path-1-outside-1_342_6780)" stroke="white" stroke-width="0.5" />
	<path d="M143.597 19.6143C143.299 19.8692 142.931 20.0675 142.492 20.2092C142.053 20.3367 141.6 20.4004 141.132 20.4004C139.999 20.4004 139.121 20.0959 138.498 19.4868C137.875 18.8777 137.563 18.0066 137.563 16.8735V10.6908H135.651V9.01229H137.563V6.5477H139.603V9.01229H142.832V10.6908H139.603V16.7885C139.603 17.3976 139.751 17.865 140.049 18.1908C140.36 18.5165 140.799 18.6794 141.366 18.6794C141.989 18.6794 142.52 18.5024 142.96 18.1483L143.597 19.6143Z" mask="url(#path-1-outside-1_342_6780)" stroke="white" stroke-width="0.5" />
	<path d="M148.23 10.9032C148.584 10.2517 149.108 9.75591 149.802 9.41597C150.496 9.07603 151.339 8.90606 152.331 8.90606V10.882C152.217 10.8678 152.061 10.8607 151.863 10.8607C150.758 10.8607 149.887 11.1936 149.25 11.8593C148.627 12.5109 148.315 13.4457 148.315 14.6638V20.2729H146.275V9.01229H148.23V10.9032Z" mask="url(#path-1-outside-1_342_6780)" stroke="white" stroke-width="0.5" />
	<path d="M159.137 8.90606C160.695 8.90606 161.885 9.28849 162.706 10.0534C163.542 10.8182 163.96 11.9585 163.96 13.474V20.2729H162.026V18.7857C161.686 19.3097 161.198 19.7134 160.56 19.9967C159.937 20.2658 159.193 20.4004 158.329 20.4004C157.069 20.4004 156.056 20.0959 155.291 19.4868C154.54 18.8777 154.165 18.0774 154.165 17.0859C154.165 16.0944 154.526 15.3012 155.249 14.7063C155.971 14.0973 157.118 13.7927 158.691 13.7927H161.92V13.3891C161.92 12.5109 161.665 11.8381 161.155 11.3706C160.645 10.9032 159.894 10.6695 158.903 10.6695C158.237 10.6695 157.586 10.7828 156.948 11.0095C156.311 11.2219 155.773 11.5123 155.334 11.8806L154.484 10.3508C155.064 9.88339 155.759 9.52929 156.566 9.28849C157.373 9.03353 158.23 8.90606 159.137 8.90606ZM158.669 18.8282C159.448 18.8282 160.121 18.6582 160.688 18.3182C161.254 17.9641 161.665 17.4684 161.92 16.831V15.2587H158.776C157.047 15.2587 156.183 15.8395 156.183 17.001C156.183 17.5675 156.403 18.0137 156.842 18.3395C157.281 18.6653 157.89 18.8282 158.669 18.8282Z" mask="url(#path-1-outside-1_342_6780)" stroke="white" stroke-width="0.5" />
	<path d="M173.959 8.90606C175.39 8.90606 176.523 9.3239 177.359 10.1596C178.209 10.9811 178.634 12.1922 178.634 13.7927V20.2729H176.594V14.0265C176.594 12.9358 176.332 12.1143 175.808 11.5619C175.284 11.0095 174.533 10.7333 173.556 10.7333C172.451 10.7333 171.58 11.059 170.942 11.7106C170.305 12.348 169.986 13.2687 169.986 14.4726V20.2729H167.947V9.01229H169.901V10.712C170.312 10.1313 170.865 9.68509 171.559 9.37348C172.267 9.06186 173.067 8.90606 173.959 8.90606Z" mask="url(#path-1-outside-1_342_6780)" stroke="white" stroke-width="0.5" />
	<path d="M192.86 14.7063C192.86 14.8621 192.846 15.0675 192.818 15.3225H183.682C183.809 16.314 184.241 17.1143 184.978 17.7233C185.728 18.3182 186.656 18.6157 187.761 18.6157C189.107 18.6157 190.19 18.1624 191.012 17.2559L192.138 18.5732C191.628 19.1681 190.99 19.6214 190.226 19.933C189.475 20.2446 188.632 20.4004 187.697 20.4004C186.507 20.4004 185.452 20.1596 184.532 19.678C183.611 19.1823 182.896 18.4953 182.386 17.6171C181.89 16.7389 181.642 15.7474 181.642 14.6426C181.642 13.5519 181.883 12.5675 182.364 11.6893C182.86 10.8112 183.533 10.1313 184.383 9.64968C185.247 9.15393 186.217 8.90606 187.294 8.90606C188.37 8.90606 189.326 9.15393 190.162 9.64968C191.012 10.1313 191.67 10.8112 192.138 11.6893C192.619 12.5675 192.86 13.5732 192.86 14.7063ZM187.294 10.627C186.316 10.627 185.495 10.9245 184.829 11.5194C184.177 12.1143 183.795 12.8933 183.682 13.8565H190.905C190.792 12.9075 190.403 12.1355 189.737 11.5406C189.085 10.9316 188.271 10.627 187.294 10.627Z" mask="url(#path-1-outside-1_342_6780)" stroke="white" stroke-width="0.5" />
	<path d="M202.236 19.6143C201.939 19.8692 201.571 20.0675 201.132 20.2092C200.692 20.3367 200.239 20.4004 199.772 20.4004C198.639 20.4004 197.76 20.0959 197.137 19.4868C196.514 18.8777 196.202 18.0066 196.202 16.8735V10.6908H194.29V9.01229H196.202V6.5477H198.242V9.01229H201.471V10.6908H198.242V16.7885C198.242 17.3976 198.391 17.865 198.688 18.1908C199 18.5165 199.439 18.6794 200.005 18.6794C200.629 18.6794 201.16 18.5024 201.599 18.1483L202.236 19.6143Z" mask="url(#path-1-outside-1_342_6780)" stroke="white" stroke-width="0.5" />
	<path clip-rule="evenodd" d="M2.79729 17.1577C3.94808 16.0325 5.50888 15.4004 7.13634 15.4004H16.9545C18.582 15.4004 20.1428 16.0325 21.2935 17.1577C22.4443 18.283 23.0908 19.8091 23.0908 21.4004V23.8004C23.0908 24.4631 22.5414 25.0004 21.8636 25.0004C21.1858 25.0004 20.6363 24.4631 20.6363 23.8004V21.4004C20.6363 20.4456 20.2484 19.5299 19.5579 18.8548C18.8675 18.1797 17.931 17.8004 16.9545 17.8004H7.13634C6.15987 17.8004 5.22339 18.1797 4.53291 18.8548C3.84244 19.5299 3.45454 20.4456 3.45454 21.4004V23.8004C3.45454 24.4631 2.90507 25.0004 2.22727 25.0004C1.54947 25.0004 1 24.4631 1 23.8004V21.4004C1 19.8091 1.64651 18.283 2.79729 17.1577Z" fill="white" fill-rule="evenodd" stroke="white" stroke-linecap="round" stroke-linejoin="round" stroke-width="0.2" />
	<path clip-rule="evenodd" d="M12.0465 3.39999C10.0131 3.39999 8.36469 5.01176 8.36469 6.99998C8.36469 8.9882 10.0131 10.6 12.0465 10.6C14.0799 10.6 15.7283 8.9882 15.7283 6.99998C15.7283 5.01176 14.0799 3.39999 12.0465 3.39999ZM5.91016 6.99998C5.91016 3.68628 8.65749 1 12.0465 1C15.4355 1 18.1828 3.68628 18.1828 6.99998C18.1828 10.3137 15.4355 13 12.0465 13C8.65749 13 5.91016 10.3137 5.91016 6.99998Z" fill="white" fill-rule="evenodd" stroke="white" stroke-linecap="round" stroke-linejoin="round" stroke-width="0.2" />
	<path clip-rule="evenodd" d="M24.3576 16.455C24.5271 15.8133 25.1965 15.4274 25.8527 15.5931C27.1692 15.9254 28.3355 16.6759 29.1685 17.7265C30.0015 18.7772 30.454 20.0687 30.455 21.3981L30.455 23.799C30.455 24.4617 29.9055 24.9989 29.2277 24.9989C28.5499 24.9989 28.0005 24.4617 28.0005 23.799L28.0005 21.3999C28.0005 21.3997 28.0005 21.4 28.0005 21.3999C27.9998 20.6023 27.7283 19.8273 27.2285 19.1969C26.7287 18.5665 26.029 18.1163 25.2391 17.9169C24.5828 17.7512 24.1882 17.0967 24.3576 16.455Z" fill="#40BF9F" fill-rule="evenodd" stroke="#40BF9F" stroke-linecap="round" stroke-linejoin="round" stroke-width="0.2" />
	<path clip-rule="evenodd" d="M19.4469 2.05889C19.615 1.41686 20.2836 1.02965 20.9402 1.19404C22.2601 1.52449 23.4301 2.27509 24.2655 3.3275C25.101 4.37991 25.5545 5.67427 25.5545 7.00652C25.5545 8.33878 25.101 9.63314 24.2655 10.6855C23.4301 11.738 22.2601 12.4886 20.9402 12.819C20.2836 12.9834 19.615 12.5962 19.4469 11.9542C19.2787 11.3121 19.6747 10.6584 20.3314 10.494C21.1233 10.2957 21.8253 9.84539 22.3266 9.21394C22.8278 8.58249 23.0999 7.80587 23.0999 7.00652C23.0999 6.20717 22.8278 5.43056 22.3266 4.79911C21.8253 4.16766 21.1233 3.7173 20.3314 3.51903C19.6747 3.35465 19.2787 2.70092 19.4469 2.05889Z" fill="#40BF9F" fill-rule="evenodd" stroke="#40BF9F" stroke-linecap="round" stroke-linejoin="round" stroke-width="0.2" />
</svg>