<svg fill="none" height="22" viewBox="0 0 22 22" width="22" xmlns="http://www.w3.org/2000/svg">
	<path clip-rule="evenodd" d="M11.0197 0.0820312C4.95658 0.0820312 0.0400391 5.08149 0.0400391 11.2491C0.0400391 16.1831 3.18604 20.3691 7.54858 21.8457C8.09731 21.9491 8.29877 21.6035 8.29877 21.3085C8.29877 21.0422 8.28859 20.1625 8.28386 19.2294C5.22931 19.9049 4.58477 17.9118 4.58477 17.9118C4.08531 16.621 3.36568 16.2778 3.36568 16.2778C2.36949 15.5847 3.44077 15.5989 3.44077 15.5989C4.54331 15.6775 5.12386 16.7497 5.12386 16.7497C6.10313 18.457 7.6924 17.9634 8.31895 17.678C8.41749 16.9565 8.70204 16.4635 9.01604 16.1848C6.57731 15.9024 4.01368 14.9448 4.01368 10.6659C4.01368 9.44665 4.44258 8.45046 5.14495 7.66841C5.03095 7.38695 4.65513 6.25133 5.25131 4.71312C5.25131 4.71312 6.17331 4.41298 8.27149 5.8578C9.14731 5.61037 10.0866 5.48629 11.0197 5.48204C11.9528 5.48629 12.8928 5.61037 13.7702 5.8578C15.8659 4.41298 16.7866 4.71312 16.7866 4.71312C17.3842 6.25133 17.0082 7.38695 16.8942 7.66841C17.5982 8.45046 18.0242 9.44665 18.0242 10.6659C18.0242 14.955 15.4557 15.8994 13.0108 16.1759C13.4046 16.5224 13.7555 17.202 13.7555 18.2439C13.7555 19.7379 13.7428 20.9405 13.7428 21.3085C13.7428 21.6057 13.9404 21.9539 14.4969 21.8442C18.8571 20.3659 21.9991 16.1814 21.9991 11.2491C21.9991 5.08149 17.0833 0.0820312 11.0197 0.0820312Z" fill="#1D2234" fill-rule="evenodd" />
	<path clip-rule="evenodd" d="M4.19858 16.1156C4.1744 16.1713 4.08858 16.1877 4.0104 16.1496C3.93077 16.1132 3.88604 16.0376 3.91186 15.9819C3.93549 15.9248 4.02149 15.909 4.10095 15.947C4.18077 15.9836 4.22622 16.0599 4.19858 16.1156Z" fill="#1D2234" fill-rule="evenodd" />
	<path clip-rule="evenodd" d="M4.64331 16.6201C4.59095 16.6695 4.48858 16.6465 4.41913 16.5685C4.34731 16.4906 4.33386 16.3865 4.38695 16.3364C4.44095 16.287 4.54022 16.3102 4.61222 16.388C4.68404 16.4668 4.69804 16.5702 4.64331 16.6201Z" fill="#1D2234" fill-rule="evenodd" />
	<path clip-rule="evenodd" d="M5.07622 17.2633C5.00895 17.3108 4.89895 17.2662 4.83095 17.1669C4.76368 17.0676 4.76368 16.9485 4.8324 16.9008C4.90058 16.8531 5.00895 16.896 5.07786 16.9946C5.14495 17.0953 5.14495 17.2146 5.07622 17.2633Z" fill="#1D2234" fill-rule="evenodd" />
	<path clip-rule="evenodd" d="M5.66931 17.8846C5.60913 17.9521 5.48095 17.934 5.38713 17.8419C5.29113 17.7518 5.2644 17.624 5.32477 17.5565C5.38568 17.4889 5.51458 17.5079 5.60913 17.5993C5.7044 17.6891 5.73349 17.8178 5.66931 17.8846Z" fill="#1D2234" fill-rule="evenodd" />
	<path clip-rule="evenodd" d="M6.48749 18.2454C6.46095 18.3329 6.33749 18.3726 6.21313 18.3355C6.08895 18.2972 6.00768 18.1947 6.03277 18.1063C6.05858 18.0183 6.18258 17.9769 6.30786 18.0166C6.43186 18.0547 6.51331 18.1564 6.48749 18.2454Z" fill="#1D2234" fill-rule="evenodd" />
	<path clip-rule="evenodd" d="M7.38604 18.3123C7.38913 18.4044 7.28368 18.4808 7.15313 18.4823C7.02186 18.4854 6.91568 18.4109 6.91422 18.3203C6.91422 18.2273 7.01731 18.1516 7.14858 18.1494C7.27913 18.1468 7.38604 18.2208 7.38604 18.3123Z" fill="#1D2234" fill-rule="evenodd" />
	<path clip-rule="evenodd" d="M8.22222 18.1675C8.23786 18.2574 8.14713 18.3497 8.01749 18.3741C7.89004 18.398 7.77204 18.3425 7.75586 18.2533C7.74004 18.1613 7.8324 18.069 7.95968 18.0451C8.08949 18.0222 8.20568 18.0762 8.22222 18.1675Z" fill="#1D2234" fill-rule="evenodd" />
</svg>