<svg fill="none" height="24" viewBox="0 0 24 24" width="24" xmlns="http://www.w3.org/2000/svg">
	<path clip-rule="evenodd" d="M20.9 2.00006H3.1C2.5 2.00006 2 2.50006 2 3.10006V20.9001C2 21.5001 2.5 22.0001 3.1 22.0001H12.7V14.3001H10.1V11.3001H12.7V9.00006C12.7 6.40006 14.3 5.00006 16.6 5.00006C17.7 5.00006 18.7 5.10006 18.9 5.10006V7.80006H17.3C16 7.80006 15.8 8.40006 15.8 9.30006V11.2001H18.8L18.4 14.2001H15.8V22.0001H20.9C21.5 22.0001 22 21.5001 22 20.9001V3.10006C22 2.50006 21.5 2.00006 20.9 2.00006Z" fill="#2E303D" fill-rule="evenodd" />
</svg>