<svg width="182" height="26" viewBox="0 0 182 26" fill="none" xmlns="http://www.w3.org/2000/svg">
<path fill-rule="evenodd" clip-rule="evenodd" d="M0 0H8.64452C10.4863 0 12.2526 0.72669 13.5549 2.02021C14.8572 3.31372 15.5888 5.06811 15.5888 6.89742V25.1187H12.7968C12.7968 24.3903 12.5054 23.6917 11.9869 23.1766C11.4683 22.6615 10.765 22.3722 10.0316 22.3722H0V0ZM12.7968 20.3308V6.89742C12.7968 5.8036 12.3593 4.75459 11.5806 3.98115C10.8019 3.2077 9.74576 2.77319 8.64452 2.77319H2.79202V19.599H10.0316C11.0103 19.599 11.9623 19.8554 12.7968 20.3308Z" fill="#2E303D"/>
<path fill-rule="evenodd" clip-rule="evenodd" d="M14.8318 2.02021C16.1341 0.72669 17.9004 0 19.7421 0H28.3866V22.3722H18.355C17.6217 22.3722 16.9183 22.6615 16.3998 23.1766C15.8812 23.6917 15.5899 24.3903 15.5899 25.1187H12.7979V6.89742C12.7979 5.06811 13.5295 3.31372 14.8318 2.02021ZM15.5899 20.3308C16.4243 19.8554 17.3764 19.599 18.355 19.599H25.5946V2.77319H19.7421C18.6409 2.77319 17.5847 3.2077 16.806 3.98115C16.0273 4.75459 15.5899 5.8036 15.5899 6.89742V20.3308Z" fill="#2E303D"/>
<path d="M55.432 19.6078L55.408 8.47181L49.888 17.6878H48.496L42.976 8.61581V19.6078H40V2.8078H42.568L49.24 13.9438L55.792 2.8078H58.36L58.384 19.6078H55.432Z" fill="#2E303D"/>
<path d="M67.5299 6.6478C69.4179 6.6478 70.8579 7.10381 71.8499 8.01581C72.8579 8.91181 73.3619 10.2718 73.3619 12.0958V19.6078H70.5299V18.0478C70.1619 18.6078 69.6339 19.0398 68.9459 19.3438C68.2739 19.6318 67.4579 19.7758 66.4979 19.7758C65.5379 19.7758 64.6979 19.6158 63.9779 19.2958C63.2579 18.9598 62.6979 18.5038 62.2979 17.9278C61.9139 17.3358 61.7219 16.6718 61.7219 15.9358C61.7219 14.7838 62.1459 13.8638 62.9939 13.1758C63.8579 12.4718 65.2099 12.1198 67.0499 12.1198H70.3619V11.9278C70.3619 11.0318 70.0899 10.3438 69.5459 9.86381C69.0179 9.38381 68.2259 9.14381 67.1699 9.14381C66.4499 9.14381 65.7379 9.25581 65.0339 9.47981C64.3459 9.70381 63.7619 10.0158 63.2819 10.4158L62.1059 8.2318C62.7779 7.7198 63.5859 7.32781 64.5299 7.05581C65.4739 6.78381 66.4739 6.6478 67.5299 6.6478ZM67.1219 17.5918C67.8739 17.5918 68.5379 17.4238 69.1139 17.0878C69.7059 16.7358 70.1219 16.2398 70.3619 15.5998V14.1118H67.2659C65.5379 14.1118 64.6739 14.6798 64.6739 15.8158C64.6739 16.3598 64.8899 16.7918 65.3219 17.1118C65.7539 17.4318 66.3539 17.5918 67.1219 17.5918Z" fill="#2E303D"/>
<path d="M81.172 19.7758C80.132 19.7758 79.116 19.6398 78.124 19.3678C77.132 19.0958 76.34 18.7518 75.748 18.3358L76.9 16.0558C77.476 16.4398 78.164 16.7518 78.964 16.9918C79.78 17.2158 80.58 17.3278 81.364 17.3278C83.156 17.3278 84.052 16.8558 84.052 15.9118C84.052 15.4638 83.82 15.1518 83.356 14.9758C82.908 14.7998 82.18 14.6318 81.172 14.4718C80.116 14.3118 79.252 14.1278 78.58 13.9198C77.924 13.7118 77.348 13.3518 76.852 12.8398C76.372 12.3118 76.132 11.5838 76.132 10.6558C76.132 9.43981 76.636 8.4718 77.644 7.7518C78.668 7.0158 80.044 6.6478 81.772 6.6478C82.652 6.6478 83.532 6.7518 84.412 6.95981C85.292 7.1518 86.012 7.4158 86.572 7.7518L85.42 10.0318C84.332 9.39181 83.108 9.07181 81.748 9.07181C80.868 9.07181 80.196 9.20781 79.732 9.47981C79.284 9.73581 79.06 10.0798 79.06 10.5118C79.06 10.9918 79.3 11.3358 79.78 11.5438C80.276 11.7358 81.036 11.9198 82.06 12.0958C83.084 12.2558 83.924 12.4398 84.58 12.6478C85.236 12.8558 85.796 13.2078 86.26 13.7038C86.74 14.1998 86.98 14.9038 86.98 15.8158C86.98 17.0158 86.46 17.9758 85.42 18.6958C84.38 19.4158 82.964 19.7758 81.172 19.7758Z" fill="#2E303D"/>
<path d="M97.2676 18.9118C96.9156 19.1998 96.4836 19.4158 95.9716 19.5598C95.4756 19.7038 94.9476 19.7758 94.3876 19.7758C92.9796 19.7758 91.8916 19.4078 91.1236 18.6718C90.3556 17.9358 89.9716 16.8638 89.9716 15.4558V9.28781H87.8596V6.8878H89.9716V3.95981H92.9716V6.8878H96.4036V9.28781H92.9716V15.3838C92.9716 16.0078 93.1236 16.4878 93.4276 16.8238C93.7316 17.1438 94.1716 17.3038 94.7476 17.3038C95.4196 17.3038 95.9796 17.1278 96.4276 16.7758L97.2676 18.9118Z" fill="#2E303D"/>
<path d="M111.362 13.2718C111.362 13.4798 111.346 13.7758 111.314 14.1598H101.258C101.434 15.1038 101.89 15.8558 102.626 16.4158C103.378 16.9598 104.306 17.2318 105.41 17.2318C106.818 17.2318 107.978 16.7678 108.89 15.8398L110.498 17.6878C109.922 18.3758 109.194 18.8958 108.314 19.2478C107.434 19.5998 106.442 19.7758 105.338 19.7758C103.93 19.7758 102.69 19.4958 101.618 18.9358C100.546 18.3758 99.7136 17.5998 99.1216 16.6078C98.5456 15.5998 98.2576 14.4638 98.2576 13.1998C98.2576 11.9518 98.5376 10.8318 99.0976 9.83981C99.6736 8.83181 100.466 8.04781 101.474 7.48781C102.482 6.92781 103.618 6.6478 104.882 6.6478C106.13 6.6478 107.242 6.92781 108.218 7.48781C109.21 8.03181 109.978 8.80781 110.522 9.81581C111.082 10.8078 111.362 11.9598 111.362 13.2718ZM104.882 9.04781C103.922 9.04781 103.106 9.33581 102.434 9.91181C101.778 10.4718 101.378 11.2238 101.234 12.1678H108.506C108.378 11.2398 107.986 10.4878 107.33 9.91181C106.674 9.33581 105.858 9.04781 104.882 9.04781Z" fill="#2E303D"/>
<path d="M117.099 8.66381C117.963 7.31981 119.483 6.6478 121.659 6.6478V9.5038C121.403 9.4558 121.171 9.43181 120.963 9.43181C119.795 9.43181 118.883 9.77581 118.227 10.4638C117.571 11.1358 117.243 12.1118 117.243 13.3918V19.6078H114.243V6.7918H117.099V8.66381Z" fill="#2E303D"/>
<path d="M129.967 19.7758C128.639 19.7758 127.447 19.4958 126.391 18.9358C125.335 18.3758 124.511 17.5998 123.919 16.6078C123.327 15.5998 123.031 14.4638 123.031 13.1998C123.031 11.9358 123.327 10.8078 123.919 9.81581C124.511 8.82381 125.327 8.04781 126.367 7.48781C127.423 6.92781 128.623 6.6478 129.967 6.6478C131.231 6.6478 132.335 6.90381 133.279 7.41581C134.239 7.92781 134.959 8.66381 135.439 9.62381L133.135 10.9678C132.767 10.3758 132.303 9.9358 131.743 9.6478C131.199 9.3438 130.599 9.19181 129.943 9.19181C128.823 9.19181 127.895 9.5598 127.159 10.2958C126.423 11.0158 126.055 11.9838 126.055 13.1998C126.055 14.4158 126.415 15.3918 127.135 16.1278C127.871 16.8478 128.807 17.2078 129.943 17.2078C130.599 17.2078 131.199 17.0638 131.743 16.7758C132.303 16.4718 132.767 16.0238 133.135 15.4318L135.439 16.7758C134.943 17.7358 134.215 18.4798 133.255 19.0078C132.311 19.5198 131.215 19.7758 129.967 19.7758Z" fill="#2E303D"/>
<path d="M137.915 1.7998H140.915V19.6078H137.915V1.7998Z" fill="#2E303D"/>
<path d="M149.749 6.6478C151.637 6.6478 153.077 7.10381 154.069 8.01581C155.077 8.91181 155.581 10.2718 155.581 12.0958V19.6078H152.749V18.0478C152.381 18.6078 151.853 19.0398 151.165 19.3438C150.493 19.6318 149.677 19.7758 148.717 19.7758C147.757 19.7758 146.917 19.6158 146.197 19.2958C145.477 18.9598 144.917 18.5038 144.517 17.9278C144.133 17.3358 143.941 16.6718 143.941 15.9358C143.941 14.7838 144.365 13.8638 145.213 13.1758C146.077 12.4718 147.429 12.1198 149.269 12.1198H152.581V11.9278C152.581 11.0318 152.309 10.3438 151.765 9.86381C151.237 9.38381 150.445 9.14381 149.389 9.14381C148.669 9.14381 147.957 9.25581 147.253 9.47981C146.565 9.70381 145.981 10.0158 145.501 10.4158L144.325 8.2318C144.997 7.7198 145.805 7.32781 146.749 7.05581C147.693 6.78381 148.693 6.6478 149.749 6.6478ZM149.341 17.5918C150.093 17.5918 150.757 17.4238 151.333 17.0878C151.925 16.7358 152.341 16.2398 152.581 15.5998V14.1118H149.485C147.757 14.1118 146.893 14.6798 146.893 15.8158C146.893 16.3598 147.109 16.7918 147.541 17.1118C147.973 17.4318 148.573 17.5918 149.341 17.5918Z" fill="#2E303D"/>
<path d="M163.391 19.7758C162.351 19.7758 161.335 19.6398 160.343 19.3678C159.351 19.0958 158.559 18.7518 157.967 18.3358L159.119 16.0558C159.695 16.4398 160.383 16.7518 161.183 16.9918C161.999 17.2158 162.799 17.3278 163.583 17.3278C165.375 17.3278 166.271 16.8558 166.271 15.9118C166.271 15.4638 166.039 15.1518 165.575 14.9758C165.127 14.7998 164.399 14.6318 163.391 14.4718C162.335 14.3118 161.471 14.1278 160.799 13.9198C160.143 13.7118 159.567 13.3518 159.071 12.8398C158.591 12.3118 158.351 11.5838 158.351 10.6558C158.351 9.43981 158.855 8.4718 159.863 7.7518C160.887 7.0158 162.263 6.6478 163.991 6.6478C164.871 6.6478 165.751 6.7518 166.631 6.95981C167.511 7.1518 168.231 7.4158 168.791 7.7518L167.639 10.0318C166.551 9.39181 165.327 9.07181 163.967 9.07181C163.087 9.07181 162.415 9.20781 161.951 9.47981C161.503 9.73581 161.279 10.0798 161.279 10.5118C161.279 10.9918 161.519 11.3358 161.999 11.5438C162.495 11.7358 163.255 11.9198 164.279 12.0958C165.303 12.2558 166.143 12.4398 166.799 12.6478C167.455 12.8558 168.015 13.2078 168.479 13.7038C168.959 14.1998 169.199 14.9038 169.199 15.8158C169.199 17.0158 168.679 17.9758 167.639 18.6958C166.599 19.4158 165.183 19.7758 163.391 19.7758Z" fill="#2E303D"/>
<path d="M175.742 19.7758C174.702 19.7758 173.686 19.6398 172.694 19.3678C171.702 19.0958 170.91 18.7518 170.318 18.3358L171.47 16.0558C172.046 16.4398 172.734 16.7518 173.534 16.9918C174.35 17.2158 175.15 17.3278 175.934 17.3278C177.726 17.3278 178.622 16.8558 178.622 15.9118C178.622 15.4638 178.39 15.1518 177.926 14.9758C177.478 14.7998 176.75 14.6318 175.742 14.4718C174.686 14.3118 173.822 14.1278 173.15 13.9198C172.494 13.7118 171.918 13.3518 171.422 12.8398C170.942 12.3118 170.702 11.5838 170.702 10.6558C170.702 9.43981 171.206 8.4718 172.214 7.7518C173.238 7.0158 174.614 6.6478 176.342 6.6478C177.222 6.6478 178.102 6.7518 178.982 6.95981C179.862 7.1518 180.582 7.4158 181.142 7.7518L179.99 10.0318C178.902 9.39181 177.678 9.07181 176.318 9.07181C175.438 9.07181 174.766 9.20781 174.302 9.47981C173.854 9.73581 173.63 10.0798 173.63 10.5118C173.63 10.9918 173.87 11.3358 174.35 11.5438C174.846 11.7358 175.606 11.9198 176.63 12.0958C177.654 12.2558 178.494 12.4398 179.15 12.6478C179.806 12.8558 180.366 13.2078 180.83 13.7038C181.31 14.1998 181.55 14.9038 181.55 15.8158C181.55 17.0158 181.03 17.9758 179.99 18.6958C178.95 19.4158 177.534 19.7758 175.742 19.7758Z" fill="#2E303D"/>
</svg>
