<svg fill="none" height="22" viewBox="0 0 18 22" width="18" xmlns="http://www.w3.org/2000/svg">
	<path clip-rule="evenodd" d="M16 0.70874H2C0.89 0.70874 0 1.60874 0 2.70874V16.7087C0 17.8087 0.9 18.7087 2 18.7087H6L8.29 20.9987C8.68 21.3887 9.31 21.3887 9.7 20.9987L12 18.7087H16C17.1 18.7087 18 17.8087 18 16.7087V2.70874C18 1.60874 17.1 0.70874 16 0.70874ZM9 4.00874C10.49 4.00874 11.7 5.21874 11.7 6.70874C11.7 8.19874 10.49 9.40874 9 9.40874C7.51 9.40874 6.3 8.19874 6.3 6.70874C6.3 5.21874 7.51 4.00874 9 4.00874ZM3 13.8087V14.7087H15V13.8087C15 11.8087 11 10.7087 9 10.7087C7 10.7087 3 11.8087 3 13.8087Z" fill="#4D85FF" fill-rule="evenodd" />
</svg>