<svg fill="none" height="20" viewBox="0 0 16 20" width="16" xmlns="http://www.w3.org/2000/svg">
	<path clip-rule="evenodd" d="M14 0.01L2 0C0.9 0 0 0.89 0 2V18C0 19.1 0.9 20 2 20H14C15.1 20 16 19.1 16 18V2C16 0.89 15.1 0.01 14 0.01ZM13 18H3C2.45 18 2 17.55 2 17V9.98C2 9.43 2.45 8.98 3 8.98H13C13.55 8.98 14 9.43 14 9.98V17C14 17.55 13.55 18 13 18ZM3 7H13C13.55 7 14 6.55 14 6V3C14 2.45 13.55 2 13 2H3C2.45 2 2 2.45 2 3V6C2 6.55 2.45 7 3 7ZM5 3C5.55 3 6 3.45 6 4V5C6 5.55 5.55 6 5 6C4.45 6 4 5.55 4 5V4C4 3.45 4.45 3 5 3ZM6 11C6 10.45 5.55 10 5 10C4.45 10 4 10.45 4 11V14C4 14.55 4.45 15 5 15C5.55 15 6 14.55 6 14V11Z" fill="#4D85FF" fill-rule="evenodd" />
</svg>