<svg width="112" height="112" viewBox="0 0 112 112" fill="none" xmlns="http://www.w3.org/2000/svg">
<circle cx="56" cy="56" r="56" fill="#E8D6FF"/>
<circle cx="55.9999" cy="56" r="46.6667" stroke="white" stroke-width="2.33333"/>
<mask id="mask0" mask-type="alpha" maskUnits="userSpaceOnUse" x="36" y="38" width="40" height="36">
<path d="M58.6244 72.1529C57.1466 73.4945 54.8716 73.4945 53.3938 72.1334L53.1799 71.939C42.9716 62.7029 36.3021 56.6556 36.5549 49.1112C36.6716 45.8056 38.3633 42.6362 41.1049 40.7695C46.2382 37.2695 52.5771 38.9029 55.9994 42.9084C59.4216 38.9029 65.7605 37.2501 70.8938 40.7695C73.6355 42.6362 75.3271 45.8056 75.4438 49.1112C75.716 56.6556 69.0271 62.7029 58.8188 71.9779L58.6244 72.1529Z" fill="black"/>
</mask>
<g mask="url(#mask0)">
<rect x="32.6667" y="32.6666" width="46.6667" height="46.6667" fill="#9A4DFF"/>
</g>
</svg>
